<svg width="828" height="380" viewBox="0 0 828 380" fill="none" xmlns="http://www.w3.org/2000/svg">
<g clip-path="url(#clip0_1647_17302)">
<rect width="828" height="380" rx="30" fill="#D1B6BB"/>
<rect width="828" height="480" rx="24" fill="white"/>
<g clip-path="url(#clip1_1647_17302)">
<path d="M969.817 -3.62891H-128.041V564.438H969.817V-3.62891Z" fill="url(#paint0_linear_1647_17302)"/>
<g style="mix-blend-mode:multiply" opacity="0.5">
<mask id="mask0_1647_17302" style="mask-type:luminance" maskUnits="userSpaceOnUse" x="-129" y="-4" width="1099" height="569">
<path d="M969.818 -3.62793H-128.04V564.439H969.818V-3.62793Z" fill="white"/>
</mask>
<g mask="url(#mask0_1647_17302)">
<path d="M402.718 442.539C407.912 443.679 417.29 445.734 420.193 447.836C419.672 451.053 414.479 467.24 363.898 505.253L354.17 512.565L373.952 538.886L383.68 531.574C404.717 515.766 421.029 501.503 432.166 489.187C438.997 481.629 459.792 458.629 451.141 435.943C444.27 417.942 425.146 413.745 409.778 410.372C405.369 409.404 398.51 407.899 395.063 406.37C396.019 404.039 398.665 399.258 405.959 391.386C421.516 374.592 450.173 352.325 491.135 325.202L501.281 318.48L483.102 291.025L472.956 297.747C429.807 326.318 399.14 350.298 381.808 369.009C375.258 376.081 355.326 397.598 363.589 418.766C370.076 435.376 388.181 439.35 402.73 442.539H402.718Z" fill="#EBE2E4"/>
<path d="M-235.094 573.601C-241.472 497.718 -241.467 440.403 -235.082 403.255C-229.042 368.11 -219.32 361.222 -215.42 359.894C-210.479 358.21 -203.27 361.262 -194.916 364.795C-181.587 370.435 -164.994 377.46 -146.878 368.179C-134.258 361.715 -126.643 350.32 -123.597 333.361C-121.249 320.277 -121.787 305.161 -122.36 289.158C-123.396 260.129 -124.576 227.217 -107.553 205.121C-96.9147 191.311 -79.7376 182.133 -55.0425 177.065C-31.8418 172.307 -6.21338 171.987 16.4033 171.706C34.0328 171.488 49.2518 171.299 61.19 169.084C77.8347 165.997 87.7516 158.417 90.666 146.553C91.9028 141.526 91.6509 136.493 89.9275 131.603C84.7915 117.008 68.1582 107.165 45.1292 93.5325C17.4052 77.1226 -20.5621 54.6491 -31.9391 22.3273C-32.5232 20.6725 -33.0385 18.9778 -33.4736 17.3001C-37.8137 0.546616 -35.1055 -18.7491 -25.4347 -40.0546C-15.1456 -62.7113 3.0509 -87.813 28.6621 -114.667L37.0617 -123.473L13.2369 -146.198L4.83725 -137.392C-20.0411 -111.306 -38.7871 -86.2956 -50.8799 -63.0549C-67.4559 -31.1912 -72.3228 -1.37726 -65.3545 25.5509C-64.6789 28.1561 -63.883 30.7728 -62.9841 33.3264C-47.6505 76.8821 -3.72269 102.883 28.3472 121.869C35.47 126.089 45.8564 132.238 52.5956 137.14C50.7978 137.386 48.6335 137.626 46.034 137.833C37.411 138.514 27.0016 138.646 15.9796 138.783C-32.5976 139.39 -99.1306 140.22 -133.651 185.03C-157.917 216.533 -156.457 257.455 -155.283 290.338C-154.539 311.116 -153.697 334.672 -161.913 338.88C-166.042 340.993 -172.294 338.628 -182.102 334.477C-194.189 329.364 -209.231 322.997 -226.064 328.729C-247.25 335.949 -260.82 358.502 -267.553 397.678C-274.413 437.575 -274.533 497.689 -267.925 576.355L-266.906 588.482L-234.092 585.722L-235.111 573.595L-235.094 573.601Z" fill="#EBE2E4"/>
<path d="M170.716 534.799C186.914 536.934 205.408 535.938 224.99 534.879C258.806 533.052 297.134 530.979 309.124 548.517C319.539 563.754 308.385 592.113 297.592 619.539C284.337 653.218 269.319 691.397 290.172 720.37C300.02 734.054 316.018 742.832 337.718 746.45C357.483 749.748 382.677 748.815 412.605 743.685L424.601 741.629L419.035 709.176L407.04 711.231C385.368 714.947 366.902 716.247 352.153 715.102C339.969 714.151 323.965 710.962 316.899 701.143C306.536 686.748 317.077 659.963 328.236 631.603C341.52 597.845 356.579 559.58 336.31 529.943C325.809 514.592 308.672 505.54 283.902 502.276C264.818 499.763 243.673 500.902 223.215 502.007C206.101 502.929 189.931 503.805 177.134 502.442C169.576 501.635 159.963 499.625 157.111 494.627C154.661 490.327 155.766 481.818 160.146 471.294C167.807 452.886 184.79 428.638 210.618 399.219L218.652 390.075L193.911 368.346L185.883 377.49C159.585 407.441 142.024 432.182 132.21 453.132C121.24 476.539 119.997 495.984 128.511 510.928C136.104 524.246 149.908 532.056 170.721 534.804L170.716 534.799Z" fill="#EBE2E4"/>
<path d="M486.634 -137.626C472.996 -146.627 455.921 -153.802 437.845 -161.4C406.629 -174.523 371.244 -189.398 368.112 -210.412C365.392 -228.666 387.814 -249.307 409.503 -269.267C436.133 -293.779 466.319 -321.56 460.216 -356.733C457.33 -373.349 446.772 -388.225 428.833 -400.959C412.492 -412.553 389.423 -422.722 360.256 -431.173L348.57 -434.563L339.403 -402.94L351.095 -399.55C372.211 -393.429 389.394 -386.536 402.162 -379.058C412.709 -372.885 425.713 -363.026 427.779 -351.105C430.814 -333.63 409.635 -314.139 387.213 -293.498C360.519 -268.929 330.264 -241.085 335.555 -205.568C338.292 -187.171 349.766 -171.546 370.619 -157.792C386.686 -147.2 406.211 -138.989 425.1 -131.047C440.903 -124.406 455.824 -118.13 466.743 -111.317C473.19 -107.291 480.96 -101.285 481.338 -95.5422C481.664 -90.6009 476.952 -83.4323 468.415 -75.8743C453.482 -62.6593 427.619 -48.2591 391.536 -33.0801L380.319 -28.3622L393.087 1.98999L404.304 -2.72806C441.046 -18.1875 467.642 -32.7767 485.626 -47.3372C505.718 -63.6041 515.332 -80.5522 514.192 -97.7122C513.179 -113.011 504.172 -126.066 486.646 -137.626H486.634Z" fill="#EBE2E4"/>
<path d="M948.105 434.013L941.423 423.839C934.368 413.097 928.849 401.886 924.938 390.372C929.198 392.462 933.441 394.38 937.666 396.109C984.033 415.101 1011.34 405.488 1026.08 394.082C1036.81 385.78 1045.28 373.069 1050.57 357.317C1055.21 343.529 1057.27 327.509 1056.38 312.221C1055.99 305.7 1055.12 299.373 1053.77 293.406C1048.91 272.004 1037.84 255.158 1022.61 245.986C1015.01 241.411 1006.31 238.68 996.762 237.867C982.178 236.624 966.066 239.888 950.166 247.314C935.388 254.214 921.64 264.446 911.454 276.126C899.808 289.484 891.729 306.364 887.841 325.064C886.032 323.369 884.291 321.663 882.614 319.957C860.924 297.815 846.095 269.673 838.525 236.309C833.538 214.311 832.88 195.124 833.206 182.905L833.533 170.738L800.615 169.856L800.289 182.024C799.739 202.476 801.841 223.816 806.352 243.73C806.644 245.012 806.942 246.289 807.257 247.56C816.453 285.167 833.893 317.277 859.086 342.997C867.085 351.168 876.12 359.023 885.997 366.398C886.627 372.364 887.624 378.37 888.975 384.325C893.492 404.239 901.875 423.615 913.893 441.915L920.575 452.089L948.099 434.013H948.105ZM918.17 348.631C918.651 328.597 924.984 310.715 936.275 297.769C953.55 277.964 987.606 263.352 1005.63 274.197C1012.98 278.622 1018.83 288.385 1021.69 300.982C1022.63 305.133 1023.25 309.559 1023.51 314.133C1024.84 336.83 1017.61 358.995 1005.93 368.03C999.882 372.708 991.368 374.614 980.621 373.698C963.026 372.198 940.529 363.129 918.176 348.62L918.17 348.631Z" fill="#EBE2E4"/>
<path d="M590.894 109.478C600.605 109.942 609.847 109.524 618.441 108.236C643.88 126.415 673.162 137.678 701.453 140.077C718.773 141.548 737.422 139.916 755.698 135.353C761.756 138.405 767.906 140.821 774.043 142.556C801.808 150.412 832.526 145.82 860.548 129.633C873.064 122.401 884.504 113.108 894.547 102.023C907.052 88.213 916.946 72.1866 923.949 54.3853L928.403 43.0598L897.759 31.0014L893.305 42.3269C887.751 56.4408 879.906 69.1462 869.995 80.0938C851.65 100.346 828.484 112.061 805.867 113.332C812.87 108.465 819.065 103.06 824.407 97.1623C834.444 86.083 841.086 73.6753 844.155 60.2885C848.186 42.7048 846.319 21.5081 839.157 3.58084C830.642 -17.7246 815.635 -33.0352 796.889 -39.5282C779.723 -45.4772 760.124 -43.6794 741.716 -34.4667C731.221 -29.2162 721.413 -21.7269 713.339 -12.8119C704.693 -3.26141 698.24 7.67476 694.679 18.8113C694.284 20.0424 693.929 21.2791 693.597 22.5216C694.353 6.1517 691.793 -9.67994 687.751 -22.2365C679.5 -47.8878 664.51 -65.5975 646.634 -70.8251C633.15 -74.7644 617.141 -71.7927 601.55 -62.4541C593.551 -57.6616 586.205 -51.598 579.712 -44.4294C568.999 -32.6001 561.527 -18.5949 558.67 -4.99056C553.689 18.714 561.321 45.7165 580.153 71.0357C581.378 72.6847 582.649 74.3223 583.949 75.937C565.134 73.91 549.692 68.7569 547.31 67.9324C507.997 54.3567 485.844 23.9816 476.139 7.08499L470.076 -3.46753L441.521 12.9367L447.585 23.4892C459.586 44.3824 487.104 81.9776 536.557 99.0575C540.955 100.575 564.247 108.219 590.883 109.484L590.894 109.478ZM726.05 28.8256C728.163 22.2124 732.223 15.4675 737.794 9.31804C743.21 3.33465 749.663 -1.62386 756.454 -5.01922C766.863 -10.2296 777.393 -11.432 786.108 -8.41457C795.687 -5.09365 803.668 3.50642 808.581 15.7996C813.282 27.566 814.616 41.7944 812.062 52.9367C810.27 60.7638 806.211 68.2072 799.998 75.0667C793.122 82.659 783.915 89.2321 772.623 94.6086C768.644 96.5038 764.436 98.2272 760.055 99.756C748.249 91.5797 738.063 80.3973 731.644 68.4534L731.581 68.3389L731.593 68.3561C726.4 58.6624 721.229 43.9301 726.05 28.8314V28.8256ZM702.558 83.8786L702.638 84.0274C707.069 92.2782 712.772 100.248 719.408 107.554C714.215 107.778 709.125 107.68 704.235 107.268C688.862 105.963 672.795 101.193 657.548 93.5379C662.535 90.1139 667.07 86.1631 671.112 81.6971C672.36 80.3229 673.574 78.88 674.719 77.4085C683.199 66.5639 688.398 54.1391 691.169 41.4108C691.169 55.3701 694.988 69.7474 702.552 83.8843L702.558 83.8786ZM656.408 -12.1592C663.165 8.83135 663.428 38.3933 648.782 57.1165C648.117 57.9639 647.419 58.7941 646.703 59.5843C641.458 65.373 634.633 69.736 626.354 72.6103C618.859 66.083 612.223 58.9602 606.583 51.3736C593.459 33.7326 587.888 16.1145 590.9 1.76579C592.583 -6.25024 597.25 -14.793 604.029 -22.2823C608.283 -26.9774 613.276 -31.1057 618.469 -34.2205C625.879 -38.6579 632.95 -40.5302 637.393 -39.2305C643.05 -37.5757 651.123 -28.5692 656.397 -12.1649L656.408 -12.1592Z" fill="#EBE2E4"/>
<path d="M306.051 527.783C274.903 510.417 271.633 498.96 271.679 494.843C271.731 489.621 277.004 483.832 283.114 477.128C292.864 466.426 304.992 453.102 302.255 432.936C300.342 418.885 292.132 407.921 277.142 399.418C265.581 392.856 251.141 388.35 235.853 383.575C208.124 374.918 176.695 365.098 161.499 341.703C152.006 327.079 149.051 307.835 152.469 282.853C155.682 259.389 163.892 235.107 171.135 213.681C176.781 196.979 181.654 182.556 183.532 170.56C186.143 153.835 182.289 141.96 172.063 135.278C167.729 132.444 162.902 131.007 157.714 131.007C142.243 131.007 127.431 143.432 106.933 160.62C82.249 181.325 48.4443 209.673 14.1815 209.673C12.4237 209.673 10.6544 209.598 8.92523 209.45C-8.32069 207.978 -25.6238 199.023 -42.509 182.825C-60.4649 165.602 -78.1002 140.099 -94.9282 107.022L-100.448 96.1772L-129.798 111.11L-124.278 121.96C-107.931 154.087 -90.5652 180.071 -72.655 199.195C-48.1031 225.407 -21.5987 239.899 6.1196 242.264C8.80498 242.493 11.5362 242.607 14.2387 242.607C60.4111 242.607 99.5235 209.804 128.084 185.854C134.428 180.534 143.675 172.776 150.54 168.052C150.179 169.833 149.687 171.952 149.017 174.477C146.795 182.836 143.463 192.702 139.936 203.14C124.379 249.163 103.074 312.198 133.878 359.641C155.538 392.994 194.622 405.201 226.034 415.009C245.879 421.21 268.376 428.236 269.618 437.374C270.242 441.972 265.936 447.085 258.762 454.958C249.922 464.663 238.922 476.738 238.745 494.517C238.522 516.899 255.292 537.191 290.013 556.544C325.37 576.257 382.037 596.337 458.436 616.217L470.213 619.28L478.504 587.411L466.726 584.348C393.03 565.167 338.968 546.134 306.045 527.783H306.051Z" fill="#EBE2E4"/>
<path d="M220.979 309.038C249.699 324.303 278.929 332.038 307.844 332.038C320.194 332.038 332.539 330.584 344.546 327.721C370.46 321.543 397.6 308.717 417.847 293.166C436.364 290.12 452.98 283.656 466.069 274.38C492.39 255.737 499.364 229.954 504.975 209.238C510.334 189.427 513.987 177.89 526.618 171.099C533.415 167.446 541.837 165.591 551.646 165.591C562.925 165.591 575.654 168.156 588.451 173.017C594.915 175.474 601.242 178.44 607.294 181.852C591.932 187.721 578.837 197.134 569.121 209.53C556.908 225.116 548.995 246.805 547.958 267.544C546.693 292.931 555.499 314.58 572.751 328.5C585.239 338.577 601.053 343.902 618.471 343.902C621.751 343.902 625.095 343.707 628.428 343.324C650.495 340.77 671.084 329.708 683.515 313.739C700.372 292.078 702.753 261.36 690.226 227.246C689.006 223.925 687.615 220.633 686.057 217.38C689.04 218.932 691.852 220.661 694.463 222.539C730.97 248.855 731.995 303.925 710.042 338.852C690.5 369.948 655.173 378.371 644.809 380.209L632.825 382.339L638.585 414.758L650.569 412.628C659.152 411.105 672.459 407.813 687.099 400.787C708.863 390.343 725.96 375.399 737.921 356.373C752.963 332.445 759.713 301.915 756.449 272.622C752.854 240.369 737.675 213.092 713.718 195.823C696.925 183.719 675.848 176.441 653.907 175.102C638.505 161.091 620.005 149.777 600.137 142.23C583.452 135.897 567.145 132.685 551.663 132.685C536.18 132.685 522.633 135.852 511.027 142.093C485.29 155.926 478.579 180.713 473.192 200.633C469.498 214.283 466.172 226.582 458.265 236.808C459.988 229.971 460.784 222.969 460.641 215.812C460.131 190.057 447.065 162.081 426.538 142.803C409.687 126.977 388.983 118.262 368.239 118.262C367.174 118.262 366.097 118.285 365.038 118.331C338.912 119.453 313.942 134.306 296.524 159.081C279.089 183.885 272.608 213.235 279.604 235.668C286.47 257.672 307.97 276.229 338.597 286.582C343.372 288.196 348.296 289.593 353.323 290.761C347.809 292.737 342.29 294.397 336.902 295.686C327.391 297.953 317.6 299.104 307.804 299.104C251.588 299.104 207.489 261.743 199.221 254.248L190.203 246.078L168.096 270.487L177.119 278.657C182.794 283.799 198.431 297.048 220.984 309.032L220.979 309.038ZM368.233 151.197C380.572 151.197 393.272 156.745 403.996 166.811C418.288 180.232 427.374 199.258 427.718 216.464C428.033 232.382 420.148 247.584 404.282 261.686C400.183 262.081 395.986 262.282 391.772 262.282C377.223 262.282 362.484 259.9 349.149 255.394C328.926 248.557 314.68 237.518 311.044 225.86C307.208 213.561 312.316 193.888 323.469 178.016C334.955 161.675 350.626 151.912 366.458 151.231C367.048 151.208 367.643 151.191 368.245 151.191L368.233 151.197ZM580.939 268.551C581.786 254.695 587.185 239.865 595.041 229.845C604.952 217.197 621.282 209.416 640.383 208.093C648.966 217.65 655.47 228.11 659.324 238.594C667.792 261.652 667.157 281.154 657.537 293.515C650.42 302.659 638.127 309.055 624.649 310.613C622.576 310.853 620.503 310.973 618.494 310.973C608.674 310.973 600.011 308.173 593.438 302.871C581.946 293.601 580.303 279.092 580.944 268.551H580.939Z" fill="#EBE2E4"/>
<path d="M53.4083 -13.3781C22.2603 -30.7442 18.9909 -42.2014 19.0367 -46.3182C19.0883 -51.5401 24.3616 -57.3288 30.471 -64.0337C40.2162 -74.735 52.3491 -88.0531 49.6122 -108.225C47.6998 -122.276 39.4891 -133.241 24.4991 -141.743C12.9388 -148.305 -1.50146 -152.811 -16.7892 -157.586C-44.5189 -166.244 -75.9475 -176.063 -91.1436 -199.459C-100.637 -214.082 -103.591 -233.332 -100.173 -258.308C-96.9609 -281.772 -88.7502 -306.055 -81.5072 -327.48C-75.8616 -344.182 -70.989 -358.606 -69.111 -370.601C-66.5 -387.326 -70.3535 -399.201 -80.5796 -405.883C-84.914 -408.717 -89.7408 -410.154 -94.9283 -410.154C-110.399 -410.154 -125.212 -397.73 -145.71 -380.541C-170.394 -359.837 -204.198 -331.488 -238.461 -331.488C-240.219 -331.488 -241.988 -331.563 -243.717 -331.712C-260.963 -333.183 -278.266 -342.138 -295.152 -358.336C-313.107 -375.559 -330.743 -401.062 -347.571 -434.139L-353.09 -444.99L-382.44 -430.057L-376.921 -419.207C-360.574 -387.08 -343.208 -361.096 -325.298 -341.972C-300.746 -315.76 -274.241 -301.268 -246.523 -298.903C-243.838 -298.674 -241.106 -298.56 -238.404 -298.56C-192.231 -298.56 -153.119 -331.363 -124.559 -355.313C-118.215 -360.632 -108.968 -368.391 -102.103 -373.115C-102.463 -371.334 -102.956 -369.215 -103.626 -366.69C-105.842 -358.331 -109.18 -348.471 -112.707 -338.027C-120.059 -316.275 -129.208 -289.21 -132.815 -262.322C-137.241 -229.33 -132.644 -202.9 -118.765 -181.531C-97.1041 -148.179 -58.0202 -135.972 -26.6088 -126.164C-6.76343 -119.963 15.733 -112.937 16.9755 -103.799C17.5996 -99.2011 13.2938 -94.0881 6.11942 -86.2152C-2.7211 -76.5101 -13.7202 -64.4345 -13.8977 -46.6561C-14.121 -24.2742 2.64969 -3.98215 37.3705 15.3708C72.727 35.0846 129.395 55.1647 205.793 75.0444L217.571 78.1077L225.862 46.2383L214.084 43.175C140.388 23.9938 86.3256 4.96143 53.4026 -13.3896L53.4083 -13.3781Z" fill="#EBE2E4"/>
<path d="M188.644 -27.8416C159.191 -47.9503 156.975 -59.6595 157.388 -63.7534C157.909 -68.9466 163.686 -74.2372 170.374 -80.3637C181.046 -90.1433 194.336 -102.31 193.425 -122.643C192.795 -136.808 185.604 -148.471 171.444 -158.297C160.52 -165.878 146.554 -171.672 131.759 -177.81C104.923 -188.941 74.5133 -201.555 61.493 -226.227C53.3567 -241.646 52.1542 -261.085 57.8227 -285.648C63.1419 -308.723 73.5112 -332.17 82.661 -352.851C89.7952 -368.975 95.9504 -382.894 98.9049 -394.672C103.022 -411.094 100.25 -423.267 90.677 -430.847C86.6175 -434.06 81.9395 -435.926 76.7749 -436.396C61.3669 -437.793 45.4952 -426.759 23.5256 -411.489C-2.92734 -393.103 -39.1598 -367.922 -73.2794 -371.019C-75.0315 -371.18 -76.7836 -371.414 -78.4898 -371.718C-95.5296 -374.741 -111.957 -385.225 -127.307 -402.883C-143.632 -421.658 -158.891 -448.654 -172.661 -483.112L-177.179 -494.415L-207.76 -482.196L-203.242 -470.893C-189.867 -437.421 -174.917 -409.971 -158.81 -389.307C-136.726 -360.982 -111.642 -344.154 -84.2499 -339.299C-81.5989 -338.829 -78.8849 -338.463 -76.1938 -338.222C-30.2104 -334.054 11.7077 -363.186 42.3117 -384.458C49.1139 -389.181 59.0251 -396.069 66.2854 -400.157C65.7643 -398.417 65.0829 -396.35 64.1897 -393.899C61.2238 -385.774 57.0154 -376.253 52.5551 -366.175C43.2679 -345.179 31.7077 -319.047 25.6899 -292.594C18.3037 -260.135 20.491 -233.401 32.3833 -210.865C50.9404 -175.691 88.7646 -160.003 119.157 -147.395C138.361 -139.43 160.13 -130.401 160.542 -121.182C160.749 -116.55 155.996 -111.85 148.14 -104.652C138.458 -95.7888 126.417 -84.7554 124.631 -67.0628C122.386 -44.7897 137.256 -23.072 170.082 -0.655731C203.514 22.1728 258.132 47.2916 332.418 73.9964L343.869 78.1132L355.006 47.1255L343.554 43.0087C271.891 17.2486 219.775 -6.59335 188.644 -27.8473V-27.8416Z" fill="#EBE2E4"/>
<path d="M243.038 676.149C243.038 670.297 242.7 664.497 242.024 658.915C239.093 634.557 230.476 619.109 217.106 614.237C191.34 604.852 158.978 638.812 149.674 649.439C129.96 671.964 117.06 697.598 113.562 720.85C91.701 708.688 68.4774 689.318 55.1307 664.177C68.4202 665.585 81.0797 665.453 92.3423 663.759C110.138 661.079 124.235 654.735 134.237 644.904C146.181 633.16 153.23 615.073 154.621 592.593C154.787 589.851 154.873 587.022 154.873 584.182C154.873 568.225 152.256 551.403 147.315 535.536C137.81 505.058 122.047 485.78 104.057 482.642C89.4622 480.1 73.2584 487.549 57.1862 504.188C31.9014 530.366 13.8711 571.563 11.2601 609.152C11.0311 612.49 10.9109 615.84 10.9109 619.115V619.264C-15.6565 608.666 -59.092 585.19 -79.5787 540.048C-82.5045 533.601 -84.8636 526.782 -86.6385 519.642C-74.4599 523.026 -62.3385 525.287 -50.8298 526.289C-15.7196 529.341 13.2984 520.936 30.8822 502.636C45.9294 486.971 53.8825 462.785 53.8825 432.685C53.8825 410.412 49.4908 385.935 41.5149 363.764C28.5404 327.698 9.23894 305.643 -11.4482 303.255C-22.1037 302.024 -33.664 305.774 -45.8083 314.397C-56.4982 321.989 -67.1137 332.96 -77.3456 347C-96.7502 373.618 -111.918 407.91 -118.966 441.09C-120.959 450.464 -122.333 459.796 -123.071 468.986C-149.118 454.431 -171.013 434.958 -185.797 412.977C-203.192 387.108 -212.015 356.35 -212.015 321.566C-212.015 283.724 -201.462 252.725 -198.227 244.125L-193.945 232.731L-224.766 221.142L-229.049 232.531C-232.834 242.591 -241.898 269.759 -244.32 304.606C-244.715 310.298 -244.915 316.018 -244.915 321.6C-244.915 363.049 -234.219 399.974 -213.126 431.345C-195.387 457.724 -169.748 480.77 -138.972 497.987C-133.618 500.982 -128.099 503.799 -122.493 506.398C-120.512 523.215 -116.172 539.081 -109.559 553.658C-96.7272 581.938 -74.437 607.297 -45.1098 626.994C-26.5412 639.464 -5.42467 649.461 16.3274 656.115C22.8719 677.426 35.4799 697.987 53.0751 715.96C70.8077 734.071 93.5218 749.375 117.1 759.098C118.091 761.726 119.236 764.291 120.536 766.776C129.514 783.925 145.62 797.374 167.12 805.671C187.384 813.492 210.733 816.04 234.638 813.04L246.714 811.528L242.62 778.857L230.544 780.369C207.71 783.232 185.586 779.31 169.691 770.572C184.876 770.538 198.182 766.982 208.672 759.98C234.014 743.054 243.044 705.579 243.044 676.149H243.038ZM205.185 646.266C206.508 649.049 208.306 654.363 209.33 662.848C209.834 667.034 210.092 671.437 210.092 675.943C210.092 701.543 201.984 724.841 190.378 732.593C180.988 738.863 164.555 739.35 145.506 734.117C145.506 733.933 145.506 733.75 145.506 733.567C145.506 727.434 146.714 720.684 149.102 713.498C153.728 699.573 162.729 684.526 174.455 671.128C188.082 655.559 199.78 648.414 205.191 646.266H205.185ZM121.944 584.159C121.944 586.335 121.881 588.488 121.75 590.572C120.897 604.589 117.129 615.548 111.146 621.428C100.45 631.946 75.5716 635.084 46.2214 629.628C45.5916 629.507 44.9618 629.387 44.3263 629.261C43.977 625.877 43.8052 622.413 43.8052 618.909C43.8052 581.972 62.4196 546.169 80.8622 527.074C90.4986 517.1 96.9973 515.118 98.4115 515.101C100.902 515.949 109.348 524.423 115.869 545.345C119.837 558.079 121.939 571.5 121.939 584.159H121.944ZM7.12038 479.825C-3.27184 490.647 -23.3634 495.622 -47.9955 493.487C-61.3136 492.33 -75.9314 488.969 -90.6694 483.707C-90.24 444.486 -75.0267 399.699 -50.7496 366.393C-33.3777 342.562 -19.092 335.519 -15.2443 335.96C-10.9672 336.453 0.970947 348.385 10.51 374.907C17.1461 393.349 20.948 414.449 20.948 432.782C20.948 433.681 20.9366 434.575 20.9195 435.462C20.5072 455.508 15.7319 470.853 7.10898 479.825H7.12038Z" fill="#EBE2E4"/>
</g>
</g>
</g>
</g>
<defs>
<linearGradient id="paint0_linear_1647_17302" x1="420.888" y1="-3.62891" x2="420.888" y2="564.438" gradientUnits="userSpaceOnUse">
<stop stop-color="#D7C9C4" stop-opacity="0.5"/>
<stop offset="1" stop-color="#968985"/>
</linearGradient>
<clipPath id="clip0_1647_17302">
<rect width="828" height="380" rx="30" fill="white"/>
</clipPath>
<clipPath id="clip1_1647_17302">
<rect width="828" height="480" rx="24" fill="white"/>
</clipPath>
</defs>
</svg>
