<svg width="490" height="230" viewBox="0 0 490 230" fill="none" xmlns="http://www.w3.org/2000/svg">
<path d="M71.5514 115.34L79.0317 102.353C79.4632 100.413 81.0935 90.9241 81.0935 60.8052C81.0935 30.6864 79.4632 21.1978 79.0317 19.257L71 5.16797L88.0464 6.29413H142.974L135.014 19.4008C134.559 21.4135 132.88 30.926 132.88 60.8052C132.88 62.9857 132.88 65.0463 132.88 66.9872C151.989 66.46 159.085 64.8546 160.932 64.3275L177.834 50.4781L174.933 73.5764L172.032 115.316H71.5514V115.34Z" fill="#EDE7E5"/>
<path d="M209.364 115.34H154.868L162.348 102.354C162.78 100.413 164.41 90.9241 164.41 60.8052C164.41 30.6864 162.78 21.1978 162.348 19.257L154.316 5.16797L171.363 6.29414H226.29L218.33 19.4008C217.875 21.4135 216.197 30.926 216.197 60.8052C216.197 90.6845 217.875 100.221 218.33 102.21L226.89 116.49L209.364 115.316V115.34Z" fill="#EDE7E5"/>
<path d="M266.301 116.658C226.885 116.658 203.365 95.788 203.365 60.829C203.365 25.87 226.885 5 266.301 5C285.721 5 300.825 9.12129 301.472 9.31297L308.497 11.2538V110.428L301.472 112.369C300.849 112.537 285.721 116.682 266.301 116.682V116.658ZM256.375 61.3561C257.142 61.8353 260.499 63.4647 270.856 63.4647C279.679 63.4647 286.392 62.027 290.396 60.829C286.392 59.6549 279.703 58.1933 270.856 58.1933C260.499 58.1933 257.142 59.7986 256.375 60.3018C256.375 60.4216 256.351 60.5894 256.351 60.829C256.351 61.0686 256.351 61.2363 256.375 61.3561Z" fill="#EDE7E5"/>
<path d="M356.808 116.658C319.455 116.658 295.312 94.7337 295.312 60.829C295.312 26.9243 319.455 5 356.808 5C394.162 5 418.185 26.9243 418.185 60.829C418.185 94.7337 394.09 116.658 356.808 116.658Z" fill="#EDE7E5"/>
<path d="M165.369 72.9289L163.092 105.755H88.0488C88.0488 105.755 90.6861 99.2859 90.6861 60.8286C90.6861 22.3713 88.0488 15.9019 88.0488 15.9019H126.05C126.05 15.9019 123.292 22.3713 123.292 60.8286C123.292 66.9386 123.293 72.21 123.412 76.7626C159.016 76.523 165.369 72.9289 165.369 72.9289Z" fill="#2B2E3D"/>
<path d="M209.363 15.9019C209.363 15.9019 206.606 22.3713 206.606 60.8286C206.606 99.2859 209.363 105.755 209.363 105.755H171.362C171.362 105.755 174 99.2859 174 60.8286C174 22.3713 171.362 15.9019 171.362 15.9019H209.363Z" fill="#2B2E3D"/>
<path d="M246.764 60.8291C246.764 67.6579 250.84 73.0492 270.86 73.0492C288.601 73.0492 298.911 67.8975 298.911 67.8975V103.12C298.911 103.12 284.645 107.074 266.304 107.074C232.499 107.074 212.959 90.1812 212.959 60.8291C212.959 31.4769 232.499 14.5845 266.304 14.5845C284.645 14.5845 298.911 18.538 298.911 18.538V53.7606C298.911 53.7606 288.601 48.609 270.86 48.609C250.84 48.609 246.764 54.0002 246.764 60.8291Z" fill="#2B2E3D"/>
<path d="M356.809 107.074C325.281 107.074 304.902 90.1812 304.902 60.8291C304.902 31.4769 325.281 14.5845 356.809 14.5845C388.337 14.5845 408.596 31.4769 408.596 60.8291C408.596 90.1812 388.337 107.074 356.809 107.074ZM374.911 60.8291C374.911 52.4427 369.036 48.609 356.809 48.609C344.582 48.609 338.708 52.4427 338.708 60.8291C338.708 69.2154 344.582 73.0492 356.809 73.0492C369.036 73.0492 374.911 69.2154 374.911 60.8291Z" fill="#2B2E3D"/>
<path d="M356.808 97.6804C328.781 97.6804 310.68 84.2143 310.68 60.8285C310.68 37.4426 328.781 23.9766 356.808 23.9766C384.835 23.9766 402.841 37.4426 402.841 60.8285C402.841 84.2143 384.835 97.6804 356.808 97.6804ZM372.896 60.8285C372.896 54.1434 367.669 51.1003 356.808 51.1003C345.947 51.1003 340.721 54.1434 340.721 60.8285C340.721 67.5135 345.947 70.5566 356.808 70.5566C367.669 70.5566 372.896 67.5135 372.896 60.8285Z" fill="#EDE7E5"/>
<path d="M356.811 95.1177C330.726 95.1177 313.871 82.5861 313.871 60.8296C313.871 39.0731 330.726 26.5415 356.811 26.5415C382.896 26.5415 399.631 39.0731 399.631 60.8296C399.631 82.5861 382.872 95.1177 356.811 95.1177ZM371.772 60.8296C371.772 54.6237 366.905 51.7724 356.811 51.7724C346.717 51.7724 341.85 54.6237 341.85 60.8296C341.85 67.0355 346.717 69.8868 356.811 69.8868C366.905 69.8868 371.772 67.0355 371.772 60.8296Z" fill="#2B2E3D"/>
<path d="M356.787 89.1749C335.233 89.1749 321.279 78.8238 321.279 60.8292C321.279 42.8345 335.209 32.4834 356.787 32.4834C378.364 32.4834 392.198 42.8345 392.198 60.8292C392.198 78.8238 378.34 89.1749 356.787 89.1749ZM369.158 60.8292C369.158 55.6776 365.13 53.3294 356.787 53.3294C348.443 53.3294 344.415 55.6776 344.415 60.8292C344.415 65.9808 348.443 68.3289 356.787 68.3289C365.13 68.3289 369.158 65.9808 369.158 60.8292Z" fill="#EDE7E5"/>
<path d="M356.785 86.8747C336.981 86.8747 324.179 77.3623 324.179 60.8292C324.179 44.2962 336.981 34.7837 356.785 34.7837C376.589 34.7837 389.32 44.2962 389.32 60.8292C389.32 77.3623 376.589 86.8747 356.785 86.8747ZM368.149 60.8292C368.149 56.1089 364.457 53.9524 356.785 53.9524C349.113 53.9524 345.421 56.1089 345.421 60.8292C345.421 65.5495 349.113 67.706 356.785 67.706C364.457 67.706 368.149 65.5495 368.149 60.8292Z" fill="#2B2E3D"/>
<path d="M356.786 82.0348C340.674 82.0348 330.245 74.2954 330.245 60.8533C330.245 47.4113 340.65 39.6719 356.786 39.6719C372.921 39.6719 383.255 47.4113 383.255 60.8533C383.255 74.2954 372.897 82.0348 356.786 82.0348ZM366.04 60.8533C366.04 57.0196 363.043 55.2465 356.786 55.2465C350.528 55.2465 347.531 56.9956 347.531 60.8533C347.531 64.7111 350.528 66.4602 356.786 66.4602C363.043 66.4602 366.04 64.7111 366.04 60.8533Z" fill="#EDE7E5"/>
<path d="M356.787 79.8301C342.354 79.8301 333.004 72.8815 333.004 60.8291C333.004 48.7768 342.33 41.8281 356.787 41.8281C371.244 41.8281 380.523 48.7768 380.523 60.8291C380.523 72.8815 371.244 79.8301 356.787 79.8301ZM365.083 60.8291C365.083 57.3788 362.397 55.8213 356.787 55.8213C351.177 55.8213 348.492 57.4027 348.492 60.8291C348.492 64.2556 351.177 65.837 356.787 65.837C362.397 65.837 365.083 64.2556 365.083 60.8291Z" fill="#2B2E3D"/>
<path d="M356.786 75.5887C345.566 75.5887 338.325 70.1975 338.325 60.8288C338.325 51.4601 345.566 46.0688 356.786 46.0688C368.007 46.0688 375.223 51.4601 375.223 60.8288C375.223 70.1975 368.007 75.5887 356.786 75.5887ZM363.236 60.8288C363.236 58.1452 361.15 56.9232 356.786 56.9232C352.423 56.9232 350.337 58.1452 350.337 60.8288C350.337 63.5124 352.423 64.7344 356.786 64.7344C361.15 64.7344 363.236 63.5124 363.236 60.8288Z" fill="#EDE7E5"/>
<path d="M356.765 73.312C347.271 73.312 341.133 68.7594 341.133 60.8284C341.133 52.8973 347.271 48.3447 356.765 48.3447C366.259 48.3447 372.349 52.8973 372.349 60.8284C372.349 68.7594 366.259 73.312 356.765 73.312ZM362.207 60.8284C362.207 58.576 360.433 57.5218 356.765 57.5218C353.097 57.5218 351.322 58.5521 351.322 60.8284C351.322 63.1047 353.097 64.135 356.765 64.135C360.433 64.135 362.207 63.1047 362.207 60.8284Z" fill="#2B2E3D"/>
<path d="M134.527 223.85H79.5994L87.5591 210.743C88.0146 208.731 89.6929 199.218 89.6929 169.339C89.6929 139.46 88.0146 129.923 87.5591 127.935L79 113.654L96.5258 114.828H143.877C174.062 114.828 192.068 128.318 192.068 150.889C192.068 157.383 190.581 163.205 187.776 168.189L192.236 165.889L192.068 181.655V222.676L183.7 223.754C178.881 224.377 174.398 224.665 170.01 224.665C161.427 224.665 154.786 223.299 149.631 221.071L151.957 224.976L134.527 223.802V223.85Z" fill="#EDE7E5"/>
<path d="M224.672 223.85H170.176L177.656 210.863C178.088 208.922 179.718 199.434 179.718 169.315C179.718 139.196 178.088 129.708 177.656 127.767L169.624 113.678L186.67 114.804H241.598L233.638 127.911C233.183 129.923 231.505 139.436 231.505 169.315C231.505 199.194 233.183 208.731 233.638 210.72L242.197 225L224.672 223.826V223.85Z" fill="#EDE7E5"/>
<path d="M222.875 223.849V180.312L246.107 163.851C239.705 164.306 236.828 164.834 235.869 165.049L221.771 173.076L222.899 156.04V114.827H320.598V158.412L296.91 174.849C303.648 174.37 306.62 173.843 307.603 173.627L321.701 165.6L320.574 182.637V223.849H222.875Z" fill="#EDE7E5"/>
<path d="M310.384 223.849V180.312L333.616 163.851C327.215 164.306 324.338 164.834 323.379 165.049L309.281 173.076L310.408 156.04V114.827H408.108V158.412L384.42 174.849C391.157 174.37 394.13 173.843 395.113 173.627L409.211 165.6L408.084 182.637V223.849H310.384Z" fill="#EDE7E5"/>
<path d="M146.513 178.204H144.715C152.747 180.72 159.34 184.074 169.889 184.074C177.801 184.074 182.476 181.678 182.476 181.678V214.265C177.801 214.864 173.725 215.104 170.009 215.104C130.21 215.104 146.993 183.236 131.888 178.803C132.248 208.874 134.525 214.265 134.525 214.265H96.5244C96.5244 214.265 99.2816 207.796 99.2816 169.338C99.2816 130.881 96.5244 124.412 96.5244 124.412H143.876C167.372 124.412 182.476 132.798 182.476 150.888C182.476 168.979 167.731 178.204 146.513 178.204ZM147.352 163.348C147.352 156.519 143.156 153.404 135.484 153.404H131.768V169.338C131.768 170.896 131.768 172.333 131.888 173.771H135.005C142.557 173.771 147.352 170.417 147.352 163.348Z" fill="#2B2E3D"/>
<path d="M224.674 124.412C224.674 124.412 221.917 130.881 221.917 169.338C221.917 207.796 224.674 214.265 224.674 214.265H186.673C186.673 214.265 189.31 207.796 189.31 169.338C189.31 130.881 186.673 124.412 186.673 124.412H224.674Z" fill="#2B2E3D"/>
<path d="M265.072 185.272H266.031C304.512 185.272 310.985 182.637 310.985 182.637V214.265H232.466V185.272L277.42 153.404C238.939 153.404 232.466 156.04 232.466 156.04V124.412H310.985V153.404L265.072 185.272Z" fill="#2B2E3D"/>
<path d="M352.577 185.272H353.536C392.017 185.272 398.49 182.637 398.49 182.637V214.265H319.971V185.272L364.924 153.404C326.444 153.404 319.971 156.04 319.971 156.04V124.412H398.49V153.404L352.577 185.272Z" fill="#2B2E3D"/>
</svg>
