<svg width="205" height="151" viewBox="0 0 205 151" fill="none" xmlns="http://www.w3.org/2000/svg">
<path d="M51.8287 61.6233C56.4757 62.8255 60.8277 62.1334 60.8277 62.1334L58.5034 71.1177C58.5034 71.1177 55.7805 71.9006 49.1585 70.1875C39.2062 67.6127 34.6991 62.3563 36.813 54.1853C38.9269 46.0143 45.4077 43.6419 55.36 46.2167C61.982 47.9298 63.9836 49.9351 63.9836 49.9351L61.6693 58.8805C61.6693 58.8805 58.1888 56.2035 53.5418 55.0013C49.5144 53.9593 47.741 54.9053 47.23 56.8803C46.7091 58.894 47.8013 60.5813 51.8287 61.6233ZM85.5078 79.1782L74.355 76.2928C74.355 76.2928 75.0888 75.5324 76.094 72.4458C74.7451 73.6669 71.3891 75.9387 66.1613 74.5862C62.0177 73.5142 59.904 70.9842 60.9259 67.0342C63.16 58.3986 77.1501 65.4886 78.0819 61.8871C78.2121 61.3837 77.9538 60.945 76.792 60.6445C72.7646 59.6025 65.7538 60.3504 65.7538 60.3504L68.2685 50.6304C68.2685 50.6304 73.7956 50.9861 78.52 52.2084C85.4131 53.9917 90.6342 56.1688 88.2598 65.3466L87.7288 67.399C85.4246 76.3058 85.5078 79.1782 85.5078 79.1782ZM76.4153 69.9259L77.8179 64.5044C76.5165 65.8617 72.3935 65.828 71.7623 68.2677C71.4217 69.5843 71.9284 70.5005 73.4774 70.9012C75.1426 71.332 76.1215 70.2631 76.4153 69.9259ZM112.774 86.2322L101.234 83.2467C101.234 83.2467 103.01 79.5746 105.836 68.6541C106.657 65.4787 106.161 64.5238 105.115 64.2533C103.876 63.9327 102.695 64.8253 101.882 65.7307L100.599 70.6875C98.2852 79.633 98.3684 82.5054 98.3684 82.5054L86.7896 79.5098C86.7896 79.5098 88.2554 77.0382 90.5697 68.0927C92.884 59.1472 92.7908 56.3135 92.7908 56.3135L103.595 59.1087C103.595 59.1087 103.132 59.9392 102.239 62.435C103.715 61.0403 106.367 59.4127 109.775 60.2943C114.732 61.5767 117.319 65.4689 115.757 71.51C112.931 82.4304 112.774 86.2322 112.774 86.2322ZM142.984 78.554C139.768 90.9848 140.002 93.2763 140.002 93.2763L128.462 90.2908C128.462 90.2908 128.854 89.7313 129.699 87.2642C127.952 88.5888 125.302 89.8866 122.243 89.0951C116.396 87.5823 115.499 80.9875 117.062 74.9464C118.624 68.9053 122.597 63.6115 128.444 65.1243C131.736 65.9759 133.431 68.6868 134.248 70.7988C136.137 62.8588 135.976 61.247 135.976 61.247L147.516 64.2325C147.516 64.2325 146.2 66.1233 142.984 78.554ZM130.845 83.6355C131.772 80.5288 132.622 77.4021 133.434 74.2653C133.14 73.4868 132.632 72.7356 131.663 72.4851C129.998 72.0544 128.175 73.1939 127.053 77.5311C125.921 81.9071 126.963 83.788 128.628 84.2188C129.518 84.4493 130.268 84.1061 130.845 83.6355ZM156.936 84.312C161.078 76.1285 161.56 74.1048 161.56 74.1048L173.1 77.0903C173.1 77.0903 170.867 79.6527 163.783 92.9832L162.639 95.1664C159.397 101.31 154.516 102.609 148.862 101.146C144.486 100.014 141.875 97.8101 141.875 97.8101L144.19 88.8646C144.19 88.8646 146.741 91.3012 150.342 92.2329C153.866 93.1446 155.433 92.5171 156.464 91.0897L146.744 88.575C147.013 73.4813 146.302 70.1575 146.302 70.1575L157.842 73.143C157.842 73.143 157.283 75.1467 156.936 84.312ZM20.916 94.9428C25.563 96.145 29.9151 95.453 29.9151 95.453L27.5908 104.437C27.5908 104.437 24.8679 105.22 18.2459 103.507C8.29355 100.932 3.78643 95.6758 5.90034 87.5048C8.01425 79.3339 14.495 76.9614 24.4474 79.5362C31.0693 81.2494 33.0709 83.2546 33.0709 83.2546L30.7566 92.2001C30.7566 92.2001 27.2762 89.523 22.6292 88.3208C18.6018 87.2789 16.8283 88.2248 16.3174 90.1998C15.7964 92.2135 16.8886 93.9009 20.916 94.9428ZM43.5113 94.1364C40.2954 106.567 40.5289 108.859 40.5289 108.859L28.9888 105.873C28.9888 105.873 30.3043 103.982 33.5203 91.5516C36.7362 79.1209 36.5027 76.8293 36.5027 76.8293L48.0428 79.8149C48.0428 79.8149 46.7273 81.7056 43.5113 94.1364ZM67.6043 115.863L56.4515 112.978C56.4515 112.978 57.1854 112.218 58.1905 109.131C56.8417 110.352 53.4857 112.624 48.2578 111.271C44.1142 110.199 42.0005 107.669 43.0224 103.719C45.2565 95.0837 59.2467 102.174 60.1784 98.5723C60.3086 98.0688 60.0503 97.6301 58.8885 97.3296C54.8611 96.2877 47.8504 97.0356 47.8504 97.0356L50.365 87.3156C50.365 87.3156 55.8921 87.6712 60.6165 88.8935C67.5096 90.6768 72.7307 92.8539 70.3563 102.032L69.8254 104.084C67.5211 112.991 67.6043 115.863 67.6043 115.863ZM58.5119 106.611L59.9145 101.19C58.613 102.547 54.49 102.513 53.8589 104.953C53.5183 106.269 54.0249 107.186 55.574 107.586C57.2391 108.017 58.218 106.948 58.5119 106.611ZM82.1486 104.876C81.6377 106.851 95.1629 107.912 93.1191 115.812C91.8768 120.614 85.5585 120.921 78.6654 119.138C73.9022 117.906 69.6319 115.727 69.6319 115.727L71.9562 106.743C73.8169 108.174 77.2307 109.512 80.0963 110.253C82.6135 110.905 83.9141 110.828 84.1045 110.092C84.6255 108.078 71.0114 107.201 73.0952 99.1457C74.3375 94.3438 80.6846 94.0853 87.5776 95.8686C92.3021 97.0909 96.5724 99.2699 96.5724 99.2699L94.2582 108.215C92.4262 106.832 89.0124 105.495 86.1467 104.753C83.6296 104.102 82.339 104.14 82.1486 104.876ZM106.049 111.059C105.538 113.034 119.064 114.096 117.02 121.996C115.777 126.797 109.459 127.105 102.566 125.321C97.8029 124.089 93.5325 121.91 93.5325 121.91L95.8568 112.926C97.7175 114.358 101.131 115.695 103.997 116.437C106.514 117.088 107.815 117.011 108.005 116.275C108.526 114.262 94.912 113.384 96.9958 105.329C98.2381 100.527 104.585 100.269 111.478 102.052C116.203 103.274 120.473 105.453 120.473 105.453L118.159 114.399C116.327 113.016 112.913 111.678 110.047 110.937C107.53 110.286 106.24 110.323 106.049 111.059ZM130.626 96.8004C134.421 97.7822 136.344 99.9324 135.683 102.488C135.012 105.083 132.287 106.031 128.492 105.049C124.659 104.057 122.736 101.907 123.407 99.3123C124.068 96.7565 126.793 95.8086 130.626 96.8004ZM130.245 119.674L130.235 119.713C127.931 128.62 128.014 131.492 128.014 131.492L116.474 128.506C116.474 128.506 117.94 126.035 120.244 117.128L120.254 117.089C122.568 108.144 122.475 105.31 122.475 105.31L134.015 108.296C134.015 108.296 132.56 110.729 130.245 119.674ZM147.113 127.591C151.76 128.793 156.112 128.101 156.112 128.101L153.788 137.085C153.788 137.085 151.065 137.868 144.443 136.155C134.49 133.581 129.983 128.324 132.097 120.153C134.211 111.982 140.692 109.61 150.644 112.184C157.266 113.898 159.268 115.903 159.268 115.903L156.953 124.848C156.953 124.848 153.473 122.171 148.826 120.969C144.799 119.927 143.025 120.873 142.514 122.848C141.993 124.862 143.085 126.549 147.113 127.591ZM168.637 127.251C168.126 129.226 181.651 130.288 179.608 138.188C178.365 142.989 172.047 143.297 165.154 141.513C160.391 140.281 156.12 138.102 156.12 138.102L158.445 129.118C160.305 130.55 163.719 131.887 166.585 132.629C169.102 133.28 170.403 133.203 170.593 132.467C171.114 130.454 157.5 129.576 159.584 121.521C160.826 116.719 167.173 116.461 174.066 118.244C178.791 119.466 183.061 121.645 183.061 121.645L180.747 130.591C178.915 129.208 175.501 127.87 172.635 127.129C170.118 126.478 168.827 126.516 168.637 127.251Z" fill="#212121"/>
<path d="M65.3694 37.0148C64.3311 37.0747 63.3561 36.9574 62.4442 36.6628C61.5324 36.3681 60.7323 35.9268 60.044 35.3388C59.3549 34.7375 58.799 34.015 58.3764 33.1713C57.967 32.3268 57.7324 31.3854 57.6725 30.3471C57.6126 29.3089 57.7374 28.3467 58.0469 27.4608C58.3697 26.574 58.8391 25.7991 59.4553 25.1358C60.0707 24.4592 60.8143 23.9222 61.6862 23.5246C62.558 23.1271 63.5131 22.8983 64.5514 22.8384C65.5764 22.7793 66.4415 22.8429 67.1467 23.0292C67.8645 23.2015 68.5125 23.4379 69.0908 23.7384L69.2532 26.5537C68.74 26.2228 68.1155 25.9316 67.3798 25.6802C66.6441 25.4288 65.8037 25.3304 64.8586 25.385C63.9667 25.4364 63.1855 25.6685 62.5148 26.0811C61.8574 26.493 61.3487 27.0499 60.9885 27.7518C60.6417 28.453 60.4947 29.2628 60.5477 30.1812C60.6 31.0864 60.8387 31.8673 61.2639 32.5239C61.7024 33.1797 62.2718 33.6744 62.9722 34.0079C63.6859 34.3407 64.4886 34.4814 65.3805 34.4299C66.3256 34.3754 67.1491 34.1809 67.851 33.8466C68.5529 33.5123 69.1401 33.1579 69.6127 32.7834L69.774 35.5787C69.2341 35.9438 68.6179 36.2598 67.9255 36.5268C67.2464 36.793 66.3943 36.9557 65.3694 37.0148ZM73.4629 22.7877L76.1779 22.9516L75.3487 36.6866L72.6336 36.5227L73.4629 22.7877ZM73.8676 25.3768L74.0219 22.8214L83.9039 23.418L83.7496 25.9734L73.8676 25.3768ZM73.1926 36.5564L73.3469 34.0011L83.2289 34.5977L83.0746 37.153L73.1926 36.5564ZM73.5337 30.9067L73.688 28.3513L82.5718 28.8877L82.4175 31.4431L73.5337 30.9067ZM88.1267 23.8606L90.8154 24.272L88.7346 37.8737L86.0459 37.4624L88.1267 23.8606ZM89.34 32.7261L89.6575 30.6502L93.1766 31.1886C93.9674 31.3096 94.61 31.2528 95.1045 31.0182C95.6011 30.7704 95.9007 30.3104 96.0036 29.6382C96.1064 28.9661 95.9569 28.4441 95.5552 28.0724C95.1555 27.6876 94.5602 27.4346 93.7694 27.3137L89.7758 26.7027L90.163 24.1722L94.2356 24.7952C95.3032 24.9585 96.2082 25.2588 96.9506 25.6961C97.693 26.1334 98.2313 26.7148 98.5654 27.4404C98.9015 28.1527 98.992 29.0163 98.8367 30.0312C98.7057 30.8879 98.3895 31.5881 97.8881 32.1319C97.402 32.6645 96.791 33.0432 96.0553 33.2678C95.3215 33.4793 94.5131 33.5175 93.6301 33.3824L89.34 32.7261ZM91.0325 32.9041L94.0573 33.3668L97.6508 39.2377L94.2702 38.7206L91.0325 32.9041ZM106.396 27.0092L109.049 27.6069L106.026 41.0306L103.372 40.433L106.396 27.0092ZM101.599 28.5531L102.162 26.0557L113.303 28.5649L112.74 31.0623L101.599 28.5531ZM116.278 29.3237L118.899 30.0511L115.219 43.3099L112.598 42.5825L116.278 29.3237ZM123.056 31.297L125.636 32.1556L121.293 45.2121L118.712 44.3535L123.056 31.297ZM122.779 33.9029L123.587 31.4738L132.829 34.5483L132.021 36.9774L122.779 33.9029ZM120.916 39.5013L121.725 37.0721L130.018 39.831L129.21 42.2601L120.916 39.5013ZM136.158 35.7575L138.689 36.7538L133.649 49.5575L131.118 48.5612L136.158 35.7575ZM142.86 38.5248L145.322 39.6822L139.467 52.1344L137.005 50.977L142.86 38.5248ZM142.278 41.0798L143.367 38.7631L152.326 42.9756L151.237 45.2923L142.278 41.0798ZM137.512 51.2153L138.602 48.8986L147.561 53.1111L146.471 55.4278L137.512 51.2153ZM139.921 46.0933L141.01 43.7766L149.064 47.5635L147.975 49.8802L139.921 46.0933ZM156.419 45.2033L158.722 46.6512L151.397 58.2998L149.095 56.8519L156.419 45.2033ZM152.201 55.7813L154.893 57.474C155.638 57.9424 156.385 58.2073 157.134 58.2687C157.901 58.3259 158.613 58.183 159.27 57.8399C159.945 57.4927 160.513 56.9522 160.975 56.2185C161.443 55.4735 161.688 54.7216 161.708 53.9627C161.74 53.2109 161.56 52.5073 161.169 51.8518C160.796 51.1922 160.237 50.6282 159.492 50.1598L156.8 48.467L158.163 46.2999L160.855 47.9926C162.04 48.7378 162.934 49.6462 163.536 50.7177C164.156 51.785 164.449 52.9222 164.415 54.1291C164.388 55.3247 164.008 56.5038 163.277 57.6664C162.738 58.5242 162.092 59.2129 161.34 59.7323C160.6 60.2589 159.795 60.6115 158.927 60.79C158.066 60.9573 157.174 60.9478 156.252 60.7616C155.329 60.5753 154.422 60.2019 153.531 59.6412L150.839 57.9484L152.201 55.7813Z" fill="#212121"/>
</svg>
