<svg width="147" height="122" viewBox="0 0 147 122" fill="none" xmlns="http://www.w3.org/2000/svg">
<path d="M53.9482 30.5319C53.1139 37.3266 49.5027 43.692 42.9258 42.8844C39.2235 42.4298 36.9968 39.6805 35.8001 37.544C34.9322 46.4126 35.3334 48.1862 35.3334 48.1862L22.3537 46.5925C22.3537 46.5925 23.5136 44.3474 25.2303 30.3659L25.2357 30.3224C26.9524 16.3409 26.3647 13.9255 26.3647 13.9255L39.3444 15.5192C39.3444 15.5192 39.0029 16.1404 38.4321 18.9884C40.143 17.2973 42.7953 15.5008 46.2362 15.9233C52.8131 16.7308 54.7825 23.7371 53.9482 30.5319ZM42.7107 29.1521C43.3097 24.2738 41.9067 22.3773 40.0338 22.1473C39.032 22.0243 38.2656 22.505 37.6681 23.0506C37.3082 25.2612 36.917 28.087 36.4678 31.7457C36.3876 32.3991 36.3074 33.0524 36.2325 33.6622C36.626 34.4179 37.3245 35.2111 38.4134 35.3448C40.2863 35.5747 42.1064 34.0739 42.7107 29.1521ZM67.9006 28.9291C66.1839 42.9105 66.7663 45.3695 66.7663 45.3695L53.7866 43.7758C53.7866 43.7758 54.9465 41.5308 56.6632 27.5493C58.3799 13.5678 57.7976 11.1088 57.7976 11.1088L70.7773 12.7025C70.7773 12.7025 69.6173 14.9476 67.9006 28.9291ZM97.2194 49.1087L84.6752 47.5685C84.6752 47.5685 85.3645 46.6362 86.0154 43.1349C84.7233 44.6563 81.3986 47.6083 75.5186 46.8863C70.8581 46.3141 68.1965 43.8651 68.742 39.4224C69.9346 29.7094 86.1673 35.4164 86.6647 31.3657C86.7342 30.7994 86.3904 30.3593 85.0837 30.1989C80.5539 29.6427 73.0355 31.4607 73.0355 31.4607L74.3779 20.5282C74.3779 20.5282 80.4405 20.123 85.7544 20.7755C93.5073 21.7274 99.4982 23.3473 98.2307 33.67L97.9473 35.9785C96.7173 45.9964 97.2194 49.1087 97.2194 49.1087ZM86.0039 40.3481L86.7526 34.2503C85.5316 35.9131 81.0423 36.4672 80.7054 39.2112C80.5235 40.6921 81.2059 41.6159 82.9482 41.8298C84.8211 42.0598 85.7327 40.7569 86.0039 40.3481ZM114.14 36.9057C117.473 27.4112 117.707 25.1409 117.707 25.1409L130.687 26.7346C130.687 26.7346 128.625 29.8416 122.83 45.3561L121.899 47.8946C119.253 55.0416 114.13 57.1538 107.771 56.373C102.849 55.7686 99.6931 53.7453 99.6931 53.7453L100.929 43.6839C100.929 43.6839 104.052 45.9686 108.103 46.4659C112.067 46.9526 113.681 46.0455 114.597 44.3453L103.665 43.0029C101.795 26.5473 100.546 23.0338 100.546 23.0338L113.526 24.6275C113.526 24.6275 113.204 26.8871 114.14 36.9057Z" fill="#212121"/>
<path d="M56.2527 58.9069L56.7929 54.5074L67.7084 55.8476L67.1682 60.2472C67.1682 60.2472 66.6115 59.9589 64.0407 59.5417C63.9463 60.173 63.8416 60.8875 63.7414 61.7041C63.0846 67.0535 63.3574 68.0005 63.3574 68.0005L58.0746 67.3518C58.0746 67.3518 58.5684 66.499 59.2252 61.1496C59.3255 60.333 59.3968 59.6144 59.4579 58.979C56.8625 58.7619 56.2527 58.9069 56.2527 58.9069ZM74.6648 56.7018L79.9476 57.3504C79.9476 57.3504 79.4704 58.2053 78.8136 63.5547C78.1568 68.9042 78.4129 69.8491 78.4129 69.8491L73.1301 69.2004C73.1301 69.2004 73.5804 68.4268 74.1907 63.7314L72.3409 63.5043C71.7972 68.2079 72.0469 69.0674 72.0469 69.0674L66.7642 68.4188C66.7642 68.4188 67.2413 67.5639 67.8981 62.2145C68.5549 56.865 68.2988 55.9201 68.2988 55.9201L73.5816 56.5688C73.5816 56.5688 73.1313 57.3424 72.521 62.0378L74.3708 62.2649C74.9145 57.5613 74.6648 56.7018 74.6648 56.7018ZM84.6585 65.0336C84.6097 65.5689 84.5483 66.0689 84.5118 66.5042C89.4654 67.0786 90.41 66.6871 90.41 66.6871L89.5327 71.2144L79.0838 69.9315C79.0838 69.9315 79.5776 69.0786 80.2344 63.7292C80.8912 58.3798 80.6185 57.4328 80.6185 57.4328L90.9007 58.6953L90.3605 63.0948C90.3605 63.0948 89.6015 62.6633 85.0228 62.0673L84.8427 63.5338L89.5089 64.1067L89.3247 65.6066L84.6585 65.0336Z" fill="#212121"/>
<path d="M27.9827 72.931C25.4349 67.7548 28.4134 63.3013 32.7255 63.8308C34.7726 64.0821 36.0151 64.7652 36.0151 64.7652L35.0204 72.8666C35.0204 72.8666 33.6839 71.5088 31.419 71.2307C28.9798 70.9312 28.4167 72.2769 29.8579 74.2223C32.9061 76.763 34.1059 80.3147 33.6192 84.2783C32.956 89.6792 29.5236 93.1485 24.1754 94.2161C27.9228 95.3836 31.9827 97.6064 31.5067 101.483C30.8543 106.797 23.9075 108.641 15.9368 107.662C8.05317 106.694 3.79075 103.96 3.79075 103.96L5.17588 92.6791C5.17588 92.6791 9.82496 95.5048 17.4473 96.4407C21.9771 96.9969 23.8484 96.5192 23.9126 95.9966C23.9821 95.4303 22.7565 94.9704 17.5733 94.3339C8.51365 93.2216 3.53288 88.0561 4.4367 80.6951C5.34586 73.2906 11.423 69.5271 20.4826 70.6395C23.4444 71.0032 25.9607 71.7542 27.9827 72.931ZM21.9026 82.8397C22.0845 81.3588 21.3853 80.2118 19.3381 79.9605C17.291 79.7091 16.3351 80.6528 16.1533 82.1338C15.9768 83.5711 16.6706 84.7616 18.7178 85.013C20.7649 85.2643 21.7262 84.277 21.9026 82.8397ZM61.5925 102.613L49.0484 101.072C49.0484 101.072 49.7376 100.14 50.3886 96.6389C49.0965 98.1603 45.7718 101.112 39.8917 100.39C35.2312 99.818 32.5697 97.369 33.1152 92.9263C34.3078 83.2133 50.5405 88.9203 51.0379 84.8696C51.1074 84.3034 50.7635 83.8632 49.4568 83.7028C44.927 83.1466 37.4087 84.9647 37.4087 84.9647L38.7511 74.0321C38.7511 74.0321 44.8137 73.627 50.1275 74.2794C57.8805 75.2314 63.8714 76.8512 62.6039 87.174L62.3205 89.4825C61.0904 99.5003 61.5925 102.613 61.5925 102.613ZM50.3771 93.8521L51.1258 87.7542C49.9048 89.417 45.4155 89.9711 45.0785 92.7151C44.8967 94.196 45.5791 95.1199 47.3213 95.3338C49.1942 95.5638 50.1058 94.2609 50.3771 93.8521ZM94.9131 89.8147L95.143 87.9418C95.2714 86.8964 95.0085 86.1567 94.0503 86.0391C93.1792 85.9321 92.4731 86.6413 91.936 87.4153L91.6525 89.7238C90.1444 102.007 90.5181 106.164 90.5181 106.164L77.5384 104.571C77.5384 104.571 78.9444 100.322 80.4525 88.0391L80.6825 86.1662C80.8108 85.1209 80.5044 84.3759 79.5897 84.2636C78.7186 84.1566 78.0232 84.7786 77.4914 85.5091L76.7908 91.215C75.5554 101.276 76.0575 104.389 76.0575 104.389L63.0343 102.79C63.0343 102.79 64.2744 99.8913 65.5098 89.8298C66.7452 79.7684 66.2378 76.6996 66.2378 76.6996L78.3899 78.1917C78.3899 78.1917 78.0055 79.1614 77.3966 81.9605C78.8026 80.232 81.3616 78.1145 85.1945 78.5851C88.679 79.013 90.7949 80.8644 91.537 84.1831C92.8177 82.3949 95.5173 79.8526 99.6551 80.3607C104.795 80.9917 106.947 84.7046 106.113 91.4993C104.605 103.782 104.979 107.94 104.979 107.94L91.999 106.346C91.999 106.346 93.4049 102.097 94.9131 89.8147ZM123.876 83.3346C132.892 84.4417 136.476 90.541 135.401 99.2957L119.721 97.3704C119.899 99.1608 121.503 100.507 125.423 100.988C130.649 101.63 134.413 100.147 134.413 100.147L133.172 110.252C133.172 110.252 129.582 111.403 123.745 110.686C112.595 109.317 106.896 104.24 108.025 95.05C109.153 85.8597 115.731 82.3346 123.876 83.3346ZM122.872 92.2308C121.392 92.0489 120.446 92.9055 119.929 95.3179L124.764 95.9116C124.872 93.2279 123.961 92.3645 122.872 92.2308Z" fill="#212121"/>
</svg>
