<svg width="192" height="33" viewBox="0 0 192 33" fill="none" xmlns="http://www.w3.org/2000/svg">
<path d="M131.302 23.7375C130.869 28.7232 126.904 30.5151 118.456 30.5151H103.245V2.26309H117.1C125.549 2.26309 130.941 4.05504 130.941 9.45978C130.941 13.3038 128.087 15.4426 124.179 16.3963C128.317 17.379 131.662 19.7635 131.316 23.7375H131.302ZM113.741 14.1853H116.206C119.508 14.1853 121.613 13.6651 121.613 11.3962C121.613 9.34417 119.782 8.86728 116.423 8.86728H113.741V14.1853ZM113.741 23.304H116.206C119.508 23.304 121.613 22.7838 121.613 20.5149C121.613 18.4629 119.782 17.986 116.423 17.986H113.741V23.304Z" fill="#212121"/>
<path d="M55.4936 26.7578C48.501 33.7667 40.2397 34.5326 33.7373 28.0151C27.235 21.4976 27.9991 13.2026 34.9917 6.20826C41.9842 -0.786105 50.2167 -1.53757 56.7191 4.97991C63.2215 11.4974 62.4861 19.7635 55.4936 26.7578ZM50.0437 11.6564C47.809 9.41642 45.2282 9.96557 41.9842 13.2171C38.7403 16.4686 38.1924 19.0698 40.4271 21.2953C42.6619 23.5208 45.2426 22.9861 48.4866 19.7346C51.7306 16.483 52.2784 13.8818 50.0437 11.6564Z" fill="#212121"/>
<path d="M137.328 26.7867C130.336 19.7779 129.572 11.4974 136.074 4.97991C142.576 -1.53757 150.852 -0.771653 157.83 6.23717C164.823 13.246 165.558 21.4976 159.056 28.0151C152.553 34.5326 144.306 33.7956 137.328 26.7867ZM152.395 21.3242C154.629 19.0843 154.082 16.4975 150.838 13.246C147.594 9.99447 144.998 9.44533 142.778 11.6853C140.558 13.9252 141.091 16.512 144.335 19.7635C147.579 23.015 150.174 23.5641 152.395 21.3242Z" fill="#212121"/>
<path d="M100.996 2.36425V30.6163H90.5717L92.0712 10.587L85.8572 30.6163H78.5186L72.2613 10.587L73.804 30.6163H63.3512V2.36425H78.7349L82.1807 15.6593L85.6697 2.36425H101.01H100.996Z" fill="#212121"/>
<path d="M191.986 2.36425V30.6163H181.648L174.454 16.7287L176.112 30.6163H165.688V2.36425H175.996L183.234 16.2518L181.576 2.36425H192H191.986Z" fill="#212121"/>
<path d="M28.0712 23.7375C27.6387 28.7232 23.6738 30.5151 15.2251 30.5151H0V2.26309H13.8554C22.3041 2.26309 27.6963 4.05504 27.6963 9.45978C27.6963 13.3038 24.8416 15.4426 20.9344 16.3963C25.0723 17.379 28.4172 19.7635 28.0712 23.7375ZM10.4961 14.1853H12.9615C16.2631 14.1853 18.3681 13.6651 18.3681 11.3962C18.3681 9.34417 16.5371 8.86728 13.1777 8.86728H10.4961V14.1853ZM10.4961 23.304H12.9615C16.2631 23.304 18.3681 22.7838 18.3681 20.5149C18.3681 18.4629 16.5371 17.986 13.1777 17.986H10.4961V23.304Z" fill="#212121"/>
</svg>
