<svg width="2203" height="1136" viewBox="0 0 2203 1136" fill="none" xmlns="http://www.w3.org/2000/svg">
<g clip-path="url(#clip0_684_43)">
<rect width="2203" height="1136" fill="#AF9CCC"/>
<g opacity="0.25">
<g opacity="0.8">
<path d="M1193.28 242.051C1193.28 292.944 1234.49 334.208 1285.34 334.208C1336.18 334.208 1377.4 292.944 1377.4 242.051C1377.4 191.158 1336.18 149.894 1285.34 149.894C1234.49 149.894 1193.28 108.63 1193.28 57.7373C1193.28 108.63 1152.05 149.894 1101.21 149.894C1152.05 149.894 1193.28 191.158 1193.28 242.051Z" fill="#CFC3E0"/>
<path d="M364.739 334.208C415.579 334.208 456.802 292.944 456.802 242.051C456.802 292.944 498.023 334.208 548.864 334.208C599.705 334.208 640.927 292.944 640.927 242.051C640.927 191.158 599.705 149.894 548.864 149.894C599.705 149.894 640.927 108.63 640.927 57.737C640.927 6.84423 599.705 -34.4199 548.864 -34.4199C498.023 -34.4199 456.802 6.84423 456.802 57.737C456.802 108.63 415.579 149.894 364.739 149.894C313.898 149.894 272.676 191.158 272.676 242.051C272.676 292.944 231.454 334.208 180.613 334.208C231.454 334.208 272.676 375.472 272.676 426.365C272.676 375.472 313.898 334.208 364.739 334.208Z" fill="#CFC3E0"/>
<path d="M732.977 334.208C682.137 334.208 640.914 375.472 640.914 426.365C640.914 477.258 682.137 518.521 732.977 518.521C783.818 518.521 825.04 477.258 825.04 426.365C825.04 477.258 866.262 518.521 917.103 518.521C967.944 518.521 1009.17 477.258 1009.17 426.365C1009.17 375.472 967.944 334.208 917.103 334.208C967.944 334.208 1009.17 292.944 1009.17 242.051C1009.17 191.158 967.944 149.894 917.103 149.894C866.262 149.894 825.04 191.158 825.04 242.051C825.04 292.944 783.818 334.208 732.977 334.208Z" fill="#CFC3E0"/>
<path d="M-3.50362 334.208C-54.3444 334.208 -95.5664 375.471 -95.5664 426.364C-95.5664 477.257 -54.3444 518.521 -3.50362 518.521C47.3372 518.521 88.5592 477.257 88.5592 426.364C88.5592 477.257 129.781 518.521 180.622 518.521C231.462 518.521 272.685 477.257 272.685 426.364C272.685 375.471 231.462 334.208 180.622 334.208C231.462 334.208 272.685 292.944 272.685 242.051C272.685 191.158 231.462 149.894 180.622 149.894C129.781 149.894 88.5592 191.158 88.5592 242.051C88.5592 292.944 47.3372 334.208 -3.50362 334.208Z" fill="#CFC3E0"/>
<path d="M2021.83 334.208C1970.99 334.208 1929.76 375.472 1929.76 426.365C1929.76 477.258 1970.99 518.521 2021.83 518.521C2072.67 518.521 2113.88 477.258 2113.88 426.365C2113.88 477.258 2155.11 518.521 2205.95 518.521C2256.79 518.521 2298.02 477.258 2298.02 426.365C2298.02 375.472 2256.79 334.208 2205.95 334.208C2256.79 334.208 2298.02 292.944 2298.02 242.051C2298.02 191.158 2256.79 149.894 2205.95 149.894C2155.11 149.894 2113.88 191.158 2113.88 242.051C2113.88 292.944 2072.67 334.208 2021.83 334.208Z" fill="#CFC3E0"/>
<path d="M2283.34 270.291C2232.5 270.291 2191.27 311.556 2191.27 362.448C2191.27 413.341 2232.5 454.606 2283.34 454.606C2334.18 454.606 2375.4 413.341 2375.4 362.448C2375.4 413.341 2416.62 454.606 2467.46 454.606C2518.3 454.606 2559.52 413.341 2559.52 362.448C2559.52 311.556 2518.3 270.291 2467.46 270.291C2518.3 270.291 2559.52 229.027 2559.52 178.134C2559.52 127.241 2518.3 85.9775 2467.46 85.9775C2416.62 85.9775 2375.4 127.241 2375.4 178.134C2375.4 229.027 2334.18 270.291 2283.34 270.291Z" fill="#CFC3E0"/>
<path d="M1561.53 426.364C1561.53 477.257 1602.74 518.521 1653.58 518.521C1704.42 518.521 1745.65 477.257 1745.65 426.364C1745.65 375.471 1786.87 334.208 1837.72 334.208C1786.87 334.208 1745.65 292.944 1745.65 242.051C1745.65 191.158 1704.42 149.894 1653.58 149.894C1602.74 149.894 1561.53 191.158 1561.53 242.051C1561.53 292.944 1520.3 334.208 1469.46 334.208C1520.3 334.208 1561.53 375.471 1561.53 426.364Z" fill="#CFC3E0"/>
<path d="M1101.22 518.509C1152.05 518.509 1193.28 477.245 1193.28 426.352C1193.28 477.245 1234.51 518.509 1285.35 518.509C1336.19 518.509 1377.4 477.245 1377.4 426.352C1377.4 375.459 1336.19 334.195 1285.35 334.195C1234.51 334.195 1193.28 292.932 1193.28 242.039C1193.28 292.932 1152.05 334.195 1101.22 334.195C1050.38 334.195 1009.15 375.459 1009.15 426.352C1009.15 477.245 967.933 518.509 917.092 518.509C967.933 518.509 1009.15 559.774 1009.15 610.666C1009.15 559.774 1050.38 518.509 1101.22 518.509Z" fill="#CFC3E0"/>
<path d="M1837.69 518.509C1786.86 518.509 1745.64 559.774 1745.64 610.667C1745.64 661.559 1786.86 702.824 1837.69 702.824C1888.53 702.824 1929.76 661.559 1929.76 610.667C1929.76 661.559 1970.99 702.824 2021.83 702.824C2072.67 702.824 2113.88 661.559 2113.88 610.667C2113.88 559.774 2072.67 518.509 2021.83 518.509C1970.99 518.509 1929.76 477.246 1929.76 426.354C1929.76 477.246 1888.53 518.509 1837.69 518.509Z" fill="#CFC3E0"/>
<path d="M640.917 610.667C640.917 559.774 682.138 518.509 732.979 518.509C682.138 518.509 640.917 477.246 640.917 426.354C640.917 477.246 599.695 518.509 548.855 518.509C498.013 518.509 456.791 477.246 456.791 426.354C456.791 477.246 415.57 518.509 364.729 518.509C415.57 518.509 456.791 559.774 456.791 610.667C456.791 661.559 498.013 702.824 548.855 702.824C599.695 702.824 640.917 744.088 640.917 794.981C640.917 744.088 682.138 702.824 732.979 702.824C682.138 702.824 640.917 661.559 640.917 610.667Z" fill="#CFC3E0"/>
<path d="M1745.65 610.668C1745.65 661.561 1704.42 702.824 1653.58 702.824C1602.74 702.824 1561.53 744.088 1561.53 794.981C1561.53 845.874 1520.3 887.138 1469.46 887.138C1520.3 887.138 1561.53 928.403 1561.53 979.295C1561.53 928.403 1602.74 887.138 1653.58 887.138C1704.42 887.138 1745.65 845.874 1745.65 794.981C1745.65 845.874 1786.87 887.138 1837.72 887.138C1888.56 887.138 1929.77 845.874 1929.77 794.981C1929.77 744.088 1888.56 702.824 1837.72 702.824C1786.87 702.824 1745.65 661.561 1745.65 610.668Z" fill="#CFC3E0"/>
<path d="M1469.46 887.138C1418.62 887.138 1377.39 845.874 1377.39 794.981C1377.39 744.088 1418.62 702.824 1469.46 702.824C1418.62 702.824 1377.39 661.561 1377.39 610.668C1377.39 661.561 1336.17 702.824 1285.33 702.824C1234.5 702.824 1193.27 744.088 1193.27 794.981C1193.27 845.874 1234.5 887.138 1285.33 887.138C1336.17 887.138 1377.39 928.403 1377.39 979.295C1377.39 928.403 1418.62 887.138 1469.46 887.138Z" fill="#CFC3E0"/>
<path d="M2113.88 794.98C2113.88 845.873 2072.67 887.136 2021.83 887.136C1970.98 887.136 1929.76 845.873 1929.76 794.98C1929.76 845.873 1888.53 887.136 1837.69 887.136C1888.53 887.136 1929.76 928.401 1929.76 979.294C1929.76 1030.19 1970.98 1071.45 2021.83 1071.45C2072.67 1071.45 2113.88 1112.72 2113.88 1163.61C2113.88 1112.72 2155.11 1071.45 2205.95 1071.45V887.136C2155.11 887.136 2113.88 845.873 2113.88 794.98Z" fill="#CFC3E0"/>
<path d="M1009.16 979.283C1009.16 928.39 967.935 887.126 917.094 887.126C866.253 887.126 825.031 928.39 825.031 979.283C825.031 1030.18 866.253 1071.44 917.094 1071.44C866.253 1071.44 825.031 1112.7 825.031 1163.6C825.031 1214.49 866.253 1255.75 917.094 1255.75C967.935 1255.75 1009.16 1214.49 1009.16 1163.6C1009.16 1112.7 1050.38 1071.44 1101.22 1071.44C1050.38 1071.44 1009.16 1030.18 1009.16 979.283Z" fill="#CFC3E0"/>
<path d="M2021.83 1255.75C2072.67 1255.75 2113.88 1214.49 2113.88 1163.6C2113.88 1112.7 2072.67 1071.44 2021.83 1071.44C1970.98 1071.44 1929.76 1030.18 1929.76 979.283C1929.76 1030.18 1888.53 1071.44 1837.69 1071.44C1888.53 1071.44 1929.76 1112.7 1929.76 1163.6C1929.76 1214.49 1888.53 1255.75 1837.69 1255.75C1888.53 1255.75 1929.76 1297.01 1929.76 1347.92C1929.76 1297.01 1970.98 1255.75 2021.83 1255.75Z" fill="#CFC3E0"/>
<path d="M364.737 -34.4089C415.577 -34.4089 456.8 6.85524 456.8 57.7481C456.8 6.85524 498.022 -34.4089 548.862 -34.4089C498.022 -34.4089 456.8 -75.673 456.8 -126.565H272.674C272.674 -75.673 313.896 -34.4089 364.737 -34.4089Z" fill="#CFC3E0"/>
<path d="M1469.46 -34.4089C1520.3 -34.4089 1561.52 6.85524 1561.52 57.7481C1561.52 108.641 1520.3 149.905 1469.46 149.905C1520.3 149.905 1561.52 191.169 1561.52 242.062C1561.52 191.169 1602.74 149.905 1653.58 149.905C1704.42 149.905 1745.65 108.641 1745.65 57.7481C1745.65 6.85524 1704.42 -34.4089 1653.58 -34.4089C1602.74 -34.4089 1561.52 -75.673 1561.52 -126.565H1377.39C1377.39 -75.673 1418.62 -34.4089 1469.46 -34.4089Z" fill="#CFC3E0"/>
<path d="M1653.58 -34.4089C1704.42 -34.4089 1745.65 6.85524 1745.65 57.7481C1745.65 6.85524 1786.87 -34.4089 1837.72 -34.4089C1888.56 -34.4089 1929.77 -75.673 1929.77 -126.565H1561.54C1561.54 -75.673 1602.75 -34.4089 1653.59 -34.4089H1653.58Z" fill="#CFC3E0"/>
<path d="M1745.65 426.364C1745.65 477.257 1704.42 518.521 1653.58 518.521C1704.42 518.521 1745.65 559.786 1745.65 610.678C1745.65 559.786 1786.86 518.521 1837.7 518.521C1888.55 518.521 1929.77 477.257 1929.77 426.364C1929.77 375.471 1888.55 334.207 1837.7 334.207C1786.86 334.207 1745.65 375.471 1745.65 426.364Z" fill="#CFC3E0"/>
<path d="M917.103 -29.9912C866.262 -29.9912 825.04 -71.2553 825.04 -122.148C825.04 -71.2553 783.818 -29.9912 732.977 -29.9912C682.137 -29.9912 640.914 11.2729 640.914 62.1657C640.914 113.059 682.137 154.323 732.977 154.323C783.818 154.323 825.04 113.059 825.04 62.1657C825.04 113.059 866.262 154.323 917.103 154.323C967.944 154.323 1009.17 113.059 1009.17 62.1657C1009.17 11.2729 967.944 -29.9912 917.103 -29.9912Z" fill="#CFC3E0"/>
<path d="M871.069 -98.3236C820.228 -98.3236 779.006 -139.588 779.006 -190.48C779.006 -139.588 737.784 -98.3236 686.943 -98.3236C636.103 -98.3236 594.881 -57.0595 594.881 -6.16665C594.881 44.7262 636.103 85.9903 686.943 85.9903C737.784 85.9903 779.006 44.7262 779.006 -6.16665C779.006 44.7262 820.228 85.9903 871.069 85.9903C921.909 85.9903 963.132 44.7262 963.132 -6.16665C963.132 -57.0595 921.909 -98.3236 871.069 -98.3236Z" fill="#CFC3E0"/>
<path d="M1037.09 -98.3236C986.248 -98.3236 945.026 -139.588 945.026 -190.48C945.026 -139.588 903.804 -98.3236 852.964 -98.3236C802.123 -98.3236 760.9 -57.0595 760.9 -6.16665C760.9 44.7262 802.123 85.9903 852.964 85.9903C903.804 85.9903 945.026 44.7262 945.026 -6.16665C945.026 44.7262 986.248 85.9903 1037.09 85.9903C1087.93 85.9903 1129.15 44.7262 1129.15 -6.16665C1129.15 -57.0595 1087.93 -98.3236 1037.09 -98.3236Z" fill="#CFC3E0"/>
<path d="M1285.35 -29.9912C1234.51 -29.9912 1193.28 -71.2553 1193.28 -122.148C1193.28 -71.2553 1152.07 -29.9912 1101.22 -29.9912C1050.38 -29.9912 1009.16 11.2729 1009.16 62.1657C1009.16 113.059 1050.38 154.323 1101.22 154.323C1152.07 154.323 1193.28 113.059 1193.28 62.1657C1193.28 113.059 1234.51 154.323 1285.35 154.323C1336.19 154.323 1377.4 113.059 1377.4 62.1657C1377.4 11.2729 1336.19 -29.9912 1285.35 -29.9912Z" fill="#CFC3E0"/>
<path d="M1193.28 610.667C1193.28 559.774 1234.51 518.509 1285.35 518.509C1234.51 518.509 1193.28 477.246 1193.28 426.354C1193.28 477.246 1152.07 518.509 1101.22 518.509C1050.38 518.509 1009.16 559.774 1009.16 610.667C1009.16 661.559 1050.38 702.824 1101.22 702.824C1152.07 702.824 1193.28 661.559 1193.28 610.667Z" fill="#CFC3E0"/>
<path d="M88.5628 794.98C88.5628 744.087 129.785 702.824 180.626 702.824C231.466 702.824 272.688 661.56 272.688 610.667C272.688 559.774 231.466 518.51 180.626 518.51C129.785 518.51 88.5628 559.774 88.5628 610.667C88.5628 661.56 47.3407 702.824 -3.5 702.824V887.137C47.3407 887.137 88.5628 845.873 88.5628 794.98Z" fill="#CFC3E0"/>
<path d="M378.977 702.824C429.821 702.824 471.039 661.563 471.039 610.667C471.039 559.77 429.821 518.51 378.977 518.51C328.132 518.51 286.914 559.77 286.914 610.667C286.914 661.563 328.132 702.824 378.977 702.824Z" fill="#CFC3E0"/>
<path d="M640.917 794.981C640.917 744.088 599.695 702.824 548.855 702.824C498.013 702.824 456.791 661.561 456.791 610.668C456.791 661.561 415.57 702.824 364.729 702.824C415.57 702.824 456.791 744.088 456.791 794.981C456.791 845.874 498.013 887.138 548.855 887.138C599.695 887.138 640.917 928.403 640.917 979.295C640.917 928.403 682.138 887.138 732.979 887.138C783.821 887.138 825.042 845.874 825.042 794.981C825.042 744.088 783.821 702.824 732.979 702.824C682.138 702.824 640.917 744.088 640.917 794.981Z" fill="#CFC3E0"/>
<path d="M1561.52 794.981C1561.52 744.088 1602.74 702.824 1653.58 702.824C1602.74 702.824 1561.52 661.56 1561.52 610.667C1561.52 559.774 1520.3 518.51 1469.46 518.51C1418.62 518.51 1377.39 559.774 1377.39 610.667C1377.39 661.56 1418.62 702.824 1469.46 702.824C1418.62 702.824 1377.39 744.088 1377.39 794.981C1377.39 845.874 1418.62 887.137 1469.46 887.137C1520.3 887.137 1561.52 845.874 1561.52 794.981Z" fill="#CFC3E0"/>
<path d="M2113.88 794.981C2113.88 845.874 2155.11 887.139 2205.95 887.139V702.824C2155.11 702.824 2113.88 744.089 2113.88 794.981Z" fill="#CFC3E0"/>
<path d="M88.5628 979.283C88.5628 1030.18 129.785 1071.44 180.626 1071.44C231.466 1071.44 272.688 1030.18 272.688 979.283C272.688 928.39 231.466 887.127 180.626 887.127C129.785 887.127 88.5628 845.863 88.5628 794.97C88.5628 845.863 47.3407 887.127 -3.5 887.127V1071.44C47.3407 1071.44 88.5628 1030.18 88.5628 979.283Z" fill="#CFC3E0"/>
<path d="M389.552 1255.75C338.711 1255.75 297.488 1214.49 297.488 1163.6C297.488 1112.7 256.267 1071.44 205.426 1071.44C154.585 1071.44 113.363 1112.7 113.363 1163.6C113.363 1214.49 154.585 1255.75 205.426 1255.75C256.267 1255.75 297.488 1297.01 297.488 1347.92H481.614C481.614 1297.01 440.392 1255.75 389.552 1255.75Z" fill="#CFC3E0"/>
<path d="M573.676 1255.75C624.517 1255.75 665.739 1214.49 665.739 1163.6C665.739 1112.7 624.517 1071.44 573.676 1071.44C522.836 1071.44 481.613 1112.7 481.613 1163.6C481.613 1214.49 440.392 1255.75 389.551 1255.75C440.392 1255.75 481.613 1297.01 481.613 1347.91H665.739C665.739 1297.01 624.517 1255.75 573.676 1255.75Z" fill="#CFC3E0"/>
<path d="M1285.35 887.139C1234.51 887.139 1193.28 928.403 1193.28 979.296C1193.28 928.403 1152.07 887.139 1101.22 887.139C1050.38 887.139 1009.16 928.403 1009.16 979.296C1009.16 1030.19 1050.38 1071.45 1101.22 1071.45C1152.07 1071.45 1193.28 1112.72 1193.28 1163.61C1193.28 1112.72 1234.51 1071.45 1285.35 1071.45C1336.19 1071.45 1377.4 1030.19 1377.4 979.296C1377.4 928.403 1336.19 887.139 1285.35 887.139Z" fill="#CFC3E0"/>
<path d="M917.103 1255.75C866.261 1255.75 825.039 1214.49 825.039 1163.6C825.039 1112.7 866.261 1071.44 917.103 1071.44C866.261 1071.44 825.039 1030.18 825.039 979.283C825.039 1030.18 783.818 1071.44 732.976 1071.44C682.136 1071.44 640.914 1112.7 640.914 1163.6C640.914 1214.49 599.692 1255.75 548.852 1255.75C599.692 1255.75 640.914 1297.01 640.914 1347.92C640.914 1297.01 682.136 1255.75 732.976 1255.75C783.818 1255.75 825.039 1297.01 825.039 1347.92H1009.16C1009.16 1297.01 967.942 1255.75 917.103 1255.75Z" fill="#CFC3E0"/>
<path d="M1469.46 1255.75C1520.3 1255.75 1561.51 1214.49 1561.51 1163.6C1561.51 1112.7 1520.3 1071.44 1469.46 1071.44C1418.62 1071.44 1377.39 1030.18 1377.39 979.283C1377.39 1030.18 1336.17 1071.44 1285.33 1071.44C1234.5 1071.44 1193.27 1112.7 1193.27 1163.6C1193.27 1214.49 1234.5 1255.75 1285.33 1255.75C1336.17 1255.75 1377.39 1297.01 1377.39 1347.92H1561.51C1561.51 1297.01 1520.3 1255.75 1469.46 1255.75Z" fill="#CFC3E0"/>
<path d="M2205.95 1163.6V1071.44C2155.11 1071.44 2113.88 1112.7 2113.88 1163.6C2113.88 1214.49 2072.66 1255.75 2021.81 1255.75C2072.66 1255.75 2113.88 1297.01 2113.88 1347.92H2205.95V1163.6Z" fill="#CFC3E0"/>
<path d="M2205.95 -34.4089C2155.11 -34.4089 2113.88 -75.673 2113.88 -126.565C2113.88 -75.673 2072.67 -34.4089 2021.83 -34.4089C1970.99 -34.4089 1929.76 6.85524 1929.76 57.7481C1929.76 108.641 1970.99 149.905 2021.83 149.905C2072.67 149.905 2113.88 108.641 2113.88 57.7481C2113.88 108.641 2155.11 149.905 2205.95 149.905C2256.79 149.905 2298.02 108.641 2298.02 57.7481C2298.02 6.85524 2256.79 -34.4089 2205.95 -34.4089Z" fill="#CFC3E0"/>
<path d="M-86.449 -80.4928C-86.449 -29.6 -127.671 11.6641 -178.512 11.6641C-127.671 11.6641 -86.449 52.9282 -86.449 103.821C-86.449 154.714 -45.2271 195.978 5.6137 195.978C56.4545 195.978 97.6765 154.714 97.6765 103.821C97.6765 52.9282 56.4545 11.6641 5.6137 11.6641C56.4545 11.6641 97.6765 -29.6 97.6765 -80.4928C97.6765 -131.386 56.4545 -172.639 5.6137 -172.639C-45.2271 -172.639 -86.449 -131.374 -86.449 -80.4813V-80.4928Z" fill="#CFC3E0"/>
</g>
</g>
</g>
<defs>
<clipPath id="clip0_684_43">
<rect width="2203" height="1136" fill="white"/>
</clipPath>
</defs>
</svg>
