<svg width="110" height="110" viewBox="0 0 110 110" fill="none" xmlns="http://www.w3.org/2000/svg">
<path d="M46.7303 7.63234C51.4009 3.32176 58.5991 3.32176 63.2697 7.63234C66.0654 10.2125 69.9052 11.34 73.652 10.6809C79.9116 9.57965 85.9672 13.4713 87.5658 19.6227C88.5227 23.3048 91.1434 26.3292 94.6518 27.8004C100.513 30.2582 103.503 36.806 101.522 42.8451C100.337 46.46 100.906 50.4212 103.062 53.5556C106.664 58.7921 105.64 65.9171 100.709 69.9266C97.7568 72.3267 96.0944 75.9669 96.2136 79.7694C96.4127 86.122 91.6989 91.5621 85.3826 92.269C81.6018 92.6922 78.2352 94.8558 76.2797 98.1191C73.0128 103.571 66.1061 105.599 60.4103 102.779C57.0009 101.091 52.9991 101.091 49.5897 102.779C43.8939 105.599 36.9872 103.571 33.7203 98.1191C31.7648 94.8558 28.3982 92.6922 24.6174 92.269C18.3011 91.5621 13.5873 86.122 13.7864 79.7694C13.9056 75.9669 12.2432 72.3267 9.29137 69.9266C4.35998 65.9171 3.33556 58.7921 6.93757 53.5556C9.09366 50.4212 9.66318 46.46 8.47751 42.8451C6.49668 36.806 9.48696 30.2582 15.3482 27.8004C18.8566 26.3292 21.4773 23.3048 22.4342 19.6227C24.0328 13.4713 30.0884 9.57965 36.348 10.6809C40.0949 11.34 43.9346 10.2125 46.7303 7.63234Z" fill="#212121"/>
<path d="M44.5373 35.4314V65.0145C43.133 63.7838 41.2077 63.0243 39.0836 63.0243C34.7852 63.0243 31.3008 66.1326 31.3008 69.9674C31.3008 73.8023 34.7852 76.9106 39.0836 76.9106C43.3821 76.9106 46.8665 73.8023 46.8665 69.9674V44.0777L71.8985 39.8415V59.9896C70.4941 58.7588 68.5689 57.9994 66.4448 57.9994C62.1463 57.9994 58.6619 61.1077 58.6619 64.9425C58.6619 68.7773 62.1463 71.8856 66.4448 71.8856C70.7432 71.8856 74.2276 68.7773 74.2276 64.9425V30.4065L44.5373 35.4314Z" fill="white"/>
</svg>
