<svg width="243" height="243" viewBox="0 0 243 243" fill="none" xmlns="http://www.w3.org/2000/svg">
<path d="M110.009 9.20077C125.277 -4.20624 148.819 -1.31566 160.391 15.3869L162.9 19.0081C168.809 27.5379 178.29 32.9021 188.645 33.5743L193.041 33.8597C213.318 35.1759 227.921 53.8665 224.292 73.8592L223.506 78.1938C221.653 88.4039 224.564 98.9011 231.411 106.699L234.318 110.009C247.725 125.277 244.834 148.819 228.131 160.391L224.51 162.899C215.98 168.809 210.616 178.29 209.944 188.645L209.659 193.041C208.342 213.318 189.652 227.92 169.659 224.292L165.324 223.506C155.114 221.653 144.617 224.564 136.82 231.411L133.509 234.317C118.241 247.725 94.6992 244.834 83.1276 228.131L80.6188 224.51C74.7094 215.98 65.2283 210.616 54.8732 209.944L50.4771 209.659C30.2004 208.342 15.5978 189.652 19.226 169.659L20.0127 165.324C21.8655 155.114 18.9544 144.617 12.1076 136.82L9.20084 133.509C-4.20617 118.241 -1.31559 94.6991 15.387 83.1276L19.0082 80.6188C27.538 74.7094 32.9022 65.2282 33.5744 54.8732L33.8597 50.477C35.176 30.2004 53.8665 15.5978 73.8593 19.226L78.1939 20.0126C88.404 21.8655 98.9012 18.9543 106.699 12.1075L110.009 9.20077Z" fill="#E9FF83"/>
</svg>
