<svg width="828" height="480" viewBox="0 0 828 480" fill="none" xmlns="http://www.w3.org/2000/svg">
<g opacity="0.5">
<mask id="mask0_2019_12714" style="mask-type:luminance" maskUnits="userSpaceOnUse" x="0" y="0" width="828" height="480">
<path d="M828 0H0V480H828V0Z" fill="white"/>
</mask>
<g mask="url(#mask0_2019_12714)">
<path d="M12.2427 725.559L115.143 451.403L12.2427 516.433L115.143 242.278L12.2427 307.308L115.143 33.1521L12.2427 98.182L115.143 -175.973L12.2427 -110.944L115.143 -385.099L12.2427 -320.062L96.1218 -543.531H34.9391L12.2427 -529.188L17.6287 -543.531H-32.0456L-106.012 -384.689L45.493 -500.918L-106.012 -175.564L45.493 -291.792L-106.012 33.5619L45.493 -82.6668L-106.012 242.688L45.493 126.459L-106.012 451.813L45.493 335.578L-106.012 660.939L45.493 544.703L-106.012 870.064L45.493 753.829L-32.0456 920.341H17.6287L115.143 660.529L12.2427 725.559Z" fill="#C1D860"/>
<path d="M194.9 725.559L297.801 451.403L194.9 516.433L297.801 242.278L194.9 307.308L297.801 33.1521L194.9 98.182L297.801 -175.973L194.9 -110.944L297.801 -385.099L194.9 -320.062L278.772 -543.531H217.589L194.9 -529.188L200.279 -543.531H150.612L76.6387 -384.689L228.15 -500.918L76.6387 -175.564L228.15 -291.792L76.6387 33.5619L228.15 -82.6668L76.6387 242.688L228.15 126.459L76.6387 451.813L228.15 335.578L76.6387 660.939L228.15 544.703L76.6387 870.064L228.15 753.829L150.612 920.341H200.279L297.801 660.529L194.9 725.559Z" fill="#C1D860"/>
<path d="M377.547 725.558L480.455 451.402L377.547 516.432L480.455 242.277L377.547 307.307L480.455 33.1511L377.547 98.181L480.455 -175.974L377.547 -110.945L480.455 -385.1L377.547 -320.063L461.426 -543.532H400.244L377.547 -529.189L382.933 -543.532H333.259L259.293 -384.69L410.804 -500.919L259.293 -175.565L410.804 -291.793L259.293 33.5609L410.804 -82.6678L259.293 242.687L410.804 126.458L259.293 451.812L410.804 335.577L259.293 660.938L410.804 544.702L259.293 870.063L410.804 753.828L333.259 920.34H382.933L480.455 660.528L377.547 725.558Z" fill="#C1D860"/>
<path d="M560.204 725.559L663.104 451.403L560.204 516.433L663.104 242.278L560.204 307.308L663.104 33.1521L560.204 98.182L663.104 -175.973L560.204 -110.944L663.104 -385.099L560.204 -320.062L644.083 -543.531H582.9L560.204 -529.188L565.59 -543.531H515.915L441.949 -384.689L593.454 -500.918L441.949 -175.564L593.454 -291.792L441.949 33.5619L593.454 -82.6668L441.949 242.688L593.454 126.459L441.949 451.813L593.454 335.578L441.949 660.939L593.454 544.703L441.949 870.064L593.454 753.829L515.915 920.341H565.59L663.104 660.529L560.204 725.559Z" fill="#C1D860"/>
<path d="M742.857 725.559L845.758 451.403L742.857 516.433L845.758 242.278L742.857 307.308L845.758 33.1521L742.857 98.182L845.758 -175.973L742.857 -110.944L845.758 -385.099L742.857 -320.062L826.729 -543.531H765.546L742.857 -529.188L748.236 -543.531H698.569L624.596 -384.689L776.107 -500.918L624.596 -175.564L776.107 -291.792L624.596 33.5619L776.107 -82.6668L624.596 242.688L776.107 126.459L624.596 451.813L776.107 335.578L624.596 660.939L776.107 544.703L624.596 870.064L776.107 753.829L698.569 920.341H748.236L845.758 660.529L742.857 725.559Z" fill="#C1D860"/>
<path d="M925.508 725.559L1028.42 451.403L925.508 516.433L1028.42 242.278L925.508 307.308L1028.42 33.1521L925.508 98.182L1028.42 -175.973L925.508 -110.944L1028.42 -385.099L925.508 -320.062L1009.39 -543.531H948.205L925.508 -529.188L930.894 -543.531H881.22L807.254 -384.689L958.765 -500.918L807.254 -175.564L958.765 -291.792L807.254 33.5619L958.765 -82.6668L807.254 242.688L958.765 126.459L807.254 451.813L958.765 335.578L807.254 660.939L958.765 544.703L807.254 870.064L958.765 753.829L881.22 920.341H930.894L1028.42 660.529L925.508 725.559Z" fill="#C1D860"/>
</g>
</g>
</svg>
