<svg width="813" height="480" viewBox="0 0 813 480" fill="none" xmlns="http://www.w3.org/2000/svg">
<g opacity="0.5">
<mask id="mask0_2019_12763" style="mask-type:luminance" maskUnits="userSpaceOnUse" x="0" y="0" width="813" height="480">
<path d="M783 0H30C13.4315 0 0 13.4315 0 30V450C0 466.569 13.4314 480 30 480H783C799.569 480 813 466.569 813 450V30C813 13.4315 799.569 0 783 0Z" fill="white"/>
</mask>
<g mask="url(#mask0_2019_12763)">
<path d="M859.639 -119.62C860.797 -112.162 861.864 -104.402 862.414 -96.8702C866.796 -36.6236 865.82 40.9862 844.801 98.0541C818.015 170.771 743.681 202.2 698.68 261.958C642.918 336.009 636.907 428.99 599.887 510.312C536.689 649.162 323.999 645.841 197.614 618.925C85.5327 595.057 25.6097 546.662 -19.5837 441.625C-37.0549 401.018 -45.6599 356.653 -47.3117 312.487C-49.3381 258.121 -38.0936 178.576 -63.8236 130.368C-65.2029 127.786 -67.0249 124.221 -69.5508 122.637V20.5351C-66.6787 21.1765 -64.3855 26.6312 -62.8927 29.1912C-43.8436 61.8176 -25.8105 100.41 -20.4862 138.082C-16.2462 168.058 -17.0408 198.726 -14.7761 228.9C-3.83814 374.641 45.8338 524.451 201.104 566.233C258.002 581.542 349.564 590.039 408.022 585.788C529.77 576.933 549.909 461.179 586.026 366.518C613.039 295.72 658.709 221.805 714.806 170.425C752.916 135.517 788.834 121.502 804.597 67.1475C818.015 20.8586 821.33 -39.2744 822.534 -87.5556C822.8 -98.2268 822.256 -108.955 822.494 -119.614H859.622L859.639 -119.62Z" fill="#E7A26B"/>
<path d="M946.898 -119.62L949.719 -80.2111L948.743 8.92134C946.188 35.3778 943.407 61.8854 936.42 87.5642C915.174 165.674 847.475 214.534 803.74 278.827C735.672 378.886 732.175 525.081 648.475 615.513C588.898 679.881 465.703 684.751 383.916 693.475C380.964 693.787 376.844 694.247 374.159 695.325H41.8436C30.0372 691.318 16.5451 688.985 6.56073 680.948C-17.5912 661.513 -42.9465 627.24 -63.0684 602.992C-64.7032 601.022 -67.0588 597.571 -69.5449 596.935V452.137C-67.405 451.876 -65.9803 455.843 -65.0892 457.427C-33.5014 513.587 18.123 595.499 79.0053 621.496C132.645 644.405 210.595 649.672 268.793 651.699C349.598 654.514 450.486 653.169 528.249 629.874C614.617 604.002 633.428 512.469 661.224 437.975C685.342 373.335 713.092 312.351 758.91 259.983C805.364 206.888 855.87 174.006 878.222 102.685C893.764 53.093 900.541 -2.45932 904.236 -54.1576L904.196 -119.632H946.898V-119.62Z" fill="#E7A26B"/>
<path d="M20.4953 -119.62C31.7851 -86.4147 43.1658 -51.2794 46.4806 -16.1214C47.298 -7.47668 47.0653 1.19646 47.4229 9.85257C51.1294 99.0304 42.7401 194.571 54.0299 282.631C70.1672 408.493 195.167 440.677 300.652 462.065C336.1 469.251 400.575 483.055 430.71 459.953C476.885 424.545 503.064 323.505 527.46 269.888C542.955 235.831 562.697 191.381 584.124 161.332C605.637 131.157 633.938 114.651 661.013 90.6297C706.15 50.5789 725.04 26.898 733.271 -34.8186C736.977 -62.5976 738.294 -91.7276 736.188 -119.614H772.391C771.999 -74.5573 774.02 -24.1759 759.171 18.923C743.368 64.7976 682.901 106.699 650.308 143.974C586.889 216.504 564.82 307.066 530.808 394.825C515.88 433.344 489.418 503.58 452.762 524.695C395.291 557.81 293.012 524.326 234.446 503.205C128.018 464.823 64.0256 436.715 31.9043 319.611C3.92664 217.599 5.6749 117.603 -4.56486 13.5818C-7.1475 -12.676 -10.5929 -49.3098 -20.5602 -73.4504C-27.5362 -90.3256 -43.7189 -104.385 -53.7656 -119.62H20.4953Z" fill="#E7A26B"/>
<path d="M1029.51 -119.62C1030.11 -106.434 1032.22 -93.3112 1033.21 -80.1653C1039.27 -0.324738 1044.77 126.843 1000.19 195.882C981.34 225.08 966.838 229.173 940.109 247.189C902.527 272.516 898.866 316.092 886.577 356.091C868.391 415.276 840.135 476.386 810.602 530.729C777.226 592.145 738.736 653.623 681.413 695.32H586.729C584.907 692.573 586.133 693.958 587.836 693.208C662.778 660.105 685.562 617.29 728.962 552.122C770.914 489.129 784.299 414.175 821.421 347.56C870.707 259.12 964.045 178.241 976.47 75.6333C982.441 26.285 982.004 -35.267 976.487 -84.6948C975.182 -96.365 973.467 -108.137 971.032 -119.614H1029.51L1029.51 -119.62Z" fill="#E7A26B"/>
<path d="M107.75 -119.621C117.956 -90.8603 126.884 -61.2819 130.823 -30.8465C137.169 18.1669 130.148 74.0996 128.212 124.067C126.356 171.911 120.493 257.564 140.995 300.555C168.161 357.532 253.899 380.549 311.659 387.939C388.196 397.73 404.527 345.862 437.823 291.638C483.828 216.724 534.085 143.638 592.753 78.0672C613.902 54.4261 636.982 33.6288 652.795 5.37862C674.268 -32.9694 674.563 -76.9821 680.484 -119.621H712.974C707.428 -79.8372 702.637 -37.2889 688.856 0.593628C677.895 30.7226 667.871 35.6778 646.58 56.7079C619.681 83.2722 590.608 111.477 569.265 142.758C550.659 170.032 538.535 203.499 523.164 233.105C494.272 288.754 457.775 352.69 418.677 401.511C388.622 439.047 373.898 448.276 323.574 443.775C261.074 438.184 166.174 403.86 134.184 346.339C90.886 268.479 102.573 118.249 103.146 29.383C103.305 4.84507 103.998 -19.5964 98.0096 -43.5213C91.272 -70.4489 74.7658 -94.2376 64.123 -119.627H107.75V-119.621Z" fill="#E7A26B"/>
<path d="M207.075 -119.621L195.013 18.2237C189.15 101.856 189.258 165.718 231.976 240.212C285.417 333.391 402.987 227.792 447.97 178.342C485.904 136.639 528.305 83.4312 559.642 36.6087C590.157 -8.97634 605.063 -68.1387 622.937 -119.621H656.353C647.276 -88.1868 636.548 -57.0305 624.56 -26.5724C611.625 6.29246 597.809 39.6057 575.57 67.3791C560.057 86.7517 540.389 102.265 524.564 121.263C512.343 135.93 502.325 153.009 490.956 168.409C464.681 203.981 437.186 238.855 408.487 272.509C386.129 298.727 339.369 357.526 304.773 361.863C259.959 367.482 226.13 340.316 205.991 303.319C163.624 225.488 155.422 92.7287 168.244 6.29813C174.46 -35.5974 187.481 -76.8913 187.583 -119.627H207.075V-119.621Z" fill="#E7A26B"/>
<path d="M276.694 -119.62C274.208 -81.7888 267.073 -44.3831 262.884 -6.73327C258.848 29.56 248.382 115.922 295.999 127.922C337.179 138.303 395.797 122.047 428.832 96.0786C462.417 69.6789 509.433 -5.75698 524.304 -46.0689C533.244 -70.3003 537.235 -96.2857 548.672 -119.626H599.729C575.293 -67.8937 556.244 -12.8351 522.516 33.8171C477.698 95.8118 410.725 175.545 331.634 190.092C307.686 194.497 273.646 195.417 253.57 179.631C206.043 142.288 228.294 34.5266 233.987 -18.0004C237.659 -51.8415 240.889 -85.7565 244.204 -119.626H276.694V-119.62Z" fill="#E7A26B"/>
<path d="M1082.42 281.354C1049.37 303.445 1005.75 315.717 980.859 348.264C948.777 390.2 947.364 464.148 938.254 515.427C927.322 576.956 906.944 637.583 883.78 695.32H789.096C787.643 693.595 789.022 693.209 789.993 692.068C808.327 670.521 827.149 659.027 841.561 633.15C880.976 562.391 898.334 458.518 923.445 379.954C934.292 346.022 947.086 298.785 983.549 285.043C1007.88 275.876 1030.12 274.134 1049.98 254.012C1068.38 235.366 1075.53 201.814 1082.43 177.396V281.354H1082.42Z" fill="#E7A26B"/>
<path d="M337.032 -119.62C330.737 -95.4057 320.912 -66.395 323.074 -41.1532C324.408 -25.5892 340.994 -8.98087 356.285 -6.60256C379.467 -2.99821 396.302 -18.0059 408.716 -35.4146C426.493 -60.3385 436.046 -90.5299 444.714 -119.62H494.84C484.719 -104.754 482.63 -86.5509 477.448 -69.7155C459.273 -10.6326 407.075 70.8086 334.262 43.2623C293.144 27.704 285.305 4.88026 288.773 -37.4637C291.044 -65.1973 298.962 -92.1192 302.686 -119.614H337.032V-119.62Z" fill="#E7A26B"/>
</g>
</g>
</svg>
