<svg width="828" height="480" viewBox="0 0 828 480" fill="none" xmlns="http://www.w3.org/2000/svg">
<g style="mix-blend-mode:multiply" opacity="0.5">
<mask id="mask0_2019_12798" style="mask-type:luminance" maskUnits="userSpaceOnUse" x="0" y="-4" width="828" height="484">
<path d="M798 -3.62793H30C13.4315 -3.62793 0 9.80352 0 26.3721V450C0 466.569 13.4315 480 30 480H798C814.569 480 828 466.569 828 450V26.3721C828 9.80353 814.569 -3.62793 798 -3.62793Z" fill="white"/>
</mask>
<g mask="url(#mask0_2019_12798)">
<path d="M402.72 442.54C407.914 443.679 417.292 445.735 420.195 447.836C419.674 451.054 414.481 467.241 363.9 505.254L354.172 512.566L373.954 538.887L383.682 531.575C404.719 515.766 421.031 501.503 432.168 489.187C438.999 481.629 459.794 458.629 451.143 435.944C444.272 417.942 425.148 413.745 409.78 410.373C405.371 409.405 398.512 407.899 395.065 406.37C396.021 404.04 398.667 399.259 405.961 391.386C421.518 374.593 450.175 352.325 491.137 325.202L501.283 318.48L483.104 291.025L472.958 297.747C429.809 326.319 399.142 350.298 381.81 369.01C375.26 376.081 355.328 397.598 363.591 418.767C370.078 435.377 388.183 439.351 402.732 442.54H402.72Z" fill="#EBE2E4"/>
<path d="M-235.092 573.602C-241.47 497.719 -241.465 440.404 -235.081 403.256C-229.04 368.111 -219.318 361.223 -215.418 359.895C-210.477 358.211 -203.268 361.263 -194.915 364.796C-181.585 370.436 -164.992 377.461 -146.876 368.18C-134.256 361.715 -126.641 350.321 -123.595 333.362C-121.247 320.278 -121.785 305.162 -122.358 289.159C-123.394 260.129 -124.574 227.218 -107.551 205.122C-96.9128 191.312 -79.7356 182.134 -55.0405 177.066C-31.8398 172.308 -6.21143 171.988 16.4052 171.707C34.0348 171.489 49.2538 171.3 61.1919 169.085C77.8366 165.998 87.7536 158.418 90.668 146.554C91.9048 141.527 91.6529 136.494 89.9294 131.604C84.7935 117.009 68.1601 107.166 45.1312 93.5335C17.4072 77.1235 -20.5602 54.65 -31.9372 22.3283C-32.5212 20.6735 -33.0365 18.9787 -33.4716 17.3011C-37.8118 0.547592 -35.1035 -18.7481 -25.4328 -40.0536C-15.1436 -62.7103 3.05286 -87.812 28.6641 -114.666L37.0637 -123.472L13.2389 -146.197L4.8392 -137.391C-20.0391 -111.305 -38.7851 -86.2947 -50.8779 -63.0539C-67.4539 -31.1902 -72.3208 -1.37628 -65.3526 25.5518C-64.6769 28.1571 -63.8811 30.7737 -62.9821 33.3274C-47.6486 76.8831 -3.72073 102.884 28.3491 121.87C35.4719 126.09 45.8584 132.239 52.5976 137.141C50.7997 137.387 48.6354 137.627 46.0359 137.833C37.413 138.515 27.0036 138.647 15.9815 138.784C-32.5956 139.391 -99.1287 140.221 -133.649 185.031C-157.915 216.534 -156.455 257.456 -155.281 290.339C-154.537 311.117 -153.695 334.673 -161.911 338.881C-166.04 340.994 -172.292 338.629 -182.1 334.478C-194.187 329.365 -209.229 322.998 -226.063 328.73C-247.248 335.95 -260.818 358.503 -267.551 397.679C-274.411 437.576 -274.531 497.69 -267.923 576.356L-266.904 588.483L-234.09 585.723L-235.109 573.596L-235.092 573.602Z" fill="#EBE2E4"/>
<path d="M805.873 458.979C791.753 467.207 777.748 479.322 762.913 492.148C737.296 514.301 708.26 539.408 688.043 532.887C670.476 527.218 661.934 497.965 653.671 469.674C643.525 434.931 632.028 395.549 597.8 385.414C581.63 380.628 563.611 383.485 544.241 393.911C526.6 403.41 507.247 419.574 486.726 441.956L478.504 450.928L502.775 473.179L510.997 464.206C525.856 447.997 539.661 435.664 552.022 427.539C562.237 420.828 576.843 413.551 588.444 416.986C605.449 422.025 613.517 449.652 622.06 478.904C632.228 513.728 643.754 553.196 677.926 564.223C695.63 569.932 714.719 566.588 736.299 554.003C752.927 544.304 768.948 530.453 784.441 517.055C797.404 505.844 809.652 495.251 820.605 488.495C827.075 484.504 835.904 480.204 841.218 482.414C845.787 484.315 850.121 491.718 853.104 502.723C858.321 521.968 859.746 551.535 857.336 590.608L856.586 602.758L889.451 604.785L890.201 592.635C892.652 552.852 891.381 522.54 886.319 499.964C880.657 474.742 869.738 458.607 853.854 452.005C839.695 446.124 823.995 448.403 805.861 458.973L805.873 458.979Z" fill="#EBE2E4"/>
<path d="M-193.686 592.072C-177.488 594.208 -158.993 593.211 -139.411 592.152C-105.595 590.326 -67.2672 588.253 -55.2775 605.791C-44.8624 621.027 -56.0161 649.387 -66.8091 676.813C-80.0642 710.492 -95.0828 748.671 -74.2296 777.643C-64.3814 791.328 -48.3836 800.105 -26.6831 803.724C-6.91786 807.022 18.2753 806.089 48.2037 800.958L60.1992 798.903L54.6338 766.449L42.6383 768.505C20.9664 772.221 2.50095 773.521 -12.2486 772.375C-24.4329 771.425 -40.4363 768.236 -47.5019 758.416C-57.8654 744.022 -47.3244 717.237 -36.1649 688.877C-22.8812 655.118 -7.82257 616.853 -28.0917 587.217C-38.5927 571.866 -55.7298 562.814 -80.4993 559.55C-99.5832 557.036 -120.728 558.176 -141.186 559.281C-158.301 560.203 -174.47 561.079 -187.267 559.716C-194.825 558.909 -204.439 556.899 -207.29 551.9C-209.741 547.6 -208.636 539.092 -204.255 528.568C-196.594 510.16 -179.612 485.911 -153.783 456.492L-145.75 447.348L-170.491 425.619L-178.518 434.763C-204.816 464.715 -222.377 489.455 -232.191 510.406C-243.162 533.813 -244.404 553.257 -235.89 568.201C-228.298 581.519 -214.493 589.329 -193.68 592.078L-193.686 592.072Z" fill="#EBE2E4"/>
<path d="M170.717 534.799C186.915 536.934 205.409 535.938 224.991 534.879C258.807 533.052 297.135 530.979 309.125 548.517C319.54 563.754 308.386 592.113 297.593 619.539C284.338 653.218 269.32 691.397 290.173 720.37C300.021 734.054 316.019 742.832 337.719 746.45C357.484 749.748 382.678 748.815 412.606 743.685L424.602 741.629L419.036 709.176L407.041 711.231C385.369 714.947 366.903 716.247 352.154 715.102C339.969 714.151 323.966 710.962 316.9 701.143C306.537 686.748 317.078 659.963 328.237 631.603C341.521 597.845 356.58 559.58 336.311 529.943C325.81 514.592 308.673 505.54 283.903 502.276C264.819 499.763 243.674 500.902 223.216 502.007C206.102 502.929 189.932 503.805 177.135 502.442C169.577 501.635 159.964 499.625 157.112 494.627C154.662 490.327 155.767 481.818 160.147 471.294C167.808 452.886 184.791 428.638 210.619 399.219L218.653 390.075L193.912 368.346L185.884 377.49C159.586 407.441 142.025 432.182 132.211 453.132C121.241 476.539 119.998 495.984 128.512 510.928C136.105 524.246 149.909 532.056 170.722 534.804L170.717 534.799Z" fill="#EBE2E4"/>
<path d="M486.636 -137.626C472.997 -146.627 455.923 -153.801 437.847 -161.399C406.63 -174.523 371.246 -189.398 368.114 -210.411C365.394 -228.665 387.816 -249.306 409.505 -269.266C436.135 -293.778 466.321 -321.559 460.218 -356.733C457.332 -373.349 446.774 -388.224 428.835 -400.958C412.494 -412.553 389.425 -422.722 360.258 -431.173L348.572 -434.562L339.405 -402.939L351.097 -399.55C372.213 -393.429 389.396 -386.535 402.164 -379.057C412.711 -372.885 425.714 -363.025 427.781 -351.104C430.816 -333.629 409.637 -314.139 387.215 -293.498C360.521 -268.928 330.266 -241.084 335.557 -205.567C338.294 -187.171 349.768 -171.545 370.621 -157.792C386.688 -147.199 406.213 -138.989 425.102 -131.047C440.905 -124.405 455.826 -118.13 466.745 -111.316C473.192 -107.291 480.962 -101.285 481.34 -95.5417C481.666 -90.6004 476.954 -83.4318 468.417 -75.8738C453.484 -62.6588 427.621 -48.2586 391.538 -33.0797L380.321 -28.3617L393.089 1.99048L404.306 -2.72757C441.048 -18.187 467.644 -32.7762 485.628 -47.3368C505.72 -63.6036 515.334 -80.5517 514.194 -97.7118C513.181 -113.011 504.174 -126.066 486.648 -137.626H486.636Z" fill="#EBE2E4"/>
<path d="M948.105 434.014L941.423 423.84C934.368 413.098 928.849 401.887 924.938 390.373C929.198 392.463 933.441 394.381 937.666 396.11C984.033 415.102 1011.34 405.489 1026.08 394.083C1036.81 385.781 1045.28 373.069 1050.57 357.318C1055.21 343.53 1057.27 327.51 1056.38 312.222C1055.99 305.7 1055.12 299.374 1053.77 293.407C1048.91 272.005 1037.84 255.159 1022.61 245.987C1015.01 241.412 1006.31 238.681 996.762 237.868C982.178 236.625 966.066 239.889 950.166 247.315C935.388 254.215 921.64 264.447 911.454 276.127C899.808 289.485 891.729 306.365 887.841 325.065C886.032 323.37 884.291 321.664 882.614 319.958C860.924 297.816 846.095 269.674 838.525 236.31C833.538 214.312 832.88 195.125 833.206 182.906L833.533 170.739L800.615 169.857L800.289 182.025C799.739 202.477 801.841 223.817 806.352 243.731C806.644 245.013 806.942 246.29 807.257 247.561C816.453 285.168 833.893 317.278 859.086 342.998C867.085 351.169 876.12 359.024 885.997 366.399C886.627 372.365 887.624 378.371 888.975 384.326C893.492 404.24 901.875 423.616 913.893 441.916L920.575 452.09L948.099 434.014H948.105ZM918.17 348.632C918.651 328.598 924.984 310.716 936.275 297.77C953.55 277.965 987.606 263.353 1005.63 274.197C1012.98 278.623 1018.83 288.386 1021.69 300.982C1022.63 305.134 1023.25 309.56 1023.51 314.134C1024.84 336.831 1017.61 358.996 1005.93 368.031C999.882 372.709 991.368 374.615 980.621 373.699C963.026 372.199 940.529 363.13 918.176 348.621L918.17 348.632Z" fill="#EBE2E4"/>
<path d="M590.896 109.479C600.607 109.943 609.849 109.525 618.443 108.236C643.882 126.416 673.164 137.678 701.455 140.077C718.775 141.549 737.424 139.917 755.7 135.353C761.758 138.405 767.907 140.821 774.045 142.556C801.81 150.412 832.528 145.82 860.55 129.633C873.066 122.402 884.506 113.109 894.549 102.024C907.054 88.2135 916.948 72.1871 923.951 54.3858L928.405 43.0603L897.761 31.0019L893.307 42.3274C887.753 56.4413 879.908 69.1467 869.997 80.0943C851.652 100.346 828.486 112.061 805.869 113.332C812.872 108.465 819.067 103.06 824.409 97.1628C834.446 86.0835 841.088 73.6758 844.157 60.289C848.188 42.7053 846.321 21.5086 839.158 3.58133C830.644 -17.7241 815.637 -33.0347 796.891 -39.5277C779.725 -45.4767 760.126 -43.6789 741.718 -34.4662C731.223 -29.2157 721.414 -21.7264 713.341 -12.8114C704.695 -3.26092 698.242 7.67525 694.681 18.8118C694.286 20.0428 693.931 21.2796 693.599 22.5221C694.355 6.15219 691.795 -9.67945 687.753 -22.236C679.502 -47.8873 664.512 -65.597 646.636 -70.8246C633.152 -74.7639 617.143 -71.7922 601.552 -62.4536C593.553 -57.6611 586.207 -51.5976 579.714 -44.4289C569.001 -32.5996 561.529 -18.5944 558.672 -4.99007C553.69 18.7145 561.323 45.717 580.155 71.0362C581.38 72.6852 582.651 74.3228 583.951 75.9375C565.136 73.9105 549.694 68.7574 547.312 67.9329C507.999 54.3572 485.846 23.9821 476.141 7.08548L470.078 -3.46704L441.523 12.9372L447.587 23.4897C459.588 44.3829 487.106 81.9781 536.559 99.058C540.957 100.575 564.249 108.219 590.885 109.485L590.896 109.479ZM726.052 28.8261C728.165 22.2129 732.225 15.468 737.796 9.31853C743.212 3.33514 749.665 -1.62337 756.456 -5.01873C766.865 -10.2291 777.395 -11.4315 786.109 -8.41409C795.689 -5.09316 803.67 3.50691 808.583 15.8001C813.284 27.5664 814.618 41.7949 812.064 52.9372C810.272 60.7643 806.213 68.2077 800 75.0672C793.124 82.6595 783.917 89.2326 772.625 94.6091C768.646 96.5043 764.438 98.2277 760.057 99.7565C748.251 91.5801 738.065 80.3978 731.646 68.4539L731.583 68.3394L731.595 68.3566C726.402 58.6629 721.231 43.9306 726.052 28.8318V28.8261ZM702.56 83.879L702.64 84.0279C707.071 92.2787 712.774 100.249 719.41 107.555C714.217 107.778 709.127 107.681 704.237 107.269C688.864 105.963 672.797 101.194 657.55 93.5383C662.537 90.1144 667.072 86.1636 671.114 81.6975C672.362 80.3234 673.576 78.8805 674.721 77.409C683.201 66.5644 688.4 54.1396 691.171 41.4113C691.171 55.3706 694.99 69.7479 702.554 83.8848L702.56 83.879ZM656.41 -12.1587C663.167 8.83184 663.43 38.3938 648.784 57.1169C648.119 57.9644 647.421 58.7946 646.705 59.5847C641.46 65.3735 634.635 69.7365 626.356 72.6108C618.861 66.0835 612.225 58.9607 606.585 51.3741C593.461 33.7331 587.89 16.115 590.902 1.76628C592.585 -6.24975 597.252 -14.7925 604.031 -22.2818C608.285 -26.9769 613.278 -31.1052 618.471 -34.22C625.881 -38.6574 632.952 -40.5297 637.395 -39.23C643.052 -37.5753 651.125 -28.5687 656.399 -12.1644L656.41 -12.1587Z" fill="#EBE2E4"/>
<path d="M306.052 527.784C274.904 510.418 271.634 498.96 271.68 494.843C271.732 489.622 277.005 483.833 283.115 477.128C292.865 466.427 304.993 453.103 302.256 432.937C300.343 418.886 292.133 407.921 277.143 399.418C265.582 392.857 251.142 388.351 235.854 383.575C208.125 374.918 176.696 365.098 161.5 341.703C152.007 327.079 149.052 307.835 152.47 282.854C155.683 259.39 163.893 235.107 171.136 213.681C176.782 196.979 181.655 182.556 183.533 170.561C186.143 153.836 182.29 141.961 172.064 135.279C167.73 132.445 162.903 131.007 157.715 131.007C142.244 131.007 127.432 143.432 106.934 160.621C82.25 181.325 48.4453 209.673 14.1825 209.673C12.4247 209.673 10.6554 209.599 8.92621 209.45C-8.31971 207.978 -25.6229 199.023 -42.5081 182.825C-60.464 165.602 -78.0993 140.1 -94.9272 107.022L-100.447 96.1777L-129.797 111.11L-124.277 121.961C-107.93 154.088 -90.5642 180.071 -72.6541 199.195C-48.1021 225.408 -21.5977 239.899 6.12057 242.264C8.80595 242.493 11.5372 242.608 14.2397 242.608C60.412 242.608 99.5245 209.805 128.085 185.854C134.429 180.535 143.676 172.777 150.541 168.053C150.18 169.834 149.688 171.952 149.018 174.477C146.796 182.837 143.464 192.702 139.937 203.14C124.38 249.164 103.074 312.198 133.879 359.642C155.539 392.994 194.623 405.201 226.035 415.01C245.88 421.211 268.376 428.236 269.619 437.374C270.243 441.972 265.937 447.085 258.763 454.958C249.922 464.663 238.923 476.739 238.746 494.517C238.522 516.899 255.293 537.191 290.014 556.544C325.37 576.258 382.038 596.338 458.437 616.218L470.214 619.281L478.505 587.411L466.727 584.348C393.031 565.167 338.969 546.135 306.046 527.784H306.052Z" fill="#EBE2E4"/>
<path d="M220.981 309.038C249.701 324.303 278.931 332.039 307.846 332.039C320.196 332.039 332.541 330.584 344.548 327.721C370.462 321.543 397.602 308.718 417.849 293.167C436.366 290.121 452.982 283.656 466.071 274.381C492.392 255.738 499.366 229.955 504.977 209.239C510.336 189.428 513.989 177.891 526.62 171.1C533.417 167.447 541.839 165.592 551.648 165.592C562.927 165.592 575.656 168.157 588.453 173.018C594.917 175.474 601.244 178.44 607.296 181.853C591.934 187.722 578.839 197.135 569.122 209.531C556.909 225.116 548.997 246.805 547.96 267.544C546.695 292.932 555.501 314.581 572.753 328.5C585.24 338.577 601.055 343.902 618.473 343.902C621.753 343.902 625.097 343.708 628.43 343.324C650.497 340.77 671.086 329.708 683.517 313.739C700.374 292.079 702.755 261.36 690.228 227.246C689.008 223.925 687.617 220.633 686.059 217.381C689.042 218.933 691.854 220.662 694.465 222.54C730.972 248.855 731.997 303.925 710.044 338.852C690.502 369.949 655.175 378.371 644.811 380.209L632.827 382.339L638.587 414.758L650.571 412.628C659.154 411.105 672.461 407.813 687.101 400.788C708.865 390.344 725.962 375.4 737.923 356.373C752.964 332.445 759.715 301.916 756.451 272.623C752.856 240.37 737.677 213.092 713.72 195.823C696.927 183.719 675.85 176.442 653.909 175.102C638.507 161.091 620.007 149.777 600.139 142.231C583.454 135.898 567.147 132.686 551.665 132.686C536.182 132.686 522.635 135.852 511.029 142.093C485.292 155.927 478.581 180.713 473.193 200.633C469.5 214.283 466.174 226.582 458.267 236.808C459.99 229.972 460.786 222.969 460.643 215.812C460.133 190.058 447.067 162.082 426.54 142.803C409.689 126.977 388.985 118.263 368.241 118.263C367.176 118.263 366.099 118.286 365.04 118.331C338.914 119.454 313.944 134.306 296.526 159.081C279.091 183.885 272.61 213.235 279.606 235.669C286.472 257.673 307.972 276.23 338.599 286.582C343.374 288.197 348.298 289.594 353.325 290.762C347.811 292.737 342.292 294.398 336.904 295.686C327.393 297.953 317.602 299.104 307.806 299.104C251.59 299.104 207.491 261.744 199.223 254.249L190.205 246.078L168.098 270.487L177.121 278.658C182.796 283.799 198.433 297.049 220.986 309.033L220.981 309.038ZM368.235 151.197C380.574 151.197 393.274 156.745 403.998 166.811C418.289 180.232 427.376 199.259 427.72 216.465C428.035 232.382 420.15 247.584 404.284 261.687C400.185 262.082 395.988 262.282 391.774 262.282C377.224 262.282 362.486 259.9 349.151 255.394C328.928 248.558 314.682 237.518 311.046 225.861C307.21 213.562 312.317 193.888 323.471 178.016C334.957 161.675 350.628 151.913 366.46 151.231C367.05 151.209 367.645 151.191 368.247 151.191L368.235 151.197ZM580.94 268.552C581.788 254.695 587.187 239.866 595.043 229.846C604.954 217.198 621.284 209.416 640.385 208.094C648.968 217.65 655.472 228.111 659.326 238.595C667.794 261.652 667.159 281.154 657.539 293.516C650.422 302.66 638.129 309.056 624.651 310.613C622.578 310.853 620.505 310.974 618.496 310.974C608.676 310.974 600.013 308.174 593.44 302.872C581.948 293.602 580.305 279.093 580.946 268.552H580.94Z" fill="#EBE2E4"/>
<path d="M53.4093 -13.3776C22.2613 -30.7437 18.9919 -42.2009 19.0377 -46.3177C19.0892 -51.5396 24.3626 -57.3283 30.472 -64.0332C40.2172 -74.7346 52.35 -88.0526 49.6132 -108.224C47.7007 -122.275 39.4901 -133.24 24.5001 -141.743C12.9398 -148.305 -1.50049 -152.811 -16.7882 -157.586C-44.5179 -166.243 -75.9466 -176.063 -91.1427 -199.458C-100.636 -214.082 -103.59 -233.332 -100.172 -258.307C-96.96 -281.771 -88.7493 -306.054 -81.5062 -327.48C-75.8606 -344.182 -70.988 -358.605 -69.11 -370.601C-66.4991 -387.325 -70.3525 -399.201 -80.5786 -405.882C-84.913 -408.717 -89.7399 -410.154 -94.9274 -410.154C-110.398 -410.154 -125.211 -397.729 -145.709 -380.54C-170.393 -359.836 -204.197 -331.488 -238.46 -331.488C-240.218 -331.488 -241.987 -331.562 -243.716 -331.711C-260.962 -333.183 -278.265 -342.138 -295.151 -358.336C-313.107 -375.559 -330.742 -401.061 -347.57 -434.139L-353.089 -444.989L-382.439 -430.057L-376.92 -419.206C-360.573 -387.079 -343.207 -361.096 -325.297 -341.972C-300.745 -315.759 -274.24 -301.268 -246.522 -298.903C-243.837 -298.674 -241.105 -298.559 -238.403 -298.559C-192.23 -298.559 -153.118 -331.362 -124.558 -355.313C-118.214 -360.632 -108.967 -368.39 -102.102 -373.114C-102.462 -371.333 -102.955 -369.215 -103.625 -366.69C-105.841 -358.33 -109.179 -348.471 -112.706 -338.027C-120.058 -316.275 -129.207 -289.209 -132.815 -262.321C-137.241 -229.329 -132.643 -202.899 -118.764 -181.531C-97.1031 -148.179 -58.0192 -135.971 -26.6078 -126.163C-6.76245 -119.962 15.734 -112.937 16.9764 -103.798C17.6006 -99.2006 13.2948 -94.0876 6.12039 -86.2147C-2.72012 -76.5096 -13.7192 -64.434 -13.8967 -46.6556C-14.1201 -24.2737 2.65067 -3.98166 37.3715 15.3713C72.7279 35.0851 129.396 55.1652 205.794 75.0449L217.572 78.1082L225.863 46.2388L214.085 43.1755C140.389 23.9943 86.3266 4.96191 53.4036 -13.3891L53.4093 -13.3776Z" fill="#EBE2E4"/>
<path d="M188.646 -27.8411C159.193 -47.9499 156.977 -59.659 157.389 -63.7529C157.911 -68.9461 163.688 -74.2367 170.375 -80.3632C181.048 -90.1428 194.338 -102.31 193.427 -122.642C192.797 -136.808 185.606 -148.471 171.446 -158.296C160.522 -165.877 146.556 -171.672 131.761 -177.81C104.925 -188.94 74.5152 -201.554 61.4949 -226.226C53.3586 -241.646 52.1562 -261.085 57.8247 -285.648C63.1439 -308.723 73.5132 -332.17 82.6629 -352.851C89.7972 -368.975 95.9524 -382.894 98.9068 -394.672C103.024 -411.093 100.252 -423.266 90.679 -430.847C86.6194 -434.059 81.9415 -435.926 76.7769 -436.395C61.3689 -437.792 45.4972 -426.759 23.5275 -411.488C-2.92538 -393.103 -39.1578 -367.921 -73.2775 -371.019C-75.0295 -371.179 -76.7816 -371.414 -78.4879 -371.717C-95.5277 -374.74 -111.955 -385.224 -127.305 -402.882C-143.63 -421.657 -158.889 -448.654 -172.659 -483.111L-177.177 -494.414L-207.758 -482.195L-203.24 -470.893C-189.865 -437.42 -174.915 -409.971 -158.809 -389.307C-136.724 -360.982 -111.64 -344.154 -84.248 -339.298C-81.597 -338.829 -78.8829 -338.462 -76.1918 -338.222C-30.2085 -334.053 11.7096 -363.186 42.3137 -384.457C49.1158 -389.181 59.0271 -396.069 66.2873 -400.157C65.7663 -398.416 65.0849 -396.349 64.1917 -393.899C61.2258 -385.774 57.0174 -376.252 52.557 -366.175C43.2699 -345.178 31.7096 -319.046 25.6918 -292.593C18.3057 -260.134 20.4929 -233.401 32.3853 -210.864C50.9424 -175.691 88.7665 -160.002 119.159 -147.394C138.363 -139.43 160.132 -130.4 160.544 -121.182C160.751 -116.55 155.998 -111.849 148.142 -104.652C138.46 -95.7883 126.419 -84.7549 124.633 -67.0623C122.388 -44.7892 137.258 -23.0715 170.083 -0.655243C203.516 22.1733 258.134 47.2921 332.419 73.9969L343.871 78.1136L355.008 47.126L343.556 43.0092C271.893 17.2491 219.777 -6.59286 188.646 -27.8468V-27.8411Z" fill="#EBE2E4"/>
<path d="M387.935 823.679C405.301 792.531 416.758 789.261 420.875 789.307C426.097 789.359 431.886 794.632 438.591 800.742C449.292 810.487 462.61 822.62 482.782 819.883C496.833 817.97 507.798 809.76 516.3 794.77C522.862 783.209 527.368 768.769 532.143 753.481C540.801 725.752 550.62 694.323 574.016 679.127C588.639 669.634 607.889 666.679 632.865 670.097C656.329 673.31 680.612 681.52 702.037 688.763C718.739 694.409 733.162 699.282 745.158 701.16C761.883 703.77 773.758 699.917 780.44 689.691C783.274 685.357 784.711 680.53 784.711 675.342C784.711 659.871 772.286 645.059 755.098 624.561C734.394 599.877 706.045 566.072 706.045 531.809C706.045 530.052 706.12 528.282 706.269 526.553C707.74 509.307 716.695 492.004 732.893 475.119C750.116 457.163 775.619 439.528 808.696 422.7L819.547 417.18L804.614 387.83L793.764 393.35C761.637 409.697 735.653 427.063 716.529 444.973C690.317 469.525 675.825 496.029 673.46 523.748C673.231 526.433 673.117 529.164 673.117 531.867C673.117 578.039 705.919 617.152 729.87 645.711C735.189 652.056 742.948 661.303 747.672 668.168C745.891 667.807 743.772 667.315 741.247 666.645C732.888 664.429 723.028 661.091 712.584 657.564C690.832 650.212 663.767 641.062 636.879 637.455C603.887 633.029 577.457 637.627 556.088 651.506C522.736 673.166 510.529 712.25 500.721 743.662C494.52 763.507 487.494 786.003 478.356 787.246C473.758 787.87 468.645 783.564 460.772 776.39C451.067 767.549 438.991 756.55 421.213 756.373C398.831 756.149 378.539 772.92 359.186 807.641C339.472 842.997 319.392 899.665 299.512 976.063L296.449 987.841L328.319 996.132L331.382 984.354C350.563 910.658 369.596 856.596 387.946 823.673L387.935 823.679Z" fill="#EBE2E4"/>
<path d="M243.039 676.15C243.039 670.298 242.701 664.498 242.025 658.915C239.094 634.558 230.477 619.11 217.107 614.237C191.341 604.853 158.979 638.812 149.675 649.439C129.961 671.964 117.061 697.598 113.563 720.85C91.7019 708.689 68.4784 689.319 55.1317 664.177C68.4211 665.586 81.0807 665.454 92.3433 663.759C110.139 661.079 124.236 654.735 134.238 644.904C146.182 633.161 153.231 615.073 154.622 592.594C154.788 589.851 154.874 587.023 154.874 584.183C154.874 568.225 152.257 551.403 147.316 535.537C137.811 505.059 122.048 485.78 104.058 482.643C89.4632 480.1 73.2594 487.55 57.1872 504.189C31.9024 530.367 13.872 571.563 11.2611 609.153C11.0321 612.491 10.9118 615.84 10.9118 619.116V619.264C-15.6556 608.666 -59.091 585.191 -79.5777 540.049C-82.5036 533.602 -84.8626 526.782 -86.6376 519.642C-74.4589 523.026 -62.3375 525.288 -50.8288 526.29C-15.7186 529.342 13.2994 520.936 30.8831 502.637C45.9304 486.971 53.8835 462.786 53.8835 432.686C53.8835 410.413 49.4918 385.935 41.5159 363.765C28.5414 327.699 9.23991 305.643 -11.4472 303.255C-22.1028 302.024 -33.663 305.775 -45.8073 314.398C-56.4973 321.99 -67.1128 332.96 -77.3447 347C-96.7492 373.619 -111.917 407.91 -118.965 441.091C-120.958 450.464 -122.332 459.797 -123.07 468.987C-149.117 454.432 -171.012 434.959 -185.796 412.978C-203.191 387.109 -212.014 356.35 -212.014 321.566C-212.014 283.725 -201.461 252.726 -198.226 244.126L-193.944 232.731L-224.765 221.143L-229.048 232.531C-232.833 242.591 -241.897 269.76 -244.319 304.607C-244.714 310.298 -244.914 316.018 -244.914 321.601C-244.914 363.049 -234.218 399.974 -213.125 431.346C-195.386 457.724 -169.747 480.77 -138.971 497.988C-133.617 500.982 -128.098 503.799 -122.492 506.399C-120.511 523.215 -116.171 539.081 -109.558 553.659C-96.7263 581.938 -74.436 607.298 -45.1088 626.994C-26.5402 639.465 -5.42369 649.462 16.3284 656.115C22.8729 677.426 35.4809 697.987 53.0761 715.961C70.8087 734.071 93.5227 749.376 117.101 759.098C118.092 761.726 119.237 764.292 120.537 766.776C129.515 783.925 145.621 797.375 167.121 805.671C187.385 813.493 210.734 816.041 234.639 813.04L246.715 811.529L242.621 778.858L230.545 780.369C207.711 783.232 185.587 779.31 169.692 770.573C184.877 770.538 198.183 766.983 208.673 759.98C234.015 743.055 243.045 705.58 243.045 676.15H243.039ZM205.186 646.267C206.509 649.05 208.307 654.363 209.331 662.849C209.835 667.034 210.093 671.437 210.093 675.943C210.093 701.543 201.985 724.841 190.379 732.594C180.989 738.864 164.556 739.35 145.507 734.117C145.507 733.934 145.507 733.75 145.507 733.567C145.507 727.435 146.715 720.684 149.102 713.499C153.729 699.574 162.73 684.526 174.456 671.128C188.083 655.56 199.781 648.414 205.192 646.267H205.186ZM121.945 584.16C121.945 586.336 121.882 588.489 121.751 590.573C120.897 604.589 117.13 615.548 111.147 621.429C100.451 631.947 75.5725 635.085 46.2224 629.628C45.5926 629.508 44.9628 629.387 44.3272 629.262C43.978 625.878 43.8062 622.414 43.8062 618.909C43.8062 581.973 62.4205 546.17 80.8631 527.074C90.4995 517.1 96.9983 515.119 98.4125 515.102C100.903 515.949 109.349 524.423 115.87 545.345C119.838 558.079 121.94 571.5 121.94 584.16H121.945ZM7.12135 479.826C-3.27086 490.647 -23.3624 495.623 -47.9945 493.487C-61.3126 492.331 -75.9304 488.97 -90.6685 483.708C-90.239 444.486 -75.0258 399.7 -50.7486 366.393C-33.3768 342.563 -19.091 335.52 -15.2433 335.961C-10.9662 336.453 0.971924 348.386 10.511 374.907C17.1471 393.35 20.949 414.449 20.949 432.783C20.949 433.682 20.9376 434.575 20.9204 435.463C20.5082 455.508 15.7329 470.853 7.10995 479.826H7.12135Z" fill="#EBE2E4"/>
</g>
</g>
</svg>
