<svg width="828" height="480" viewBox="0 0 828 480" fill="none" xmlns="http://www.w3.org/2000/svg">
<g opacity="0.5">
<mask id="mask0_2019_12648" style="mask-type:luminance" maskUnits="userSpaceOnUse" x="0" y="0" width="828" height="480">
<path d="M828 0H0V480H828V0Z" fill="white"/>
</mask>
<g mask="url(#mask0_2019_12648)">
<path d="M373.431 -48.978C373.431 -19.7945 397.094 3.86752 426.277 3.86752C455.46 3.86752 479.122 -19.7945 479.122 -48.978C479.122 -78.1614 455.46 -101.823 426.277 -101.823C397.094 -101.823 373.431 -125.486 373.431 -154.669C373.431 -125.486 349.769 -101.823 320.586 -101.823C349.769 -101.823 373.431 -78.1614 373.431 -48.978Z" fill="#FFF8FD" fill-opacity="0.7"/>
<path d="M-102.165 3.86729C-72.982 3.86729 -49.32 -19.7948 -49.32 -48.9782C-49.32 -19.7948 -25.6579 3.86729 3.5255 3.86729C32.7089 3.86729 56.371 -19.7948 56.371 -48.9782C56.371 -78.1616 32.7089 -101.824 3.5255 -101.824C32.7089 -101.824 56.371 -125.486 56.371 -154.669C56.371 -183.853 32.7089 -207.515 3.5255 -207.515C-25.6579 -207.515 -49.32 -183.853 -49.32 -154.669C-49.32 -125.486 -72.982 -101.824 -102.165 -101.824C-131.349 -101.824 -155.011 -78.1616 -155.011 -48.9782C-155.011 -19.7948 -178.673 3.86729 -207.856 3.86729C-178.673 3.86729 -155.011 27.5294 -155.011 56.7128C-155.011 27.5294 -131.349 3.86729 -102.165 3.86729Z" fill="#FFF8FD" fill-opacity="0.7"/>
<path d="M109.209 3.86774C80.0254 3.86774 56.3633 27.5298 56.3633 56.7132C56.3633 85.8967 80.0254 109.559 109.209 109.559C138.392 109.559 162.054 85.8967 162.054 56.7132C162.054 85.8967 185.716 109.559 214.9 109.559C244.083 109.559 267.745 85.8967 267.745 56.7132C267.745 27.5298 244.083 3.86774 214.9 3.86774C244.083 3.86774 267.745 -19.7943 267.745 -48.9778C267.745 -78.1612 244.083 -101.823 214.9 -101.823C185.716 -101.823 162.054 -78.1612 162.054 -48.9778C162.054 -19.7943 138.392 3.86774 109.209 3.86774Z" fill="#FFF8FD" fill-opacity="0.7"/>
<path d="M849.027 3.86774C819.844 3.86774 796.182 27.5298 796.182 56.7132C796.182 85.8967 819.844 109.559 849.027 109.559C878.211 109.559 901.873 85.8967 901.873 56.7132C901.873 85.8967 925.535 109.559 954.718 109.559C983.901 109.559 1007.56 85.8967 1007.56 56.7132C1007.56 27.5298 983.901 3.86774 954.718 3.86774C983.901 3.86774 1007.56 -19.7943 1007.56 -48.9778C1007.56 -78.1612 983.901 -101.823 954.718 -101.823C925.535 -101.823 901.873 -78.1612 901.873 -48.9778C901.873 -19.7943 878.211 3.86774 849.027 3.86774Z" fill="#FFF8FD" fill-opacity="0.7"/>
<path d="M584.806 56.7132C584.806 85.8967 608.468 109.559 637.652 109.559C666.835 109.559 690.497 85.8967 690.497 56.7132C690.497 27.5298 714.159 3.86774 743.343 3.86774C714.159 3.86774 690.497 -19.7943 690.497 -48.9778C690.497 -78.1612 666.835 -101.823 637.652 -101.823C608.468 -101.823 584.806 -78.1612 584.806 -48.9778C584.806 -19.7943 561.144 3.86774 531.961 3.86774C561.144 3.86774 584.806 27.5298 584.806 56.7132Z" fill="#FFF8FD" fill-opacity="0.7"/>
<path d="M320.585 109.552C349.769 109.552 373.431 85.89 373.431 56.7066C373.431 85.89 397.093 109.552 426.277 109.552C455.46 109.552 479.122 85.89 479.122 56.7066C479.122 27.5232 455.46 3.86111 426.277 3.86111C397.093 3.86111 373.431 -19.8009 373.431 -48.9844C373.431 -19.8009 349.769 3.86111 320.585 3.86111C291.402 3.86111 267.74 27.5232 267.74 56.7066C267.74 85.89 244.078 109.552 214.895 109.552C244.078 109.552 267.74 133.214 267.74 162.398C267.74 133.214 291.402 109.552 320.585 109.552Z" fill="#FFF8FD" fill-opacity="0.7"/>
<path d="M743.336 109.553C714.152 109.553 690.49 133.215 690.49 162.398C690.49 191.581 714.152 215.243 743.336 215.243C772.519 215.243 796.181 191.581 796.181 162.398C796.181 191.581 819.843 215.243 849.027 215.243C878.21 215.243 901.872 191.581 901.872 162.398C901.872 133.215 878.21 109.553 849.027 109.553C819.843 109.553 796.181 85.8905 796.181 56.707C796.181 85.8905 772.519 109.553 743.336 109.553Z" fill="#FFF8FD" fill-opacity="0.7"/>
<path d="M56.3636 162.398C56.3636 133.215 80.0257 109.553 109.209 109.553C80.0257 109.553 56.3636 85.8905 56.3636 56.707C56.3636 85.8905 32.7016 109.553 3.51813 109.553C-25.6653 109.553 -49.3274 85.8905 -49.3274 56.707C-49.3274 85.8905 -72.9894 109.553 -102.173 109.553C-72.9894 109.553 -49.3274 133.215 -49.3274 162.398C-49.3274 191.581 -25.6653 215.244 3.51813 215.244C32.7016 215.244 56.3636 238.906 56.3636 268.089C56.3636 238.906 80.0257 215.244 109.209 215.244C80.0257 215.244 56.3636 191.581 56.3636 162.398Z" fill="#FFF8FD" fill-opacity="0.7"/>
<path d="M690.497 162.397C690.497 191.581 666.835 215.243 637.652 215.243C608.468 215.243 584.806 238.905 584.806 268.088C584.806 297.272 561.144 320.934 531.961 320.934C561.144 320.934 584.806 344.596 584.806 373.779C584.806 344.596 608.468 320.934 637.652 320.934C666.835 320.934 690.497 297.272 690.497 268.088C690.497 297.272 714.159 320.934 743.343 320.934C772.526 320.934 796.188 297.272 796.188 268.088C796.188 238.905 772.526 215.243 743.343 215.243C714.159 215.243 690.497 191.581 690.497 162.397Z" fill="#FFF8FD" fill-opacity="0.7"/>
<path d="M531.958 320.934C502.775 320.934 479.113 297.272 479.113 268.088C479.113 238.905 502.775 215.243 531.958 215.243C502.775 215.243 479.113 191.581 479.113 162.397C479.113 191.581 455.451 215.243 426.267 215.243C397.084 215.243 373.422 238.905 373.422 268.088C373.422 297.272 397.084 320.934 426.267 320.934C455.451 320.934 479.113 344.596 479.113 373.779C479.113 344.596 502.775 320.934 531.958 320.934Z" fill="#FFF8FD" fill-opacity="0.7"/>
<path d="M901.872 268.089C901.872 297.272 878.21 320.934 849.027 320.934C819.844 320.934 796.182 297.272 796.182 268.089C796.182 297.272 772.519 320.934 743.336 320.934C772.519 320.934 796.182 344.596 796.182 373.78C796.182 402.963 819.844 426.625 849.027 426.625C878.21 426.625 901.872 450.287 901.872 479.471C901.872 450.287 925.534 426.625 954.718 426.625V320.934C925.534 320.934 901.872 297.272 901.872 268.089Z" fill="#FFF8FD" fill-opacity="0.7"/>
<path d="M267.74 373.773C267.74 344.59 244.078 320.928 214.894 320.928C185.711 320.928 162.049 344.59 162.049 373.773C162.049 402.957 185.711 426.619 214.894 426.619C185.711 426.619 162.049 450.281 162.049 479.464C162.049 508.648 185.711 532.31 214.894 532.31C244.078 532.31 267.74 508.648 267.74 479.464C267.74 450.281 291.402 426.619 320.585 426.619C291.402 426.619 267.74 402.957 267.74 373.773Z" fill="#FFF8FD" fill-opacity="0.7"/>
<path d="M849.027 532.31C878.21 532.31 901.872 508.648 901.872 479.464C901.872 450.281 878.21 426.619 849.027 426.619C819.844 426.619 796.181 402.957 796.181 373.773C796.181 402.957 772.519 426.619 743.336 426.619C772.519 426.619 796.181 450.281 796.181 479.464C796.181 508.648 772.519 532.31 743.336 532.31C772.519 532.31 796.181 555.972 796.181 585.155C796.181 555.972 819.844 532.31 849.027 532.31Z" fill="#FFF8FD" fill-opacity="0.7"/>
<path d="M690.498 56.7127C690.498 85.8961 666.836 109.558 637.652 109.558C666.836 109.558 690.498 133.22 690.498 162.404C690.498 133.22 714.16 109.558 743.343 109.558C772.527 109.558 796.189 85.8961 796.189 56.7127C796.189 27.5293 772.527 3.86719 743.343 3.86719C714.16 3.86719 690.498 27.5293 690.498 56.7127Z" fill="#FFF8FD" fill-opacity="0.7"/>
<path d="M373.431 162.398C373.431 133.215 397.093 109.553 426.277 109.553C397.093 109.553 373.431 85.8905 373.431 56.707C373.431 85.8905 349.769 109.553 320.586 109.553C291.402 109.553 267.74 133.215 267.74 162.398C267.74 191.581 291.402 215.243 320.586 215.243C349.769 215.243 373.431 191.581 373.431 162.398Z" fill="#FFF8FD" fill-opacity="0.7"/>
<path d="M56.3636 268.088C56.3636 238.905 32.7016 215.243 3.51812 215.243C-25.6653 215.243 -49.3274 191.581 -49.3274 162.397C-49.3274 191.581 -72.9894 215.243 -102.173 215.243C-72.9894 215.243 -49.3274 238.905 -49.3274 268.088C-49.3274 297.272 -25.6653 320.934 3.51812 320.934C32.7016 320.934 56.3636 344.596 56.3636 373.779C56.3636 344.596 80.0257 320.934 109.209 320.934C138.393 320.934 162.055 297.272 162.055 268.088C162.055 238.905 138.393 215.243 109.209 215.243C80.0257 215.243 56.3636 238.905 56.3636 268.088Z" fill="#FFF8FD" fill-opacity="0.7"/>
<path d="M584.806 268.089C584.806 238.906 608.468 215.244 637.652 215.244C608.468 215.244 584.806 191.582 584.806 162.398C584.806 133.215 561.144 109.553 531.961 109.553C502.777 109.553 479.115 133.215 479.115 162.398C479.115 191.582 502.777 215.244 531.961 215.244C502.777 215.244 479.115 238.906 479.115 268.089C479.115 297.273 502.777 320.935 531.961 320.935C561.144 320.935 584.806 297.273 584.806 268.089Z" fill="#FFF8FD" fill-opacity="0.7"/>
<path d="M17.7672 532.309C46.9506 532.309 70.6126 508.647 70.6126 479.464C70.6126 450.28 46.9506 426.618 17.7672 426.618C-11.4163 426.618 -35.0784 450.28 -35.0784 479.464C-35.0784 508.647 -58.7404 532.309 -87.9238 532.309C-58.7404 532.309 -35.0784 555.971 -35.0784 585.155H70.6126C70.6126 555.971 46.9506 532.309 17.7672 532.309Z" fill="#FFF8FD" fill-opacity="0.7"/>
<path d="M426.277 320.934C397.093 320.934 373.431 344.596 373.431 373.779C373.431 344.596 349.769 320.934 320.586 320.934C291.402 320.934 267.74 344.596 267.74 373.779C267.74 402.962 291.402 426.625 320.586 426.625C349.769 426.625 373.431 450.287 373.431 479.47C373.431 450.287 397.093 426.625 426.277 426.625C455.46 426.625 479.122 402.962 479.122 373.779C479.122 344.596 455.46 320.934 426.277 320.934Z" fill="#FFF8FD" fill-opacity="0.7"/>
<path d="M214.9 532.31C185.716 532.31 162.054 508.648 162.054 479.464C162.054 450.281 185.716 426.619 214.9 426.619C185.716 426.619 162.054 402.957 162.054 373.773C162.054 402.957 138.392 426.619 109.209 426.619C80.0251 426.619 56.3631 450.281 56.3631 479.464C56.3631 508.648 32.701 532.31 3.51758 532.31C32.701 532.31 56.3631 555.972 56.3631 585.155C56.3631 555.972 80.0251 532.31 109.209 532.31C138.392 532.31 162.054 555.972 162.054 585.155H267.745C267.745 555.972 244.083 532.31 214.9 532.31Z" fill="#FFF8FD" fill-opacity="0.7"/>
<path d="M531.958 532.31C561.142 532.31 584.804 508.648 584.804 479.464C584.804 450.281 561.142 426.619 531.958 426.619C502.775 426.619 479.113 402.957 479.113 373.773C479.113 402.957 455.451 426.619 426.267 426.619C397.084 426.619 373.422 450.281 373.422 479.464C373.422 508.648 397.084 532.31 426.267 532.31C455.451 532.31 479.113 555.972 479.113 585.155H584.804C584.804 555.972 561.142 532.31 531.958 532.31Z" fill="#FFF8FD" fill-opacity="0.7"/>
<path d="M743.335 532.308C714.152 532.308 690.49 508.646 690.49 479.463C690.49 508.646 666.828 532.308 637.644 532.308C608.461 532.308 584.799 508.646 584.799 479.463C584.799 508.646 561.137 532.308 531.953 532.308C561.137 532.308 584.799 555.97 584.799 585.154H796.174C796.174 555.97 772.512 532.308 743.329 532.308H743.335Z" fill="#FFF8FD" fill-opacity="0.7"/>
</g>
</g>
</svg>
