<svg width="490" height="230" viewBox="0 0 490 230" fill="none" xmlns="http://www.w3.org/2000/svg">
<path d="M202.482 113.833C167.77 113.833 145.333 95.4169 145.333 63.4167C145.333 31.4165 167.77 13 202.482 13C237.194 13 259.5 31.4165 259.5 63.4167C259.5 95.4169 237.194 113.833 202.482 113.833ZM222.412 63.4167C222.412 54.2738 215.945 50.0941 202.482 50.0941C189.02 50.0941 182.553 54.2738 182.553 63.4167C182.553 72.5596 189.02 76.7392 202.482 76.7392C215.945 76.7392 222.412 72.5596 222.412 63.4167Z" fill="#778F22"/>
<path d="M153.316 208.833C118.604 208.833 96.167 190.417 96.167 158.417C96.167 126.416 118.604 108 153.316 108C188.028 108 210.334 126.416 210.334 158.417C210.334 190.417 188.028 208.833 153.316 208.833ZM173.246 158.417C173.246 149.274 166.779 145.094 153.316 145.094C139.854 145.094 133.387 149.274 133.387 158.417C133.387 167.56 139.854 171.739 153.316 171.739C166.779 171.739 173.246 167.56 173.246 158.417Z" fill="#778F22"/>
<path d="M484.258 164.569C486.889 159.875 488.284 154.418 488.284 148.354C488.284 127.197 471.396 114.553 443.085 114.553H426.062V81.8742L426.219 67.096L422.036 69.2521C424.667 64.5581 426.062 59.1005 426.062 53.0365C426.062 31.8798 409.174 19.2353 380.863 19.2353H253.811L237.372 18.1348L245.4 31.5205C245.49 31.9023 245.625 32.5761 245.782 33.6317C235.731 23.6597 220.8 18 202.428 18C182.481 18 166.583 24.648 156.554 36.2369V24.1314L150.302 22.1325C149.785 21.9528 137.17 18 118.888 18C86.9787 18 67.1676 30.0606 67.1676 49.443C67.1676 54.7659 68.1346 59.2353 69.7536 62.9635L69.4163 62.8063V115.181C66.0882 114.8 62.5803 114.575 58.8024 114.575H18.4379L2 113.474L10.0278 126.86C10.455 128.724 12.0292 137.641 12.0292 165.67C12.0292 193.699 10.455 202.615 10.0278 204.48L2.56218 216.765H54.0799L70.4956 217.865L62.4904 204.502C62.2655 203.536 61.7482 200.661 61.2985 194.171C79.6479 193.766 91.2963 188.96 98.6945 182.739C105.441 204.614 125.634 218 153.923 218C178.838 218 197.458 207.579 206.115 190.106C207.532 200.302 207.622 204.614 207.577 205.962L202.877 216.765H434.337L450.685 217.865L448.504 214.204C453.338 216.293 459.545 217.573 467.618 217.573C471.755 217.573 475.938 217.304 480.458 216.72L488.306 215.709V177.259L488.463 162.481L484.281 164.637L484.258 164.569ZM194.535 69.1623C194.535 69.1623 196.064 67.8147 202.428 67.8147C208.791 67.8147 210.231 69.0724 210.253 69.0724C210.253 69.0724 210.41 69.5441 210.41 70.2852C210.41 71.0264 210.298 71.4082 210.321 71.4082C210.321 71.4082 208.791 72.7558 202.428 72.7558C196.064 72.7558 194.625 71.498 194.602 71.498C194.602 71.498 194.445 71.0264 194.445 70.2852C194.445 69.5441 194.557 69.1623 194.535 69.1623ZM155.654 103.3C159.41 107.905 164.042 111.768 169.461 114.822C164.604 113.834 159.41 113.295 153.9 113.295C150.977 113.295 148.121 113.452 145.378 113.744C149.92 110.892 153.383 107.388 155.654 103.3ZM105.643 134.541C102.427 129.488 97.7275 124.974 91.3187 121.515C95.8386 122.076 101.146 122.503 107.06 122.503C111.535 122.503 115.762 122.234 119.742 121.784C114.098 125.153 109.353 129.443 105.643 134.541ZM161.793 166.77C161.793 166.77 160.264 168.118 153.9 168.118C147.536 168.118 146.097 166.86 146.075 166.86C146.075 166.86 145.917 166.389 145.917 165.647C145.917 164.906 146.03 164.524 146.007 164.524C146.007 164.524 147.536 163.177 153.9 163.177C160.264 163.177 161.703 164.435 161.726 164.435C161.726 164.435 161.883 164.906 161.883 165.647C161.883 166.389 161.771 166.77 161.793 166.77ZM186.732 121.111C187.091 121.178 187.451 121.245 187.811 121.313L188.351 122.009C187.833 121.695 187.271 121.425 186.732 121.111ZM237.35 113.609C242.837 110.195 247.447 105.861 251.045 100.74C253.406 106.332 256.914 110.959 261.523 114.53H247.109L237.35 113.609ZM314.233 204.435L312.839 206.703L312.502 205.917C312.457 204.098 312.592 196.776 316.145 176.316C315.807 195.967 314.593 202.84 314.233 204.435Z" fill="#778F22"/>
<path d="M149.805 91.0602C149.805 105.434 131.928 113.52 107.08 113.52C89.9897 113.52 78.4089 109.814 78.4089 109.814V76.7986C78.4089 76.7986 88.8654 81.6273 104.269 81.6273C112.702 81.6273 120.347 80.5044 120.347 77.2478C120.347 70.1731 76.1602 80.729 76.1602 49.3983C76.1602 35.0243 94.0374 26.939 118.886 26.939C135.976 26.939 147.557 30.6447 147.557 30.6447V63.6599C147.557 63.6599 136.988 58.8312 121.584 58.8312C113.264 58.8312 105.618 59.9541 105.618 63.2107C105.618 69.6116 149.805 60.1787 149.805 91.0602Z" fill="#C1DE4B"/>
<path d="M202.43 113.632C172.859 113.632 153.745 97.798 153.745 70.2854C153.745 42.7728 172.859 26.939 202.43 26.939C232 26.939 251.002 42.7728 251.002 70.2854C251.002 97.798 232 113.632 202.43 113.632ZM219.407 70.2854C219.407 62.4246 213.898 58.8312 202.43 58.8312C190.961 58.8312 185.452 62.4246 185.452 70.2854C185.452 78.1461 190.961 81.7396 202.43 81.7396C213.898 81.7396 219.407 78.1461 219.407 70.2854Z" fill="#C1DE4B"/>
<path d="M296.872 28.1733H332.514C332.514 28.1733 330.041 34.2374 330.041 70.2845V80.9527C330.041 106.107 314.75 114.642 293.162 114.642C271.574 114.642 256.396 106.107 256.396 80.9527V70.2845C256.396 34.2374 253.81 28.1733 253.81 28.1733H289.564C289.564 28.1733 286.978 34.2374 286.978 70.1722V75.3379C286.978 81.1773 288.665 84.5462 293.162 84.5462C297.659 84.5462 299.458 81.1773 299.458 75.3379V70.2845C299.458 34.2374 296.872 28.1733 296.872 28.1733Z" fill="#C1DE4B"/>
<path d="M383.334 78.5945H381.647C389.18 80.9527 395.364 84.097 405.259 84.097C412.679 84.097 417.064 81.8511 417.064 81.8511V112.396C412.679 112.957 408.857 113.182 405.371 113.182C368.043 113.182 383.784 83.3109 369.617 79.1559C369.954 107.342 372.09 112.396 372.09 112.396H336.448C336.448 112.396 339.034 106.332 339.034 70.2845C339.034 34.2374 336.448 28.1733 336.448 28.1733H380.86C402.898 28.1733 417.064 36.0341 417.064 52.9909C417.064 69.9476 403.235 78.5945 383.334 78.5945ZM384.121 64.6697C384.121 58.2688 380.186 55.3491 372.99 55.3491H369.504V70.2845C369.504 71.7444 369.504 73.0919 369.617 74.4395H372.54C379.624 74.4395 384.121 71.2952 384.121 64.6697Z" fill="#C1DE4B"/>
<path d="M58.6875 185.164H51.8288C52.5035 204.03 54.0775 207.736 54.0775 207.736H18.4355C18.4355 207.736 21.0216 201.672 21.0216 165.625C21.0216 129.578 18.4355 123.514 18.4355 123.514H58.8001C87.5835 123.514 102.425 136.315 102.425 154.844C102.425 173.373 87.5834 185.164 58.6875 185.164ZM69.4814 159.224C69.4814 156.753 67.7947 155.294 63.0724 155.294H51.4918V163.491H62.6228C67.9072 163.491 69.4814 161.807 69.4814 159.224Z" fill="#C1DE4B"/>
<path d="M153.924 208.972C124.353 208.972 105.239 193.138 105.239 165.625C105.239 138.113 124.353 122.279 153.924 122.279C183.494 122.279 202.496 138.113 202.496 165.625C202.496 193.138 183.494 208.972 153.924 208.972ZM170.902 165.625C170.902 157.764 165.392 154.171 153.924 154.171C142.455 154.171 136.946 157.764 136.946 165.625C136.946 173.486 142.455 177.079 153.924 177.079C165.392 177.079 170.902 173.486 170.902 165.625Z" fill="#C1DE4B"/>
<path d="M282.551 123.514H319.318C319.318 123.514 315.72 129.578 308.974 165.625C302.228 201.672 303.689 207.736 303.689 207.736H264.787C264.787 207.736 265.911 202.57 260.064 173.261C254.218 202.57 255.342 207.736 255.342 207.736H216.439C216.439 207.736 217.901 201.672 211.155 165.625C204.521 129.578 200.811 123.514 200.811 123.514H237.577C237.577 123.514 235.778 129.578 240.5 165.625C240.725 167.871 241.062 169.892 241.287 171.913C241.625 169.892 242.074 167.871 242.412 165.625C248.596 129.578 247.134 123.514 247.134 123.514H273.107C273.107 123.514 271.533 129.578 277.717 165.625C278.166 167.871 278.504 169.892 278.841 171.913C279.066 169.892 279.403 167.871 279.628 165.625C284.35 129.578 282.551 123.514 282.551 123.514Z" fill="#C1DE4B"/>
<path d="M355.971 180.56C389.365 180.336 395.324 176.967 395.324 176.967L393.187 207.736H322.69C322.69 207.736 325.277 201.672 325.277 165.625C325.277 129.578 322.69 123.514 322.69 123.514H392.063V153.16C392.063 153.16 386.666 150.914 355.746 150.689V160.572H387.228V170.678H355.746C355.859 174.272 355.859 177.641 355.971 180.56Z" fill="#C1DE4B"/>
<path d="M445.58 173.935H443.894C451.427 176.293 457.611 179.437 467.505 179.437C474.926 179.437 479.311 177.191 479.311 177.191V207.736C474.926 208.298 471.103 208.522 467.617 208.522C430.289 208.522 446.03 178.651 431.863 174.496C432.2 202.683 434.337 207.736 434.337 207.736H398.694C398.694 207.736 401.28 201.672 401.28 165.625C401.28 129.578 398.694 123.514 398.694 123.514H443.106C465.144 123.514 479.311 131.374 479.311 148.331C479.311 165.288 465.481 173.935 445.58 173.935ZM446.367 160.01C446.367 153.609 442.432 150.689 435.236 150.689H431.751V165.625C431.751 167.085 431.75 168.432 431.863 169.78H434.786C441.87 169.78 446.367 166.636 446.367 160.01Z" fill="#C1DE4B"/>
<path d="M153.924 202.75C124.353 202.75 105.239 186.917 105.239 159.404C105.239 131.891 124.353 116.058 153.924 116.058C183.494 116.058 202.496 131.891 202.496 159.404C202.496 186.917 183.494 202.75 153.924 202.75ZM170.902 159.404C170.902 151.543 165.392 147.95 153.924 147.95C142.455 147.95 136.946 151.543 136.946 159.404C136.946 167.265 142.455 170.858 153.924 170.858C165.392 170.858 170.902 167.265 170.902 159.404Z" fill="#DEECA3"/>
<path d="M202.43 107.635C172.859 107.635 153.745 91.8015 153.745 64.2888C153.745 36.7762 172.859 20.9424 202.43 20.9424C232 20.9424 251.002 36.7762 251.002 64.2888C251.002 91.8015 232 107.635 202.43 107.635ZM219.407 64.2888C219.407 56.4281 213.898 52.8346 202.43 52.8346C190.961 52.8346 185.452 56.4281 185.452 64.2888C185.452 72.1496 190.961 75.7431 202.43 75.7431C213.898 75.7431 219.407 72.1496 219.407 64.2888Z" fill="#DEECA3"/>
</svg>
