<svg width="828" height="380" viewBox="0 0 828 380" fill="none" xmlns="http://www.w3.org/2000/svg">
<g clip-path="url(#clip0_1647_17057)">
<rect width="828" height="380" rx="30" fill="white"/>
<g clip-path="url(#clip1_1647_17057)">
<path d="M957.027 -223.733H-307.814V430.737H957.027V-223.733Z" fill="url(#paint0_linear_1647_17057)"/>
<g opacity="0.5">
<mask id="mask0_1647_17057" style="mask-type:luminance" maskUnits="userSpaceOnUse" x="0" y="-50" width="828" height="480">
<path d="M828 -50H0V430H828V-50Z" fill="white"/>
</mask>
<g mask="url(#mask0_1647_17057)">
<path d="M-102.165 -46.1327C-72.982 -46.1327 -49.32 -69.7948 -49.32 -98.9782C-49.32 -69.7948 -25.6579 -46.1327 3.5255 -46.1327C32.7089 -46.1327 56.371 -69.7948 56.371 -98.9782C56.371 -128.162 32.7089 -151.824 3.5255 -151.824C32.7089 -151.824 56.371 -175.486 56.371 -204.669C56.371 -233.853 32.7089 -257.515 3.5255 -257.515C-25.6579 -257.515 -49.32 -233.853 -49.32 -204.669C-49.32 -175.486 -72.982 -151.824 -102.165 -151.824C-131.349 -151.824 -155.011 -128.162 -155.011 -98.9782C-155.011 -69.7948 -178.673 -46.1327 -207.856 -46.1327C-178.673 -46.1327 -155.011 -22.4706 -155.011 6.7128C-155.011 -22.4706 -131.349 -46.1327 -102.165 -46.1327Z" fill="#FFF8FD" fill-opacity="0.7"/>
<path d="M109.209 -46.1323C80.0254 -46.1323 56.3633 -22.4702 56.3633 6.71324C56.3633 35.8967 80.0254 59.5587 109.209 59.5587C138.392 59.5587 162.054 35.8967 162.054 6.71324C162.054 35.8967 185.716 59.5587 214.9 59.5587C244.083 59.5587 267.745 35.8967 267.745 6.71324C267.745 -22.4702 244.083 -46.1323 214.9 -46.1323C244.083 -46.1323 267.745 -69.7943 267.745 -98.9778C267.745 -128.161 244.083 -151.823 214.9 -151.823C185.716 -151.823 162.054 -128.161 162.054 -98.9778C162.054 -69.7943 138.392 -46.1323 109.209 -46.1323Z" fill="#FFF8FD" fill-opacity="0.7"/>
<path d="M849.027 -46.1323C819.844 -46.1323 796.182 -22.4702 796.182 6.71324C796.182 35.8967 819.844 59.5587 849.027 59.5587C878.211 59.5587 901.873 35.8967 901.873 6.71324C901.873 35.8967 925.535 59.5587 954.718 59.5587C983.901 59.5587 1007.56 35.8967 1007.56 6.71324C1007.56 -22.4702 983.901 -46.1323 954.718 -46.1323C983.901 -46.1323 1007.56 -69.7943 1007.56 -98.9778C1007.56 -128.161 983.901 -151.823 954.718 -151.823C925.535 -151.823 901.873 -128.161 901.873 -98.9778C901.873 -69.7943 878.211 -46.1323 849.027 -46.1323Z" fill="#FFF8FD" fill-opacity="0.7"/>
<path d="M584.806 6.71324C584.806 35.8967 608.468 59.5587 637.652 59.5587C666.835 59.5587 690.497 35.8967 690.497 6.71324C690.497 -22.4702 714.159 -46.1323 743.343 -46.1323C714.159 -46.1323 690.497 -69.7943 690.497 -98.9778C690.497 -128.161 666.835 -151.823 637.652 -151.823C608.468 -151.823 584.806 -128.161 584.806 -98.9778C584.806 -69.7943 561.144 -46.1323 531.961 -46.1323C561.144 -46.1323 584.806 -22.4702 584.806 6.71324Z" fill="#FFF8FD" fill-opacity="0.7"/>
<path d="M320.585 59.5521C349.768 59.5521 373.43 35.89 373.43 6.70662C373.43 35.89 397.092 59.5521 426.276 59.5521C455.459 59.5521 479.121 35.89 479.121 6.70662C479.121 -22.4768 455.459 -46.1389 426.276 -46.1389C397.092 -46.1389 373.43 -69.8009 373.43 -98.9844C373.43 -69.8009 349.768 -46.1389 320.585 -46.1389C291.401 -46.1389 267.739 -22.4768 267.739 6.70662C267.739 35.89 244.077 59.5521 214.894 59.5521C244.077 59.5521 267.739 83.2142 267.739 112.398C267.739 83.2142 291.401 59.5521 320.585 59.5521Z" fill="#FFF8FD" fill-opacity="0.7"/>
<path d="M743.336 59.552C714.152 59.552 690.49 83.2141 690.49 112.397C690.49 141.581 714.152 165.243 743.336 165.243C772.519 165.243 796.181 141.581 796.181 112.397C796.181 141.581 819.843 165.243 849.027 165.243C878.21 165.243 901.872 141.581 901.872 112.397C901.872 83.2141 878.21 59.552 849.027 59.552C819.843 59.552 796.181 35.89 796.181 6.70654C796.181 35.89 772.519 59.552 743.336 59.552Z" fill="#FFF8FD" fill-opacity="0.7"/>
<path d="M56.3636 112.398C56.3636 83.2141 80.0257 59.552 109.209 59.552C80.0257 59.552 56.3636 35.89 56.3636 6.70654C56.3636 35.89 32.7016 59.552 3.51813 59.552C-25.6653 59.552 -49.3274 35.89 -49.3274 6.70654C-49.3274 35.89 -72.9894 59.552 -102.173 59.552C-72.9894 59.552 -49.3274 83.2141 -49.3274 112.398C-49.3274 141.581 -25.6653 165.243 3.51813 165.243C32.7016 165.243 56.3636 188.905 56.3636 218.089C56.3636 188.905 80.0257 165.243 109.209 165.243C80.0257 165.243 56.3636 141.581 56.3636 112.398Z" fill="#FFF8FD" fill-opacity="0.7"/>
<path d="M690.497 112.397C690.497 141.581 666.835 165.243 637.652 165.243C608.468 165.243 584.806 188.905 584.806 218.088C584.806 247.272 561.144 270.934 531.961 270.934C561.144 270.934 584.806 294.596 584.806 323.779C584.806 294.596 608.468 270.934 637.652 270.934C666.835 270.934 690.497 247.272 690.497 218.088C690.497 247.272 714.159 270.934 743.343 270.934C772.526 270.934 796.188 247.272 796.188 218.088C796.188 188.905 772.526 165.243 743.343 165.243C714.159 165.243 690.497 141.581 690.497 112.397Z" fill="#FFF8FD" fill-opacity="0.7"/>
<path d="M531.958 270.934C502.775 270.934 479.113 247.272 479.113 218.088C479.113 188.905 502.775 165.243 531.958 165.243C502.775 165.243 479.113 141.581 479.113 112.397C479.113 141.581 455.451 165.243 426.267 165.243C397.084 165.243 373.422 188.905 373.422 218.088C373.422 247.272 397.084 270.934 426.267 270.934C455.451 270.934 479.113 294.596 479.113 323.779C479.113 294.596 502.775 270.934 531.958 270.934Z" fill="#FFF8FD" fill-opacity="0.7"/>
<path d="M901.872 218.088C901.872 247.272 878.21 270.934 849.027 270.934C819.844 270.934 796.182 247.272 796.182 218.088C796.182 247.272 772.519 270.934 743.336 270.934C772.519 270.934 796.182 294.596 796.182 323.779C796.182 352.963 819.844 376.625 849.027 376.625C878.21 376.625 901.872 400.287 901.872 429.47C901.872 400.287 925.534 376.625 954.718 376.625V270.934C925.534 270.934 901.872 247.272 901.872 218.088Z" fill="#FFF8FD" fill-opacity="0.7"/>
<path d="M267.74 323.773C267.74 294.59 244.078 270.928 214.894 270.928C185.711 270.928 162.049 294.59 162.049 323.773C162.049 352.957 185.711 376.619 214.894 376.619C185.711 376.619 162.049 400.281 162.049 429.464C162.049 458.648 185.711 482.31 214.894 482.31C244.078 482.31 267.74 458.648 267.74 429.464C267.74 400.281 291.402 376.619 320.585 376.619C291.402 376.619 267.74 352.957 267.74 323.773Z" fill="#FFF8FD" fill-opacity="0.7"/>
<path d="M849.027 482.309C878.21 482.309 901.872 458.647 901.872 429.464C901.872 400.28 878.21 376.618 849.027 376.618C819.844 376.618 796.181 352.956 796.181 323.773C796.181 352.956 772.519 376.618 743.336 376.618C772.519 376.618 796.181 400.28 796.181 429.464C796.181 458.647 772.519 482.309 743.336 482.309C772.519 482.309 796.181 505.971 796.181 535.155C796.181 505.971 819.844 482.309 849.027 482.309Z" fill="#FFF8FD" fill-opacity="0.7"/>
<path d="M690.498 6.71317C690.498 35.8966 666.836 59.5586 637.652 59.5586C666.836 59.5586 690.498 83.2207 690.498 112.404C690.498 83.2207 714.16 59.5586 743.343 59.5586C772.527 59.5586 796.189 35.8966 796.189 6.71317C796.189 -22.4703 772.527 -46.1323 743.343 -46.1323C714.16 -46.1323 690.498 -22.4703 690.498 6.71317Z" fill="#FFF8FD" fill-opacity="0.7"/>
<path d="M373.431 112.397C373.431 83.2141 397.093 59.552 426.277 59.552C397.093 59.552 373.431 35.89 373.431 6.70654C373.431 35.89 349.769 59.552 320.586 59.552C291.402 59.552 267.74 83.2141 267.74 112.397C267.74 141.581 291.402 165.243 320.586 165.243C349.769 165.243 373.431 141.581 373.431 112.397Z" fill="#FFF8FD" fill-opacity="0.7"/>
<path d="M56.3636 218.088C56.3636 188.905 32.7016 165.243 3.51812 165.243C-25.6653 165.243 -49.3274 141.581 -49.3274 112.397C-49.3274 141.581 -72.9894 165.243 -102.173 165.243C-72.9894 165.243 -49.3274 188.905 -49.3274 218.088C-49.3274 247.272 -25.6653 270.934 3.51812 270.934C32.7016 270.934 56.3636 294.596 56.3636 323.779C56.3636 294.596 80.0257 270.934 109.209 270.934C138.393 270.934 162.055 247.272 162.055 218.088C162.055 188.905 138.393 165.243 109.209 165.243C80.0257 165.243 56.3636 188.905 56.3636 218.088Z" fill="#FFF8FD" fill-opacity="0.7"/>
<path d="M584.806 218.089C584.806 188.905 608.468 165.243 637.652 165.243C608.468 165.243 584.806 141.581 584.806 112.398C584.806 83.2143 561.144 59.5522 531.961 59.5522C502.777 59.5522 479.115 83.2143 479.115 112.398C479.115 141.581 502.777 165.243 531.961 165.243C502.777 165.243 479.115 188.905 479.115 218.089C479.115 247.272 502.777 270.934 531.961 270.934C561.144 270.934 584.806 247.272 584.806 218.089Z" fill="#FFF8FD" fill-opacity="0.7"/>
<path d="M17.7672 482.309C46.9506 482.309 70.6126 458.647 70.6126 429.464C70.6126 400.28 46.9506 376.618 17.7672 376.618C-11.4163 376.618 -35.0784 400.28 -35.0784 429.464C-35.0784 458.647 -58.7404 482.309 -87.9238 482.309C-58.7404 482.309 -35.0784 505.971 -35.0784 535.155H70.6126C70.6126 505.971 46.9506 482.309 17.7672 482.309Z" fill="#FFF8FD" fill-opacity="0.7"/>
<path d="M426.277 270.934C397.093 270.934 373.431 294.596 373.431 323.78C373.431 294.596 349.769 270.934 320.586 270.934C291.402 270.934 267.74 294.596 267.74 323.78C267.74 352.963 291.402 376.625 320.586 376.625C349.769 376.625 373.431 400.287 373.431 429.471C373.431 400.287 397.093 376.625 426.277 376.625C455.46 376.625 479.122 352.963 479.122 323.78C479.122 294.596 455.46 270.934 426.277 270.934Z" fill="#FFF8FD" fill-opacity="0.7"/>
<path d="M214.9 482.309C185.716 482.309 162.054 458.647 162.054 429.464C162.054 400.28 185.716 376.618 214.9 376.618C185.716 376.618 162.054 352.956 162.054 323.773C162.054 352.956 138.392 376.618 109.209 376.618C80.0251 376.618 56.3631 400.28 56.3631 429.464C56.3631 458.647 32.701 482.309 3.51758 482.309C32.701 482.309 56.3631 505.971 56.3631 535.155C56.3631 505.971 80.0251 482.309 109.209 482.309C138.392 482.309 162.054 505.971 162.054 535.155H267.745C267.745 505.971 244.083 482.309 214.9 482.309Z" fill="#FFF8FD" fill-opacity="0.7"/>
<path d="M531.958 482.309C561.142 482.309 584.804 458.647 584.804 429.464C584.804 400.28 561.142 376.618 531.958 376.618C502.775 376.618 479.113 352.956 479.113 323.773C479.113 352.956 455.451 376.618 426.267 376.618C397.084 376.618 373.422 400.28 373.422 429.464C373.422 458.647 397.084 482.309 426.267 482.309C455.451 482.309 479.113 505.971 479.113 535.155H584.804C584.804 505.971 561.142 482.309 531.958 482.309Z" fill="#FFF8FD" fill-opacity="0.7"/>
</g>
</g>
</g>
</g>
<defs>
<linearGradient id="paint0_linear_1647_17057" x1="324.606" y1="-223.733" x2="324.606" y2="430.737" gradientUnits="userSpaceOnUse">
<stop stop-color="#D9A3B9" stop-opacity="0.5"/>
<stop offset="1" stop-color="#D9A3B9"/>
</linearGradient>
<clipPath id="clip0_1647_17057">
<rect width="828" height="380" rx="30" fill="white"/>
</clipPath>
<clipPath id="clip1_1647_17057">
<rect y="-50" width="828" height="480" rx="20" fill="white"/>
</clipPath>
</defs>
</svg>
