<svg width="490" height="230" viewBox="0 0 490 230" fill="none" xmlns="http://www.w3.org/2000/svg">
<path d="M60.5015 222.501C28.4409 211.485 11.3198 176.448 22.3466 144.419C33.3733 112.39 68.4455 95.2864 100.506 106.302C132.567 117.318 149.688 152.355 138.661 184.384C127.635 216.413 92.5621 233.517 60.5015 222.501Z" fill="#AC729A"/>
<path d="M85.9225 115.59C66.6434 115.59 53.3399 111.397 52.7945 111.232L46.2024 109.123V52.5518L46.5579 52.7177C44.8268 48.7851 43.8311 44.0945 43.8311 38.4563C43.8311 17.9883 64.7226 5.29053 98.3721 5.29053C117.651 5.29053 130.954 9.48362 131.5 9.64945L138.092 11.7579V68.2582L137.641 68.045C139.42 72.0012 140.464 76.7392 140.464 82.401C140.464 102.869 119.572 115.567 85.9225 115.567V115.59Z" fill="#AC729A"/>
<path d="M159.312 115.589C138.682 115.589 127.892 99.2669 127.892 83.1342V78.3962C127.892 47.0308 125.734 36.015 125.71 35.8966L123.41 24.5491L134.982 24.5018H166.308L166.26 24.3359L178.995 24.5018H227.252L223.671 36.6547C223.671 36.6547 221.679 44.7803 221.679 69.394C221.679 94.0078 223.695 102.37 223.718 102.441L227.228 114.547L214.565 114.405H168.75C165.715 115.186 162.561 115.589 159.289 115.589H159.312Z" fill="#AC729A"/>
<path d="M258.204 142.95C234.846 142.95 220.879 136.364 220.309 136.08L214.926 133.497V86.7573C211.085 80.6453 208.998 73.3014 208.998 64.9863C208.998 39.6619 228.325 23.2922 258.204 23.2922C260.788 23.2922 263.302 23.4106 265.697 23.6238C265.816 19.8335 266.788 16.1616 268.566 12.8213C272.574 5.43005 280.139 1 288.794 1C295.837 1 300.579 2.75308 301.457 3.10843L307.409 5.50106V55.0602L306.034 53.8284C306.959 57.3345 307.409 61.0775 307.409 64.9863C307.409 76.0495 303.734 85.5254 296.928 92.656C305.702 98.7206 307.409 106.586 307.409 111.774C307.409 130.702 288.083 142.926 258.204 142.926V142.95Z" fill="#AC729A"/>
<path d="M320.096 115.587C301.528 115.587 289.979 105.14 289.979 88.344C289.979 79.0576 293.631 72.7799 298.872 68.4209V28.0297L306.579 26.5609C307.267 26.4188 323.771 23.3154 338.948 23.3154C355.452 23.3154 386.138 23.3154 386.138 63.2328V69.5106C386.138 94.1955 388.153 102.368 388.177 102.44L391.687 114.545L379.024 114.403H330.767C327.566 115.137 324.009 115.587 320.096 115.587Z" fill="#AC729A"/>
<path d="M418.39 114.404H370.323L373.832 102.299C373.832 102.299 375.824 94.1021 375.824 69.3936C375.824 44.685 373.809 36.5595 373.785 36.4884L370.204 24.3355L382.939 24.5013H422.611C427.591 21.469 432.523 20.7109 436.175 20.7109C444.688 20.7109 449.431 23.5774 450.664 24.4776L454.672 27.3204V81.4043L438.736 66.6456C438.736 66.6456 434.586 63.1395 428.113 63.1395C426.737 63.1395 425.504 63.9449 425.504 64.5609V69.4173C425.504 94.2205 427.52 102.394 427.543 102.465L431.053 114.57L418.39 114.428V114.404Z" fill="#AC729A"/>
<path d="M444.791 30.8882V58.3684C444.791 58.3684 438.269 52.3274 427.717 52.3274C421.433 52.3274 415.623 56.8285 415.623 63.2248V68.0812C415.623 95.443 417.995 103.616 417.995 103.616H382.543C382.543 103.616 384.914 95.443 384.914 68.0812C384.914 40.7194 382.543 32.6649 382.543 32.6649H416.809C416.809 32.6649 415.505 37.4028 414.793 51.7352C417.283 42.2593 422.974 28.8745 435.78 28.8745C441.945 28.8745 444.791 30.8882 444.791 30.8882Z" fill="#F2D7E9"/>
<path d="M173.114 226.931H118.786L126.659 213.972C127.11 211.982 128.769 202.577 128.769 173.036C128.769 143.495 127.11 134.066 126.659 132.1L118.193 117.981L135.528 119.142H182.362C212.217 119.142 230.026 132.479 230.026 154.795C230.026 161.215 228.556 166.972 225.781 171.899L230.192 169.625L230.026 185.213V225.77L221.75 226.836C216.984 227.452 212.549 227.736 208.21 227.736C199.72 227.736 193.152 226.386 188.053 224.183L190.353 228.044L173.114 226.883V226.931Z" fill="#AC729A"/>
<path d="M248.885 228.114C228.254 228.114 217.464 211.792 217.464 195.659V190.921C217.464 159.556 215.306 148.54 215.283 148.422L212.982 137.074L316.8 137.027L313.219 149.18C313.219 149.18 311.227 157.305 311.227 181.919C311.227 206.533 313.243 214.895 313.267 214.966L316.776 227.072L304.113 226.93H258.299C255.264 227.712 252.11 228.114 248.837 228.114H248.885Z" fill="#AC729A"/>
<path d="M338.285 228.115C322.847 228.115 308.382 224.941 307.765 224.798L300.343 223.14V177.111C298.849 173.889 297.972 170.027 297.972 165.432C297.972 156.524 302.714 135.819 346.584 135.819C361.903 135.819 376.369 138.994 376.985 139.136L384.408 140.794V186.847C385.901 190.045 386.779 193.859 386.779 198.384C386.779 207.315 382.06 228.115 338.285 228.115Z" fill="#AC729A"/>
<path d="M365.151 226.93L371.625 214.374C372.004 212.55 373.498 203.264 373.498 173.036C373.498 142.807 371.981 133.521 371.601 131.697L364.677 118.123L380.588 119.141H431.146L424.933 131.649C424.814 132.265 424.53 133.805 424.245 136.861C426.83 136.198 429.509 135.866 432.284 135.866C453.531 135.866 467.261 150.459 467.261 173.059C467.261 204.519 469.324 215.535 469.324 215.63L471.482 226.906L365.104 226.954L365.151 226.93Z" fill="#AC729A"/>
<path d="M424.718 217.455C424.718 217.455 427.089 205.61 427.089 172.207C427.089 162.494 424.955 160.125 421.872 160.125C417.959 160.125 415.351 163.56 413.691 166.877C413.691 168.772 413.572 170.904 413.572 173.036C413.572 211.058 415.944 217.455 415.944 217.455H380.61C380.61 217.455 382.982 211.058 382.982 173.036C382.982 135.014 380.61 128.618 380.61 128.618H415.944C415.944 128.618 414.402 132.882 413.809 154.795C417.366 150.175 423.295 145.319 432.306 145.319C447.482 145.319 457.798 154.558 457.798 173.036C457.798 206.439 460.051 217.455 460.051 217.455H424.718Z" fill="#FFF3FB"/>
<path d="M130.978 82.4236C130.978 97.5851 112.126 106.113 85.9224 106.113C67.9002 106.113 55.6878 102.205 55.6878 102.205V67.3806C55.6878 67.3806 66.7145 72.4739 82.9583 72.4739C91.8508 72.4739 99.9132 71.2893 99.9132 67.8543C99.9132 60.392 53.3164 71.5263 53.3164 38.4789C53.3164 23.3174 72.1686 14.7891 98.372 14.7891C116.394 14.7891 128.607 18.6979 128.607 18.6979V53.522C128.607 53.522 117.461 48.4287 101.218 48.4287C92.4435 48.4287 84.381 49.6131 84.381 53.0482C84.381 59.7998 130.978 49.85 130.978 82.4236Z" fill="#F2D7E9"/>
<path d="M214.569 104.928H181.37C181.37 104.928 182.318 101.967 182.911 93.3201C179.235 98.5319 171.766 106.113 159.316 106.113C148.764 106.113 137.381 99.2426 137.381 83.1335V78.3955C137.381 44.9928 135.01 33.9771 135.01 33.9771H170.343C170.343 33.9771 167.972 45.8219 167.972 79.1062V83.8442C167.972 88.7006 169.276 91.188 173.07 91.188C177.101 91.188 179.71 87.9899 181.37 84.7917V69.3933C181.37 42.0316 178.998 33.9771 178.998 33.9771H214.569C214.569 33.9771 212.197 42.0316 212.197 69.3933C212.197 96.7551 214.569 104.928 214.569 104.928Z" fill="#F2D7E9"/>
<path d="M288.792 10.5234C294.365 10.5234 297.922 11.9448 297.922 11.9448V33.9764C297.922 33.9764 293.891 30.7782 287.725 30.7782C281.085 30.7782 280.018 34.5686 284.524 39.3066C293.535 45.1106 297.922 54.2312 297.922 65.0101C297.922 79.6978 289.859 90.1213 275.868 94.7408C286.302 96.636 297.922 101.256 297.922 111.798C297.922 126.248 279.899 133.474 258.202 133.474C236.504 133.474 224.41 127.551 224.41 127.551V96.8729C224.41 96.8729 237.808 102.914 258.557 102.914C270.888 102.914 275.75 101.019 275.75 99.5972C275.75 98.0574 272.311 97.2282 258.202 97.2282C233.54 97.2282 218.481 85.028 218.481 65.0101C218.481 44.9922 233.54 32.7919 258.202 32.7919C266.264 32.7919 273.26 33.9763 279.07 36.4638C270.533 23.4344 277.054 10.5234 288.792 10.5234ZM258.202 58.14C252.629 58.14 250.376 60.9828 250.376 65.0101C250.376 69.0374 252.629 71.8801 258.202 71.8801C263.774 71.8801 266.027 68.9189 266.027 65.0101C266.027 61.1013 263.774 58.14 258.202 58.14Z" fill="#F2D7E9"/>
<path d="M344.877 104.927C344.877 104.927 346.419 102.203 347.011 92.6084C344.047 97.1095 336.103 106.112 320.097 106.112C307.41 106.112 299.466 100.426 299.466 88.3442C299.466 61.93 344.877 71.8798 344.877 60.864C344.877 59.3242 343.81 58.2581 340.253 58.2581C327.922 58.2581 308.358 65.602 308.358 65.602V35.8712C308.358 35.8712 324.484 32.7915 338.949 32.7915C360.054 32.7915 376.653 35.1605 376.653 63.233V69.5108C376.653 96.7541 379.025 104.927 379.025 104.927H344.877ZM346.063 68.5632C343.336 73.4196 331.479 76.3808 331.479 83.8431C331.479 87.8704 333.613 90.1209 338.356 90.1209C343.454 90.1209 345.47 86.3306 346.063 85.1461V68.5632Z" fill="#F2D7E9"/>
<path d="M184.973 181.802H183.194C191.138 184.29 197.66 187.606 208.093 187.606C215.919 187.606 220.543 185.237 220.543 185.237V217.456C215.919 218.048 211.888 218.285 208.212 218.285C168.848 218.285 185.447 186.777 170.508 182.395C170.863 212.125 173.116 217.456 173.116 217.456H135.53C135.53 217.456 138.257 211.059 138.257 173.037C138.257 135.015 135.53 128.619 135.53 128.619H182.364C205.604 128.619 220.543 136.91 220.543 154.796C220.543 172.682 205.959 181.802 184.973 181.802ZM185.803 167.115C185.803 160.363 181.653 157.283 174.065 157.283H170.389V173.037C170.389 174.577 170.389 175.998 170.508 177.42H173.591C181.06 177.42 185.803 174.103 185.803 167.115Z" fill="#FFF3FB"/>
<path d="M304.136 217.454H270.937C270.937 217.454 271.885 214.493 272.478 205.846C268.803 211.058 261.333 218.639 248.883 218.639C238.331 218.639 226.948 211.769 226.948 195.66V190.922C226.948 157.519 224.577 146.503 224.577 146.503H259.91C259.91 146.503 257.539 158.348 257.539 191.633V196.371C257.539 201.227 258.843 203.714 262.637 203.714C266.668 203.714 269.277 200.516 270.937 197.318V181.92C270.937 154.558 268.566 146.503 268.566 146.503H304.136C304.136 146.503 301.764 154.558 301.764 181.92C301.764 209.281 304.136 217.454 304.136 217.454Z" fill="#FFF3FB"/>
<path d="M377.292 198.384C377.292 213.071 359.389 218.638 338.284 218.638C323.7 218.638 309.827 215.559 309.827 215.559V188.079C316.23 190.803 327.02 192.106 335.794 192.106C343.501 192.106 347.176 190.921 347.176 188.671C347.176 182.511 307.456 190.092 307.456 165.455C307.456 150.767 325.478 145.318 346.583 145.318C361.049 145.318 374.921 148.398 374.921 148.398V175.76C368.637 173.154 357.847 171.851 349.073 171.851C341.366 171.851 337.691 172.917 337.691 175.168C337.691 181.208 377.292 174.22 377.292 198.384Z" fill="#FFF3FB"/>
<path d="M80.4904 216.365C109.224 216.365 132.518 193.095 132.518 164.39C132.518 135.684 109.224 112.414 80.4904 112.414C51.7565 112.414 28.4629 135.684 28.4629 164.39C28.4629 193.095 51.7565 216.365 80.4904 216.365Z" fill="#FFF3FB"/>
<path d="M81.4546 149.847C84.9602 139.664 85.4929 130.616 82.6444 129.638C79.796 128.659 74.6451 136.12 71.1395 146.302C67.6339 156.485 67.1011 165.533 69.9495 166.511C72.798 167.49 77.9491 160.029 81.4546 149.847Z" fill="#AC729A"/>
<path d="M98.7211 155.774C102.227 145.592 102.759 136.544 99.9109 135.565C97.0625 134.586 91.9116 142.047 88.406 152.23C84.9004 162.412 84.3677 171.46 87.2161 172.439C90.0646 173.417 95.2155 165.956 98.7211 155.774Z" fill="#AC729A"/>
<path d="M80.4686 199.215C76.7218 199.215 72.9039 198.599 69.1572 197.319C50.9927 191.065 41.2938 171.237 47.5305 153.067C47.9573 151.835 49.3091 151.172 50.5422 151.598C51.7753 152.025 52.4392 153.375 52.0124 154.607C46.6057 170.289 55.0003 187.441 70.6986 192.842C78.3106 195.448 86.468 194.951 93.7006 191.421C100.933 187.891 106.34 181.779 108.972 174.175C109.399 172.943 110.751 172.279 111.984 172.706C113.217 173.132 113.881 174.482 113.454 175.714C108.498 190.118 94.9338 199.215 80.4686 199.215Z" fill="#AC729A"/>
<path d="M43.3553 155.46C42.0985 155.46 41.0551 154.488 40.984 153.209C40.9128 151.906 41.9327 150.793 43.2369 150.722L56.8484 150.011C58.129 149.94 59.2671 150.958 59.3382 152.261C59.4093 153.564 58.3898 154.678 57.0855 154.749L43.474 155.46C43.474 155.46 43.4028 155.46 43.3553 155.46Z" fill="#AC729A"/>
<path d="M116.726 180.665C116.181 180.665 115.612 180.475 115.185 180.096L104.893 171.189C103.897 170.336 103.802 168.844 104.656 167.849C105.509 166.854 107.003 166.759 107.999 167.612L118.291 176.519C119.287 177.372 119.382 178.864 118.528 179.859C118.054 180.404 117.39 180.689 116.726 180.689V180.665Z" fill="#AC729A"/>
</svg>
