<svg width="828" height="380" viewBox="0 0 828 380" fill="none" xmlns="http://www.w3.org/2000/svg">
<g clip-path="url(#clip0_1647_17251)">
<rect width="828" height="380" rx="30" fill="#F9CFAF"/>
<rect width="828" height="480" rx="24" fill="white"/>
<g clip-path="url(#clip1_1647_17251)">
<path d="M828 0H0V480H828V0Z" fill="url(#paint0_linear_1647_17251)"/>
<g opacity="0.5">
<mask id="mask0_1647_17251" style="mask-type:luminance" maskUnits="userSpaceOnUse" x="-50" y="-17" width="1090" height="564">
<path d="M1039.01 -16.7979H-49.3398V546.349H1039.01V-16.7979Z" fill="white"/>
</mask>
<g mask="url(#mask0_1647_17251)">
<path d="M859.638 -119.621C860.796 -112.162 861.863 -104.403 862.413 -96.8706C866.795 -36.6241 865.819 40.9857 844.8 98.0536C818.014 170.771 743.68 202.199 698.679 261.958C642.917 336.009 636.906 428.989 599.886 510.311C536.688 649.161 323.998 645.841 197.613 618.924C85.5317 595.056 25.6087 546.661 -19.5847 441.625C-37.0559 401.017 -45.6609 356.653 -47.3127 312.487C-49.339 258.121 -38.0946 178.575 -63.8245 130.368C-65.2038 127.785 -67.0259 124.221 -69.5518 122.637V20.5346C-66.6796 21.176 -64.3865 26.6308 -62.8936 29.1907C-43.8445 61.8171 -25.8114 100.409 -20.4872 138.082C-16.2472 168.057 -17.0418 198.726 -14.777 228.9C-3.83912 374.64 45.8328 524.451 201.104 566.233C258.001 581.541 349.563 590.038 408.021 585.787C529.769 576.932 549.908 461.179 586.025 366.518C613.038 295.719 658.708 221.805 714.805 170.424C752.915 135.516 788.833 121.502 804.596 67.147C818.014 20.8581 821.329 -39.2749 822.533 -87.5561C822.799 -98.2272 822.255 -108.955 822.493 -119.615H859.621L859.638 -119.621Z" fill="#E7A26B"/>
<path d="M946.897 -119.621L949.718 -80.2115L948.742 8.92085C946.188 35.3773 943.406 61.8849 936.419 87.5637C915.173 165.673 847.474 214.533 803.739 278.827C735.671 378.886 732.174 525.08 648.474 615.513C588.897 679.88 465.703 684.75 383.915 693.474C380.963 693.787 376.843 694.246 374.158 695.325H41.8426C30.0363 691.318 16.5441 688.985 6.55975 680.947C-17.5922 661.512 -42.9475 627.24 -63.0694 602.991C-64.7042 601.021 -67.0598 597.57 -69.5459 596.935V452.136C-67.406 451.875 -65.9813 455.843 -65.0901 457.427C-33.5024 513.586 18.122 595.499 79.0043 621.495C132.644 644.404 210.594 649.672 268.792 651.698C349.597 654.513 450.485 653.168 528.248 629.873C614.616 604.002 633.427 512.468 661.223 437.974C685.341 373.335 713.091 312.35 758.909 259.982C805.363 206.888 855.869 174.006 878.221 102.685C893.763 53.0925 900.54 -2.45981 904.235 -54.1581L904.195 -119.632H946.897V-119.621Z" fill="#E7A26B"/>
<path d="M20.4953 -119.621C31.7851 -86.4152 43.1658 -51.2799 46.4806 -16.1219C47.298 -7.47717 47.0653 1.19598 47.4229 9.85208C51.1294 99.0299 42.7401 194.571 54.0299 282.63C70.1672 408.493 195.167 440.677 300.652 462.064C336.1 469.25 400.575 483.055 430.71 459.953C476.885 424.545 503.064 323.504 527.46 269.887C542.955 235.83 562.697 191.381 584.124 161.331C605.637 131.157 633.938 114.651 661.013 90.6292C706.15 50.5784 725.04 26.8975 733.271 -34.8191C736.977 -62.5981 738.294 -91.7281 736.188 -119.615H772.391C771.999 -74.5578 774.02 -24.1764 759.171 18.9225C743.368 64.7971 682.901 106.698 650.308 143.974C586.889 216.503 564.82 307.066 530.808 394.825C515.88 433.343 489.418 503.58 452.762 524.695C395.291 557.809 293.012 524.326 234.446 503.205C128.018 464.823 64.0256 436.715 31.9043 319.61C3.92664 217.599 5.6749 117.602 -4.56486 13.5813C-7.1475 -12.6765 -10.5929 -49.3103 -20.5602 -73.4509C-27.5362 -90.3261 -43.7189 -104.386 -53.7656 -119.621H20.4953Z" fill="#E7A26B"/>
<path d="M1029.51 -119.621C1030.11 -106.435 1032.21 -93.3117 1033.21 -80.1658C1039.27 -0.325226 1044.76 126.843 1000.19 195.882C981.339 225.08 966.837 229.172 940.108 247.188C902.526 272.515 898.865 316.091 886.576 356.091C868.39 415.276 840.134 476.385 810.601 530.729C777.225 592.144 738.735 653.622 681.412 695.319H586.728C584.906 692.572 586.132 693.957 587.835 693.208C662.777 660.105 685.561 617.29 728.961 552.122C770.913 489.128 784.298 414.175 821.42 347.56C870.706 259.12 964.044 178.24 976.469 75.6328C982.44 26.2845 982.003 -35.2675 976.486 -84.6953C975.181 -96.3655 973.466 -108.138 971.031 -119.615H1029.51L1029.51 -119.621Z" fill="#E7A26B"/>
<path d="M107.749 -119.621C117.955 -90.8603 126.883 -61.2819 130.822 -30.8465C137.168 18.1669 130.147 74.0996 128.211 124.067C126.355 171.911 120.492 257.564 140.994 300.555C168.16 357.532 253.898 380.549 311.658 387.939C388.195 397.73 404.526 345.862 437.822 291.638C483.827 216.724 534.084 143.638 592.752 78.0672C613.901 54.4261 636.981 33.6288 652.794 5.37862C674.267 -32.9694 674.562 -76.9821 680.483 -119.621H712.973C707.427 -79.8372 702.636 -37.2889 688.855 0.593628C677.894 30.7226 667.87 35.6778 646.579 56.7079C619.68 83.2722 590.607 111.477 569.264 142.758C550.658 170.032 538.534 203.499 523.163 233.105C494.271 288.754 457.774 352.69 418.676 401.511C388.621 439.047 373.897 448.276 323.573 443.775C261.073 438.184 166.173 403.86 134.183 346.339C90.8851 268.479 102.572 118.249 103.146 29.383C103.304 4.84507 103.997 -19.5964 98.0086 -43.5213C91.271 -70.4489 74.7648 -94.2376 64.1221 -119.627H107.749V-119.621Z" fill="#E7A26B"/>
<path d="M207.074 -119.621L195.012 18.2237C189.149 101.856 189.257 165.718 231.975 240.212C285.416 333.391 402.986 227.792 447.969 178.342C485.903 136.639 528.304 83.4312 559.642 36.6087C590.156 -8.97634 605.062 -68.1387 622.936 -119.621H656.352C647.275 -88.1868 636.547 -57.0305 624.559 -26.5724C611.624 6.29246 597.808 39.6057 575.569 67.3791C560.056 86.7517 540.388 102.265 524.563 121.263C512.342 135.93 502.324 153.009 490.955 168.409C464.68 203.981 437.185 238.855 408.486 272.509C386.128 298.727 339.368 357.526 304.772 361.863C259.959 367.482 226.129 340.316 205.99 303.319C163.623 225.488 155.421 92.7287 168.243 6.29813C174.459 -35.5974 187.48 -76.8913 187.582 -119.627H207.074V-119.621Z" fill="#E7A26B"/>
<path d="M276.692 -119.621C274.206 -81.7898 267.071 -44.3841 262.882 -6.73425C258.846 29.559 248.38 115.921 295.997 127.921C337.177 138.302 395.795 122.046 428.83 96.0777C462.415 69.6779 509.431 -5.75796 524.302 -46.0699C533.242 -70.3013 537.233 -96.2867 548.67 -119.627H599.727C575.291 -67.8946 556.242 -12.8361 522.514 33.8161C477.696 95.8109 410.723 175.544 331.632 190.092C307.684 194.496 273.644 195.416 253.568 179.63C206.041 142.287 228.292 34.5256 233.985 -18.0014C237.657 -51.8425 240.887 -85.7574 244.202 -119.627H276.692V-119.621Z" fill="#E7A26B"/>
<path d="M1082.42 281.353C1049.37 303.444 1005.75 315.716 980.858 348.263C948.776 390.199 947.363 464.147 938.253 515.426C927.321 576.955 906.943 637.582 883.779 695.319H789.095C787.642 693.594 789.021 693.208 789.992 692.067C808.326 670.52 827.148 659.026 841.56 633.149C880.975 562.39 898.333 458.517 923.444 379.953C934.291 346.021 947.085 298.784 983.548 285.042C1007.88 275.875 1030.12 274.133 1049.98 254.011C1068.38 235.365 1075.52 201.813 1082.43 177.395V281.353H1082.42Z" fill="#E7A26B"/>
<path d="M337.031 -119.621C330.736 -95.4062 320.911 -66.3955 323.073 -41.1537C324.407 -25.5897 340.993 -8.98135 356.284 -6.60305C379.466 -2.9987 396.301 -18.0064 408.715 -35.4151C426.492 -60.339 436.045 -90.5304 444.713 -119.621H494.839C484.718 -104.755 482.629 -86.5514 477.447 -69.716C459.272 -10.6331 407.074 70.8081 334.261 43.2618C293.143 27.7035 285.304 4.87978 288.772 -37.4642C291.043 -65.1978 298.961 -92.1197 302.685 -119.615H337.031V-119.621Z" fill="#E7A26B"/>
</g>
</g>
</g>
</g>
<defs>
<linearGradient id="paint0_linear_1647_17251" x1="414" y1="0" x2="414" y2="480" gradientUnits="userSpaceOnUse">
<stop stop-color="#E69970" stop-opacity="0.5"/>
<stop offset="1" stop-color="#C07337"/>
</linearGradient>
<clipPath id="clip0_1647_17251">
<rect width="828" height="380" rx="30" fill="white"/>
</clipPath>
<clipPath id="clip1_1647_17251">
<rect width="828" height="480" rx="24" fill="white"/>
</clipPath>
</defs>
</svg>
