<svg width="490" height="230" viewBox="0 0 490 230" fill="none" xmlns="http://www.w3.org/2000/svg">
<path d="M55.7668 189.594L53.0441 186.744C52.8512 186.529 52.6368 186.294 52.4224 185.993C51.7578 185.479 51.0503 184.922 50.3643 184.3C42.0462 176.906 33.7495 169.254 25.7316 161.838C18.4854 155.151 11.0034 148.25 3.5643 141.605L2.53526 140.684L1.84923 139.484C0.262787 136.719 0.391417 133.975 0.455732 132.496V132.175V131.96C0.0698415 126.795 -0.230296 121.844 0.241349 117.986C0.434294 116.357 0.991692 114.921 1.91354 113.614C4.18601 110.184 7.70191 109.284 9.18116 108.941L92.0191 73.105L97.5073 74.4767L99.0723 75.827C106.554 82.3427 114.551 88.7512 122.312 94.9239C131.53 102.297 141.049 109.906 149.988 117.922C150.074 118.007 150.16 118.093 150.246 118.158C150.503 118.329 150.717 118.5 150.953 118.672L154.383 121.415L154.19 125.638V126.152L154.019 128.681L153.783 128.981C153.59 133.418 153.311 137.855 153.054 142.184L152.733 147.607L62.6699 189.037L60.8905 189.53H59.5828L55.8096 189.551L55.7668 189.594Z" fill="#65352E"/>
<path d="M396.957 177.763L342.761 147.521L341.603 144.842C340.038 141.198 338.945 137.555 337.916 134.061C337.273 131.854 336.651 129.775 335.944 127.803C334.722 124.781 335.236 121.373 337.273 118.865C337.873 118.008 338.495 117.429 339.031 116.979C341.711 114.664 345.098 112.499 348.078 110.592C349.257 109.842 350.393 109.113 351.422 108.406C368.166 97.0032 390.161 82.2357 411.664 68.99L412.372 68.5399C415.63 66.4609 418.589 64.7248 421.933 64.6177H422.255C424.527 64.6177 426.328 65.4107 429.093 66.6967L429.544 66.911C433.231 68.5614 436.876 70.3403 440.413 72.0336C442.385 72.998 444.358 73.9411 446.351 74.8842C459.107 80.9069 468.947 85.665 478.102 90.2089C479.624 90.7233 480.674 91.4734 481.253 91.9235L484.212 93.4453L490 115.993L488.392 121.994L406.798 177.378L402.746 179.885L397 177.763H396.957Z" fill="#65352E"/>
<path d="M365.614 114.772C348.828 114.772 338.388 105.32 338.388 90.1236C338.388 81.7218 341.689 76.042 346.427 72.0983V35.5548L353.395 34.2259C354.016 34.0973 368.937 31.2896 382.658 31.2896C397.579 31.2896 425.32 31.2896 425.32 67.4044V73.0842C425.32 95.4176 427.143 102.812 427.164 102.876L430.337 113.829L418.889 113.7H375.262C372.368 114.365 369.152 114.772 365.614 114.772Z" fill="#65352E"/>
<path d="M160.45 114.772C133.416 114.772 115.965 98.3754 115.965 72.9771C115.965 47.5788 133.437 31.2896 160.45 31.2896C187.462 31.2896 204.934 47.6431 204.934 72.9771C204.934 98.3111 187.462 114.772 160.45 114.772Z" fill="#65352E"/>
<path d="M243.202 114.772C198.525 114.772 191.857 88.5804 191.857 72.9771C191.857 57.3737 198.525 31.2896 243.202 31.2896C262.883 31.2896 271.008 35.4905 272.423 36.3263L276.646 38.8126V107.227L272.423 109.714C270.987 110.549 262.861 114.772 243.202 114.772ZM238.615 73.0414C239.644 73.32 241.423 73.6415 244.381 73.6415C247.018 73.6415 249.591 73.4057 251.949 73.0414C249.591 72.6984 247.04 72.4627 244.381 72.4627C241.423 72.4627 239.644 72.7627 238.615 73.0414Z" fill="#65352E"/>
<path d="M308.588 114.772C281.554 114.772 264.104 98.3754 264.104 72.9771C264.104 47.5788 281.576 31.2896 308.588 31.2896C335.601 31.2896 353.073 47.6431 353.073 72.9771C353.073 98.3111 335.601 114.772 308.588 114.772Z" fill="#65352E"/>
<path d="M388.017 105.127C388.017 105.127 389.411 102.662 389.947 93.9815C387.267 98.0539 380.085 106.198 365.614 106.198C354.145 106.198 346.963 101.054 346.963 90.1236C346.963 66.2256 388.017 75.2275 388.017 65.2611C388.017 63.8679 387.053 62.9035 383.837 62.9035C372.689 62.9035 355.002 69.5477 355.002 69.5477V42.6491C355.002 42.6491 369.58 39.8628 382.658 39.8628C401.738 39.8628 416.745 42.0061 416.745 67.4044V73.0842C416.745 97.7324 418.889 105.127 418.889 105.127H388.017ZM389.089 72.2269C386.624 76.6207 375.905 79.2998 375.905 86.0513C375.905 89.6949 377.834 91.7311 382.122 91.7311C386.731 91.7311 388.553 88.3018 389.089 87.2301V72.2269Z" fill="#ECA877"/>
<path d="M475.079 98.6755C470.684 97.8825 465.882 95.6534 461.659 94.9676C461.08 94.8818 460.523 94.7747 459.987 95.0533L397.194 136.912L396.293 137.212L356.354 115.929C375.777 102.705 396.272 89.0306 416.274 76.7279C417.689 75.8706 420.819 73.663 422.341 73.6201C422.898 73.6201 425.407 74.8418 426.135 75.1847C431.709 77.6924 437.241 80.4787 442.772 83.0936C453.577 88.1947 464.36 93.3601 475.058 98.6969L475.079 98.6755Z" fill="#65352E"/>
<path d="M476.967 99.7471L481.233 116.401L481.04 117.151L402.233 170.648C401.504 170.798 401.697 170.284 401.568 169.834C400.067 164.904 397.538 158.024 396.83 153.116L476.967 99.7471Z" fill="#532B25"/>
<path d="M475.078 98.675C476.021 98.8465 476.171 99.3394 476.965 99.7467L396.828 153.115C396.828 153.115 396.828 152.944 396.828 152.837C396.185 147.671 396.892 142.377 396.292 137.212L397.192 136.912L459.985 95.0528C460.543 94.7956 461.1 94.8814 461.658 94.9671C465.881 95.6529 470.683 97.882 475.078 98.675Z" fill="#75433B"/>
<path d="M396.85 152.859C396.85 152.859 396.85 153.03 396.85 153.137C397.558 158.024 400.087 164.904 401.588 169.855C401.717 170.305 401.524 170.82 402.253 170.67L401.909 170.884L400.73 170.455L349.664 141.949C347.327 136.505 346.084 130.675 344.09 125.103C343.897 124.76 344.197 124.695 344.262 124.567L396.871 152.859H396.85Z" fill="#532B25"/>
<path d="M356.375 115.929L396.315 137.212C396.915 142.399 396.208 147.672 396.851 152.837L344.241 124.545C344.391 124.245 344.541 124.117 344.799 123.902C347.971 121.159 352.859 118.33 356.397 115.929H356.375Z" fill="#75433B"/>
<path d="M411.729 177.313V135.647L405.019 134.147C404.461 134.018 391.405 131.146 377.535 131.146C362.185 131.146 352.152 133.954 345.592 137.855V135.626L338.881 134.125C338.324 133.997 325.268 131.125 311.397 131.125C299.327 131.125 290.538 132.861 284.149 135.497L285.114 132.196H281.083C282.177 129.71 282.67 127.095 282.67 124.588C282.67 115.393 275.981 104.655 257.158 104.655C244.081 104.655 236.835 109.799 233.619 116.014H203.562L189.177 115.093L192.543 121.716C183.11 117.043 171.062 115.993 162.186 115.993H119.845L104.174 114.943L111.827 127.717C112.235 129.496 113.735 138.005 113.735 164.753C113.735 191.502 112.235 200.011 111.827 201.79L104.71 213.514H163.258C175.113 213.514 184.632 212.035 191.835 209.12L189.563 213.514L285.114 213.642L284.964 213.107C290.066 213.835 296.862 214.564 303.894 214.564C319.179 214.564 329.191 211.756 335.73 207.834V210.085L342.44 211.585C342.997 211.713 356.053 214.586 370.031 214.586C409.607 214.586 413.873 195.767 413.873 187.687C413.873 183.593 413.08 180.142 411.729 177.249V177.313Z" fill="#65352E"/>
<path d="M199.917 185.715C199.917 199.218 187.376 205.005 163.257 205.005H119.845C119.845 205.005 122.31 199.218 122.31 164.818C122.31 130.418 119.845 124.631 119.845 124.631H162.186C186.304 124.631 198.845 131.489 198.845 145.1C198.845 156.03 191.127 162.139 179.979 164.818C191.771 167.604 199.917 174.356 199.917 185.715ZM151.359 161.389H156.397C163.15 161.389 167.438 160.317 167.438 155.709C167.438 151.529 163.686 150.565 156.826 150.565H151.359V161.389ZM168.51 173.82C168.51 169.319 164.222 168.247 157.469 168.247H151.359V179.071H157.148C164.758 179.071 168.51 178.107 168.51 173.82Z" fill="#F9CFAF"/>
<path d="M59.9244 163.318V176.092L59.3884 180.25C58.3594 179.435 57.2017 178.621 56.1512 177.699C40.3726 163.682 25.087 149.086 9.37266 135.004C8.85813 134.104 9.20115 132.604 9.11539 131.511C8.85813 127.974 8.40793 122.316 8.8367 118.865C8.87957 118.458 8.96533 118.479 9.11539 118.222L58.7024 162.803C59.0454 163.168 59.4742 163.21 59.9029 163.339L59.9244 163.318Z" fill="#532B25"/>
<path d="M145.678 124.19C145.678 124.19 145.678 124.362 145.678 124.469C145.678 124.512 145.42 124.769 145.399 125.112C145.184 130.341 144.863 135.571 144.563 140.801L59.7954 179.788C59.238 179.938 59.4524 179.273 59.4095 179.231L59.9669 175.072V162.298C59.9669 162.298 60.1384 162.298 60.2242 162.298C60.3314 162.298 60.6101 162.77 61.0174 162.47C85.8216 150.96 110.819 139.901 135.666 128.52C138.453 127.255 141.647 125.926 144.306 124.533C144.777 124.276 145.056 124.64 144.884 123.654C145.12 123.869 145.442 123.997 145.699 124.19H145.678Z" fill="#532B25"/>
<path d="M144.329 124.117C143.814 124.159 143.407 123.945 142.978 123.731C139.848 122.123 134.596 118.265 131.616 117.344C131.166 117.194 130.78 117.001 130.287 117.194L62.627 147.5L23.652 113.25C23.3733 113.057 23.1375 113.186 22.8588 113.25C19.9646 113.764 15.141 115.886 12.1182 116.915L92.898 81.979L93.5626 82.1505C110.049 96.5107 128.121 109.585 144.372 124.181L144.329 124.117Z" fill="#65352E"/>
<path d="M144.327 123.846C144.542 124.039 144.692 124.232 144.863 124.382C145.035 125.368 144.756 125.025 144.284 125.261C141.605 126.654 138.432 127.983 135.645 129.247C110.798 140.628 85.8006 151.688 60.9963 163.197C60.589 163.497 60.3103 163.047 60.2031 163.026C60.7176 157.71 61.7467 152.438 62.6257 147.187L130.285 116.88C130.8 116.709 131.164 116.88 131.614 117.03C134.594 117.952 139.847 121.81 142.977 123.417C143.405 123.632 143.813 123.846 144.327 123.803V123.846Z" fill="#75433B"/>
<path d="M62.605 147.208C61.726 152.459 60.697 157.732 60.1825 163.047C60.0967 163.047 59.9895 163.069 59.9038 163.047C59.475 162.919 59.0248 162.876 58.7032 162.512L9.11621 117.931C9.73792 116.945 11.1743 116.88 12.0747 116.58C15.0975 115.552 19.9212 113.451 22.8153 112.915C23.094 112.872 23.3513 112.744 23.6086 112.915L62.5836 147.165L62.605 147.208Z" fill="#75433B"/>
<path d="M268.071 77.478V102.34C268.071 102.34 261.532 106.198 243.202 106.198C215.654 106.198 200.433 95.589 200.433 72.977C200.433 50.365 215.654 39.8628 243.202 39.8628C261.532 39.8628 268.071 43.7208 268.071 43.7208V68.4761C268.071 68.4761 257.244 63.8679 244.381 63.8679C233.233 63.8679 229.267 67.5116 229.267 72.977C229.267 78.4425 233.233 82.1933 244.381 82.1933C257.244 82.1933 268.071 77.478 268.071 77.478Z" fill="#ECA877"/>
<path d="M308.588 106.198C286.292 106.198 272.679 93.6601 272.679 72.977C272.679 52.294 286.292 39.8628 308.588 39.8628C330.884 39.8628 344.497 52.294 344.497 72.977C344.497 93.6601 330.991 106.198 308.588 106.198ZM315.77 72.977C315.77 66.3328 312.876 63.8679 308.588 63.8679C304.3 63.8679 301.513 66.3328 301.513 72.977C301.513 79.6213 304.408 82.1933 308.588 82.1933C312.768 82.1933 315.77 79.7285 315.77 72.977Z" fill="#ECA877"/>
<path d="M90.6664 114.879C55.4217 114.879 34.3906 96.2103 34.3906 64.9393C34.3906 33.6683 55.4431 15 90.6664 15C108.031 15 121.538 18.6865 122.117 18.858L128.398 20.5941V109.306L122.117 111.042C121.559 111.192 108.031 114.9 90.6664 114.9V114.879ZM81.7909 65.4323C82.4769 65.8609 85.4783 67.3184 94.7397 67.3184C102.629 67.3184 108.632 66.0324 112.212 64.9607C108.632 63.9105 102.65 62.6031 94.7397 62.6031C85.4783 62.6031 82.4769 64.0391 81.7909 64.4892C81.7909 64.5964 81.7695 64.7678 81.7695 64.9607C81.7695 65.1536 81.7695 65.3251 81.7909 65.4323Z" fill="#65352E"/>
<path d="M73.1959 64.9393C73.1959 71.0477 76.8404 75.8702 94.7415 75.8702C110.606 75.8702 119.824 71.262 119.824 71.262V102.769C119.824 102.769 107.069 106.305 90.6682 106.305C60.4401 106.305 42.9678 91.1949 42.9678 64.9393C42.9678 38.6836 60.4401 23.5732 90.6682 23.5732C107.069 23.5732 119.824 27.1097 119.824 27.1097V58.6165C119.824 58.6165 110.606 54.0083 94.7415 54.0083C76.8404 54.0083 73.1959 58.8308 73.1959 64.9393Z" fill="#ECA877"/>
<path d="M160.449 106.198C138.153 106.198 124.54 93.6601 124.54 72.977C124.54 52.294 138.153 39.8628 160.449 39.8628C182.745 39.8628 196.359 52.294 196.359 72.977C196.359 93.6601 182.852 106.198 160.449 106.198ZM167.631 72.977C167.631 66.3328 164.737 63.8679 160.449 63.8679C156.162 63.8679 153.375 66.3328 153.375 72.977C153.375 79.6213 156.269 82.1933 160.449 82.1933C164.63 82.1933 167.631 79.7285 167.631 72.977Z" fill="#ECA877"/>
<path d="M339.16 187.752C339.16 201.04 322.974 206.077 303.894 206.077C290.71 206.077 278.168 203.291 278.168 203.291V178.428C283.957 180.893 293.711 182.072 301.643 182.072C308.611 182.072 311.934 181 311.934 178.964C311.934 173.391 276.024 180.25 276.024 157.959C276.024 144.671 292.318 139.741 311.398 139.741C324.475 139.741 337.017 142.528 337.017 142.528V167.283C331.335 164.925 321.581 163.746 313.649 163.746C306.681 163.746 303.358 164.711 303.358 166.747C303.358 172.212 339.16 165.89 339.16 187.752Z" fill="#F9CFAF"/>
<path d="M405.296 187.752C405.296 201.04 389.11 206.077 370.03 206.077C356.845 206.077 344.304 203.291 344.304 203.291V178.428C350.092 180.893 359.847 182.072 367.779 182.072C374.747 182.072 378.069 181 378.069 178.964C378.069 173.391 342.16 180.25 342.16 157.959C342.16 144.671 358.453 139.741 377.533 139.741C390.611 139.741 403.152 142.528 403.152 142.528V167.283C397.471 164.925 387.717 163.746 379.785 163.746C372.817 163.746 369.494 164.711 369.494 166.747C369.494 172.212 405.296 165.89 405.296 187.752Z" fill="#F9CFAF"/>
<path d="M235.506 205.005H203.562C203.562 205.005 205.706 199.218 205.706 164.818C205.706 130.418 203.562 124.631 203.562 124.631H235.506C235.506 124.631 233.362 130.418 233.362 164.818C233.362 199.218 235.506 205.005 235.506 205.005Z" fill="#F9CFAF"/>
<path d="M274.096 124.631C274.096 131.811 267.665 136.097 257.16 136.097C246.655 136.097 240.116 131.811 240.116 124.631C240.116 117.45 246.548 113.271 257.16 113.271C267.772 113.271 274.096 117.558 274.096 124.631ZM271.523 172.962C271.523 197.611 273.667 205.005 273.667 205.005H241.724C241.724 205.005 243.868 197.611 243.868 172.962V172.855C243.868 148.1 241.724 140.813 241.724 140.813H273.667C273.667 140.813 271.523 148.1 271.523 172.855V172.962Z" fill="#F9CFAF"/>
</svg>
